<?xml version="1.0" encoding="utf-8" standalone="no"?>
<!DOCTYPE svg PUBLIC "-//W3C//DTD SVG 1.1//EN"
  "http://www.w3.org/Graphics/SVG/1.1/DTD/svg11.dtd">
<svg xmlns:xlink="http://www.w3.org/1999/xlink" width="460.8pt" height="345.6pt" viewBox="0 0 460.8 345.6" xmlns="http://www.w3.org/2000/svg" version="1.1">
 <metadata>
  <rdf:RDF xmlns:dc="http://purl.org/dc/elements/1.1/" xmlns:cc="http://creativecommons.org/ns#" xmlns:rdf="http://www.w3.org/1999/02/22-rdf-syntax-ns#">
   <cc:Work>
    <dc:type rdf:resource="http://purl.org/dc/dcmitype/StillImage"/>
    <dc:date>2026-07-16T02:29:02.536843</dc:date>
    <dc:format>image/svg+xml</dc:format>
    <dc:creator>
     <cc:Agent>
      <dc:title>Matplotlib v3.11.0, https://matplotlib.org/</dc:title>
     </cc:Agent>
    </dc:creator>
   </cc:Work>
  </rdf:RDF>
 </metadata>
 <defs>
  <style type="text/css">*{stroke-linejoin: round; stroke-linecap: butt}</style>
 </defs>
 <g id="figure_1">
  <g id="patch_1">
   <path d="M 0 345.6 
L 460.8 345.6 
L 460.8 0 
L 0 0 
z
" style="fill: #ffffff"/>
  </g>
  <g id="axes_1">
   <g id="line2d_1">
    <path d="M 210.959569 281.10358 
L 194.458619 280.000003 
M 204.752247 263.62356 
L 194.458619 280.000003 
M 204.752247 263.62356 
L 210.959569 281.10358 
M 145.167476 87.902847 
L 142.95994 69.229756 
M 160.20821 79.410603 
L 142.95994 69.229756 
M 160.20821 79.410603 
L 145.167476 87.902847 
M 327.447651 261.397056 
L 329.429836 279.916319 
M 312.15941 269.674115 
L 329.429836 279.916319 
M 312.15941 269.674115 
L 327.447651 261.397056 
M 312.254185 200.399279 
L 329.354977 190.196479 
M 326.836879 208.973226 
L 329.354977 190.196479 
M 326.836879 208.973226 
L 312.254185 200.399279 
M 189.271031 266.621451 
L 204.752247 263.62356 
M 194.458619 280.000003 
L 204.752247 263.62356 
M 194.458619 280.000003 
L 189.271031 266.621451 
M 141.300265 281.2431 
L 147.488312 263.653761 
M 157.372479 280.070548 
L 147.488312 263.653761 
M 157.372479 280.070548 
L 141.300265 281.2431 
M 263.794351 279.512632 
L 266.089838 260.928 
M 280.170633 269.940887 
L 266.089838 260.928 
M 280.170633 269.940887 
L 263.794351 279.512632 
M 206.815597 87.970521 
L 191.879659 79.380971 
M 208.653253 69.218448 
L 191.879659 79.380971 
M 208.653253 69.218448 
L 206.815597 87.970521 
M 280.30931 200.456489 
L 265.484438 209.314266 
M 263.5412 190.281095 
L 265.484438 209.314266 
M 263.5412 190.281095 
L 280.30931 200.456489 
M 159.182801 65.002061 
L 160.20821 79.410603 
M 142.95994 69.229756 
L 160.20821 79.410603 
M 142.95994 69.229756 
L 159.182801 65.002061 
M 163.736579 266.719806 
L 157.372479 280.070548 
M 147.488312 263.653761 
L 157.372479 280.070548 
M 147.488312 263.653761 
L 163.736579 266.719806 
M 313.169754 284.149564 
L 312.15941 269.674115 
M 329.429836 279.916319 
L 312.15941 269.674115 
M 329.429836 279.916319 
L 313.169754 284.149564 
M 313.164662 185.969141 
L 329.354977 190.196479 
M 312.254185 200.399279 
L 329.354977 190.196479 
M 312.254185 200.399279 
L 313.164662 185.969141 
M 192.479753 64.993873 
L 208.653253 69.218448 
M 191.879659 79.380971 
L 208.653253 69.218448 
M 191.879659 79.380971 
L 192.479753 64.993873 
M 279.36 186.103405 
L 280.30931 200.456489 
M 263.5412 190.281095 
L 280.30931 200.456489 
M 263.5412 190.281095 
L 279.36 186.103405 
M 342.956699 269.333337 
L 329.429836 279.916319 
M 327.447651 261.397056 
L 329.429836 279.916319 
M 327.447651 261.397056 
L 342.956699 269.333337 
M 249.870492 201.378151 
L 263.5412 190.281095 
M 265.484438 209.314266 
L 263.5412 190.281095 
M 265.484438 209.314266 
L 249.870492 201.378151 
M 191.879659 79.380971 
L 176.237574 87.8497 
M 175.945853 69.233946 
L 176.237574 87.8497 
M 175.945853 69.233946 
L 191.879659 79.380971 
M 296.176843 208.819053 
L 280.30931 200.456489 
M 296.374147 190.193946 
L 280.30931 200.456489 
M 296.374147 190.193946 
L 296.176843 208.819053 
M 279.527967 284.550983 
L 263.794351 279.512632 
M 280.170633 269.940887 
L 263.794351 279.512632 
M 280.170633 269.940887 
L 279.527967 284.550983 
M 129.570174 80.085336 
L 142.95994 69.229756 
M 145.167476 87.902847 
L 142.95994 69.229756 
M 145.167476 87.902847 
L 129.570174 80.085336 
M 342.687166 200.989835 
L 326.836879 208.973226 
M 329.354977 190.196479 
L 326.836879 208.973226 
M 329.354977 190.196479 
L 342.687166 200.989835 
M 280.170633 269.940887 
L 296.019676 260.928 
M 296.419526 280.181384 
L 296.019676 260.928 
M 296.419526 280.181384 
L 280.170633 269.940887 
M 141.300265 281.2431 
L 130.196747 269.852944 
M 147.488312 263.653761 
L 130.196747 269.852944 
M 147.488312 263.653761 
L 141.300265 281.2431 
M 160.20821 79.410603 
L 175.945853 69.233946 
M 176.237574 87.8497 
L 175.945853 69.233946 
M 176.237574 87.8497 
L 160.20821 79.410603 
M 312.15941 269.674115 
L 296.419526 280.181384 
M 296.019676 260.928 
L 296.419526 280.181384 
M 296.019676 260.928 
L 312.15941 269.674115 
M 296.176843 208.819053 
L 296.374147 190.193946 
M 312.254185 200.399279 
L 296.374147 190.193946 
M 312.254185 200.399279 
L 296.176843 208.819053 
M 210.959569 281.10358 
L 204.752247 263.62356 
M 222.307222 269.044645 
L 204.752247 263.62356 
M 222.307222 269.044645 
L 210.959569 281.10358 
M 189.271031 266.621451 
L 175.988697 277.799462 
M 176.226094 260.260501 
L 175.988697 277.799462 
M 176.226094 260.260501 
L 189.271031 266.621451 
M 280.921104 252.349052 
L 280.170633 269.940887 
M 266.089838 260.928 
L 280.170633 269.940887 
M 266.089838 260.928 
L 280.921104 252.349052 
M 146.069372 105.13754 
L 130.712427 113.792416 
M 130.436047 96.745331 
L 130.712427 113.792416 
M 130.436047 96.745331 
L 146.069372 105.13754 
M 221.903942 80.101262 
L 206.815597 87.970521 
M 208.653253 69.218448 
L 206.815597 87.970521 
M 208.653253 69.218448 
L 221.903942 80.101262 
M 280.921104 252.349052 
L 296.019676 260.928 
M 280.170633 269.940887 
L 296.019676 260.928 
M 280.170633 269.940887 
L 280.921104 252.349052 
M 235.398366 209.319431 
L 250.620216 217.971075 
M 236.16 226.368 
L 250.620216 217.971075 
M 236.16 226.368 
L 235.398366 209.319431 
M 146.075966 139.796189 
L 146.191724 157.247992 
M 130.578832 148.608 
L 146.191724 157.247992 
M 130.578832 148.608 
L 146.075966 139.796189 
M 341.443376 217.804016 
L 357.12 209.088 
M 357.12 226.368 
L 357.12 209.088 
M 357.12 226.368 
L 341.443376 217.804016 
M 146.200483 174.527975 
L 146.224758 191.807959 
M 130.578832 183.168 
L 146.224758 191.807959 
M 130.578832 183.168 
L 146.200483 174.527975 
M 147.488312 263.653761 
L 130.567709 252.308863 
M 146.259026 243.572602 
L 130.567709 252.308863 
M 146.259026 243.572602 
L 147.488312 263.653761 
M 146.108827 122.421403 
L 161.167296 131.127556 
M 146.075966 139.796189 
L 161.167296 131.127556 
M 146.075966 139.796189 
L 146.108827 122.421403 
M 342.085037 252.644976 
L 341.882258 235.095657 
M 357.12 243.648 
L 341.882258 235.095657 
M 357.12 243.648 
L 342.085037 252.644976 
M 146.094614 226.354346 
L 130.5748 217.728 
M 146.191906 209.087971 
L 130.5748 217.728 
M 146.191906 209.087971 
L 146.094614 226.354346 
M 130.7997 131.154399 
L 115.2 139.968 
M 115.2 122.688 
L 115.2 139.968 
M 115.2 122.688 
L 130.7997 131.154399 
M 130.658312 165.887995 
L 115.2 174.528 
M 115.2 157.248 
L 115.2 174.528 
M 115.2 157.248 
L 130.658312 165.887995 
M 327.142672 243.648 
L 311.21791 252.289204 
M 311.185709 235.010257 
L 311.21791 252.289204 
M 311.185709 235.010257 
L 327.142672 243.648 
M 130.661716 200.447988 
L 115.2 209.088 
M 115.2 191.808 
L 115.2 209.088 
M 115.2 191.808 
L 130.661716 200.447988 
M 130.879046 235.001508 
L 115.2 243.648 
M 115.2 226.368 
L 115.2 243.648 
M 115.2 226.368 
L 130.879046 235.001508 
M 163.736579 266.719806 
L 176.226094 260.260501 
M 175.988697 277.799462 
L 176.226094 260.260501 
M 175.988697 277.799462 
L 163.736579 266.719806 
M 130.196747 269.852944 
L 115.2 278.208 
M 115.2 260.928 
L 115.2 278.208 
M 115.2 260.928 
L 130.196747 269.852944 
M 146.069372 105.13754 
L 130.436047 96.745331 
M 145.167476 87.902847 
L 130.436047 96.745331 
M 145.167476 87.902847 
L 146.069372 105.13754 
M 130.196747 269.852944 
L 130.567709 252.308863 
M 147.488312 263.653761 
L 130.567709 252.308863 
M 147.488312 263.653761 
L 130.196747 269.852944 
M 129.570174 80.085336 
L 145.167476 87.902847 
M 130.436047 96.745331 
L 145.167476 87.902847 
M 130.436047 96.745331 
L 129.570174 80.085336 
M 342.956699 269.333337 
L 327.447651 261.397056 
M 342.085037 252.644976 
L 327.447651 261.397056 
M 342.085037 252.644976 
L 342.956699 269.333337 
M 130.196747 269.852944 
L 115.2 260.928 
M 130.567709 252.308863 
L 115.2 260.928 
M 130.567709 252.308863 
L 130.196747 269.852944 
M 146.069372 105.13754 
L 146.108827 122.421403 
M 130.712427 113.792416 
L 146.108827 122.421403 
M 130.712427 113.792416 
L 146.069372 105.13754 
M 146.108827 122.421403 
L 161.236878 113.752512 
M 161.167296 131.127556 
L 161.236878 113.752512 
M 161.167296 131.127556 
L 146.108827 122.421403 
M 342.085037 252.644976 
L 357.12 243.648 
M 357.12 260.928 
L 357.12 243.648 
M 357.12 260.928 
L 342.085037 252.644976 
M 327.142672 243.648 
L 326.153335 226.375799 
M 341.882258 235.095657 
L 326.153335 226.375799 
M 341.882258 235.095657 
L 327.142672 243.648 
M 130.7997 131.154399 
L 146.075966 139.796189 
M 130.578832 148.608 
L 146.075966 139.796189 
M 130.578832 148.608 
L 130.7997 131.154399 
M 130.661716 200.447988 
L 130.578832 183.168 
M 146.224758 191.807959 
L 130.578832 183.168 
M 146.224758 191.807959 
L 130.661716 200.447988 
M 130.658312 165.887995 
L 130.578832 148.608 
M 146.191724 157.247992 
L 130.578832 148.608 
M 146.191724 157.247992 
L 130.658312 165.887995 
M 130.658312 165.887995 
L 146.200483 174.527975 
M 130.578832 183.168 
L 146.200483 174.527975 
M 130.578832 183.168 
L 130.658312 165.887995 
M 130.661716 200.447988 
L 146.191906 209.087971 
M 130.5748 217.728 
L 146.191906 209.087971 
M 130.5748 217.728 
L 130.661716 200.447988 
M 130.879046 235.001508 
L 146.259026 243.572602 
M 130.567709 252.308863 
L 146.259026 243.572602 
M 130.567709 252.308863 
L 130.879046 235.001508 
M 341.443376 217.804016 
L 341.882258 235.095657 
M 326.153335 226.375799 
L 341.882258 235.095657 
M 326.153335 226.375799 
L 341.443376 217.804016 
M 341.443376 217.804016 
L 357.12 226.368 
M 341.882258 235.095657 
L 357.12 226.368 
M 341.882258 235.095657 
L 341.443376 217.804016 
M 146.108827 122.421403 
L 146.075966 139.796189 
M 130.7997 131.154399 
L 146.075966 139.796189 
M 130.7997 131.154399 
L 146.108827 122.421403 
M 342.085037 252.644976 
L 327.142672 243.648 
M 341.882258 235.095657 
L 327.142672 243.648 
M 341.882258 235.095657 
L 342.085037 252.644976 
M 146.094614 226.354346 
L 130.879046 235.001508 
M 130.5748 217.728 
L 130.879046 235.001508 
M 130.5748 217.728 
L 146.094614 226.354346 
M 130.7997 131.154399 
L 115.2 122.688 
M 130.712427 113.792416 
L 115.2 122.688 
M 130.712427 113.792416 
L 130.7997 131.154399 
M 130.7997 131.154399 
L 130.578832 148.608 
M 115.2 139.968 
L 130.578832 148.608 
M 115.2 139.968 
L 130.7997 131.154399 
M 130.658312 165.887995 
L 130.578832 183.168 
M 115.2 174.528 
L 130.578832 183.168 
M 115.2 174.528 
L 130.658312 165.887995 
M 130.658312 165.887995 
L 115.2 157.248 
M 130.578832 148.608 
L 115.2 157.248 
M 130.578832 148.608 
L 130.658312 165.887995 
M 327.142672 243.648 
L 311.185709 235.010257 
M 326.153335 226.375799 
L 311.185709 235.010257 
M 326.153335 226.375799 
L 327.142672 243.648 
M 327.142672 243.648 
L 327.447651 261.397056 
M 311.21791 252.289204 
L 327.447651 261.397056 
M 311.21791 252.289204 
L 327.142672 243.648 
M 130.661716 200.447988 
L 115.2 191.808 
M 130.578832 183.168 
L 115.2 191.808 
M 130.578832 183.168 
L 130.661716 200.447988 
M 130.661716 200.447988 
L 130.5748 217.728 
M 115.2 209.088 
L 130.5748 217.728 
M 115.2 209.088 
L 130.661716 200.447988 
M 130.879046 235.001508 
L 115.2 226.368 
M 130.5748 217.728 
L 115.2 226.368 
M 130.5748 217.728 
L 130.879046 235.001508 
M 130.879046 235.001508 
L 130.567709 252.308863 
M 115.2 243.648 
L 130.567709 252.308863 
M 115.2 243.648 
L 130.879046 235.001508 
M 250.301827 267.797654 
L 266.089838 260.928 
M 263.794351 279.512632 
L 266.089838 260.928 
M 263.794351 279.512632 
L 250.301827 267.797654 
M 189.271031 266.621451 
L 194.458619 280.000003 
M 175.988697 277.799462 
L 194.458619 280.000003 
M 175.988697 277.799462 
L 189.271031 266.621451 
M 235.398366 209.319431 
L 249.870492 201.378151 
M 250.620216 217.971075 
L 249.870492 201.378151 
M 250.620216 217.971075 
L 235.398366 209.319431 
M 342.687166 200.989835 
L 341.443376 217.804016 
M 326.836879 208.973226 
L 341.443376 217.804016 
M 326.836879 208.973226 
L 342.687166 200.989835 
M 192.479753 64.993873 
L 191.879659 79.380971 
M 175.945853 69.233946 
L 191.879659 79.380971 
M 175.945853 69.233946 
L 192.479753 64.993873 
M 279.36 186.103405 
L 296.374147 190.193946 
M 280.30931 200.456489 
L 296.374147 190.193946 
M 280.30931 200.456489 
L 279.36 186.103405 
M 130.661716 200.447988 
L 146.224758 191.807959 
M 146.191906 209.087971 
L 146.224758 191.807959 
M 146.191906 209.087971 
L 130.661716 200.447988 
M 130.658312 165.887995 
L 146.191724 157.247992 
M 146.200483 174.527975 
L 146.191724 157.247992 
M 146.200483 174.527975 
L 130.658312 165.887995 
M 161.258301 217.725642 
L 161.327499 235.007994 
M 146.094614 226.354346 
L 161.327499 235.007994 
M 146.094614 226.354346 
L 161.258301 217.725642 
M 146.108827 122.421403 
L 130.7997 131.154399 
M 130.712427 113.792416 
L 130.7997 131.154399 
M 130.712427 113.792416 
L 146.108827 122.421403 
M 342.085037 252.644976 
L 327.447651 261.397056 
M 327.142672 243.648 
L 327.447651 261.397056 
M 327.142672 243.648 
L 342.085037 252.644976 
M 146.094614 226.354346 
L 146.259026 243.572602 
M 130.879046 235.001508 
L 146.259026 243.572602 
M 130.879046 235.001508 
L 146.094614 226.354346 
M 161.258301 217.725642 
L 146.094614 226.354346 
M 146.191906 209.087971 
L 146.094614 226.354346 
M 146.191906 209.087971 
L 161.258301 217.725642 
M 146.094614 226.354346 
L 161.327499 235.007994 
M 146.259026 243.572602 
L 161.327499 235.007994 
M 146.259026 243.572602 
L 146.094614 226.354346 
M 250.620216 217.971075 
L 249.870492 201.378151 
M 265.484438 209.314266 
L 249.870492 201.378151 
M 265.484438 209.314266 
L 250.620216 217.971075 
M 221.194685 131.327151 
L 221.194966 148.607781 
M 206.229839 139.967304 
L 221.194966 148.607781 
M 206.229839 139.967304 
L 221.194685 131.327151 
M 206.323117 105.367601 
L 221.195081 114.048 
M 206.228223 122.683822 
L 221.195081 114.048 
M 206.228223 122.683822 
L 206.323117 105.367601 
M 206.323117 105.367601 
L 206.228223 122.683822 
M 191.253609 114.022934 
L 206.228223 122.683822 
M 191.253609 114.022934 
L 206.323117 105.367601 
M 191.253609 114.022934 
L 191.265243 131.328 
M 176.266677 122.649025 
L 191.265243 131.328 
M 176.266677 122.649025 
L 191.253609 114.022934 
M 206.228223 122.683822 
L 191.265243 131.328 
M 191.253609 114.022934 
L 191.265243 131.328 
M 191.253609 114.022934 
L 206.228223 122.683822 
M 296.176843 208.819053 
L 312.254185 200.399279 
M 311.019432 217.729805 
L 312.254185 200.399279 
M 311.019432 217.729805 
L 296.176843 208.819053 
M 221.194685 131.327151 
L 206.229839 139.967304 
M 206.228223 122.683822 
L 206.229839 139.967304 
M 206.228223 122.683822 
L 221.194685 131.327151 
M 221.195081 165.888 
L 236.16 157.248 
M 236.16 174.528 
L 236.16 157.248 
M 236.16 174.528 
L 221.195081 165.888 
M 175.988697 277.799462 
L 167.04 295.488 
M 157.372479 280.070548 
L 167.04 295.488 
M 157.372479 280.070548 
L 175.988697 277.799462 
M 130.712427 113.792416 
L 115.2 122.688 
M 115.2 105.408 
L 115.2 122.688 
M 115.2 105.408 
L 130.712427 113.792416 
M 130.5748 217.728 
L 115.2 226.368 
M 115.2 209.088 
L 115.2 226.368 
M 115.2 209.088 
L 130.5748 217.728 
M 191.253609 114.022934 
L 176.266677 122.649025 
M 176.278295 105.352256 
L 176.266677 122.649025 
M 176.278295 105.352256 
L 191.253609 114.022934 
M 191.251113 96.712326 
L 176.278295 105.352256 
M 176.237574 87.8497 
L 176.278295 105.352256 
M 176.237574 87.8497 
L 191.251113 96.712326 
M 263.5412 190.281095 
L 253.44 174.528 
M 270.72 174.528 
L 253.44 174.528 
M 270.72 174.528 
L 263.5412 190.281095 
M 208.653253 69.218448 
L 201.6 53.568 
M 218.88 53.568 
L 201.6 53.568 
M 218.88 53.568 
L 208.653253 69.218448 
M 161.258301 217.725642 
L 146.191906 209.087971 
M 161.335327 200.447865 
L 146.191906 209.087971 
M 161.335327 200.447865 
L 161.258301 217.725642 
M 221.177716 183.137924 
L 221.195081 165.888 
M 236.16 174.528 
L 221.195081 165.888 
M 236.16 174.528 
L 221.177716 183.137924 
M 221.194685 131.327151 
L 236.16 139.968 
M 221.194966 148.607781 
L 236.16 139.968 
M 221.194966 148.607781 
L 221.194685 131.327151 
M 175.988697 277.799462 
L 184.32 295.488 
M 167.04 295.488 
L 184.32 295.488 
M 167.04 295.488 
L 175.988697 277.799462 
M 191.265243 252.288 
L 176.300317 243.647988 
M 191.265215 235.007952 
L 176.300317 243.647988 
M 191.265215 235.007952 
L 191.265243 252.288 
M 191.265243 252.288 
L 176.226094 260.260501 
M 176.300317 243.647988 
L 176.226094 260.260501 
M 176.300317 243.647988 
L 191.265243 252.288 
M 312.254185 200.399279 
L 326.836879 208.973226 
M 311.019432 217.729805 
L 326.836879 208.973226 
M 311.019432 217.729805 
L 312.254185 200.399279 
M 221.194685 131.327151 
L 206.228223 122.683822 
M 221.195081 114.048 
L 206.228223 122.683822 
M 221.195081 114.048 
L 221.194685 131.327151 
M 176.283265 157.242138 
L 176.295257 174.527401 
M 161.307061 165.887978 
L 176.295257 174.527401 
M 161.307061 165.887978 
L 176.283265 157.242138 
M 130.436047 96.745331 
L 115.2 105.408 
M 115.2 88.128 
L 115.2 105.408 
M 115.2 88.128 
L 130.436047 96.745331 
M 157.372479 280.070548 
L 167.04 295.488 
M 149.76 295.488 
L 167.04 295.488 
M 149.76 295.488 
L 157.372479 280.070548 
M 206.230152 243.647983 
L 191.265215 235.007952 
M 206.230132 226.367948 
L 191.265215 235.007952 
M 206.230132 226.367948 
L 206.230152 243.647983 
M 206.226786 191.802152 
L 206.227268 174.522987 
M 221.177716 183.137924 
L 206.227268 174.522987 
M 221.177716 183.137924 
L 206.226786 191.802152 
M 206.188354 209.08075 
L 191.265092 217.727738 
M 191.264506 200.446724 
L 191.265092 217.727738 
M 191.264506 200.446724 
L 206.188354 209.08075 
M 161.258301 217.725642 
L 176.300152 209.087702 
M 176.30031 226.367976 
L 176.300152 209.087702 
M 176.30031 226.367976 
L 161.258301 217.725642 
M 206.230132 226.367948 
L 191.265215 235.007952 
M 191.265092 217.727738 
L 191.265215 235.007952 
M 191.265092 217.727738 
L 206.230132 226.367948 
M 265.484438 209.314266 
L 281.076401 217.758223 
M 266.193897 226.528115 
L 281.076401 217.758223 
M 266.193897 226.528115 
L 265.484438 209.314266 
M 296.176843 208.819053 
L 311.019432 217.729805 
M 296.027584 226.376575 
L 311.019432 217.729805 
M 296.027584 226.376575 
L 296.176843 208.819053 
M 146.191724 157.247992 
L 161.307061 165.887978 
M 146.200483 174.527975 
L 161.307061 165.887978 
M 146.200483 174.527975 
L 146.191724 157.247992 
M 161.300887 148.607995 
L 161.307061 165.887978 
M 146.191724 157.247992 
L 161.307061 165.887978 
M 146.191724 157.247992 
L 161.300887 148.607995 
M 191.253609 114.022934 
L 176.278295 105.352256 
M 191.251113 96.712326 
L 176.278295 105.352256 
M 191.251113 96.712326 
L 191.253609 114.022934 
M 221.195081 114.048 
L 236.16 105.408 
M 236.16 122.688 
L 236.16 105.408 
M 236.16 122.688 
L 221.195081 114.048 
M 130.567709 252.308863 
L 115.2 260.928 
M 115.2 243.648 
L 115.2 260.928 
M 115.2 243.648 
L 130.567709 252.308863 
M 142.95994 69.229756 
L 132.48 53.568 
M 149.76 53.568 
L 132.48 53.568 
M 149.76 53.568 
L 142.95994 69.229756 
M 244.400482 282.55168 
L 253.44 295.488 
M 236.16 295.488 
L 253.44 295.488 
M 236.16 295.488 
L 244.400482 282.55168 
M 296.419526 280.181384 
L 305.28 295.488 
M 288 295.488 
L 305.28 295.488 
M 288 295.488 
L 296.419526 280.181384 
M 220.948529 200.411936 
L 206.226786 191.802152 
M 221.177716 183.137924 
L 206.226786 191.802152 
M 221.177716 183.137924 
L 220.948529 200.411936 
M 176.300027 191.807486 
L 191.264198 183.16619 
M 191.264506 200.446724 
L 191.264198 183.16619 
M 191.264506 200.446724 
L 176.300027 191.807486 
M 161.335327 200.447865 
L 176.300027 191.807486 
M 176.300152 209.087702 
L 176.300027 191.807486 
M 176.300152 209.087702 
L 161.335327 200.447865 
M 206.188354 209.08075 
L 206.230132 226.367948 
M 191.265092 217.727738 
L 206.230132 226.367948 
M 191.265092 217.727738 
L 206.188354 209.08075 
M 176.300317 243.647988 
L 176.30031 226.367976 
M 191.265215 235.007952 
L 176.30031 226.367976 
M 191.265215 235.007952 
L 176.300317 243.647988 
M 146.224758 191.807959 
L 161.335343 183.167892 
M 161.335327 200.447865 
L 161.335343 183.167892 
M 161.335327 200.447865 
L 146.224758 191.807959 
M 146.200483 174.527975 
L 161.335343 183.167892 
M 146.224758 191.807959 
L 161.335343 183.167892 
M 146.224758 191.807959 
L 146.200483 174.527975 
M 191.265243 252.288 
L 206.230152 243.647983 
M 204.752247 263.62356 
L 206.230152 243.647983 
M 204.752247 263.62356 
L 191.265243 252.288 
M 266.14062 243.615235 
L 251.347672 251.949486 
M 251.206857 235.149921 
L 251.347672 251.949486 
M 251.206857 235.149921 
L 266.14062 243.615235 
M 296.176843 208.819053 
L 296.027584 226.376575 
M 281.076401 217.758223 
L 296.027584 226.376575 
M 281.076401 217.758223 
L 296.176843 208.819053 
M 311.185709 235.010257 
L 296.025295 243.652967 
M 296.027584 226.376575 
L 296.025295 243.652967 
M 296.027584 226.376575 
L 311.185709 235.010257 
M 191.879659 79.380971 
L 191.251113 96.712326 
M 176.237574 87.8497 
L 191.251113 96.712326 
M 176.237574 87.8497 
L 191.879659 79.380971 
M 130.578832 183.168 
L 115.2 191.808 
M 115.2 174.528 
L 115.2 191.808 
M 115.2 174.528 
L 130.578832 183.168 
M 263.794351 279.512632 
L 253.44 295.488 
M 244.400482 282.55168 
L 253.44 295.488 
M 244.400482 282.55168 
L 263.794351 279.512632 
M 329.429836 279.916319 
L 339.84 295.488 
M 322.56 295.488 
L 339.84 295.488 
M 322.56 295.488 
L 329.429836 279.916319 
M 206.227268 174.522987 
L 221.195081 165.888 
M 221.177716 183.137924 
L 221.195081 165.888 
M 221.177716 183.137924 
L 206.227268 174.522987 
M 191.264198 183.16619 
L 206.227268 174.522987 
M 206.226786 191.802152 
L 206.227268 174.522987 
M 206.226786 191.802152 
L 191.264198 183.16619 
M 176.30031 226.367976 
L 176.300152 209.087702 
M 191.265092 217.727738 
L 176.300152 209.087702 
M 191.265092 217.727738 
L 176.30031 226.367976 
M 191.265215 235.007952 
L 176.30031 226.367976 
M 191.265092 217.727738 
L 176.30031 226.367976 
M 191.265092 217.727738 
L 191.265215 235.007952 
M 221.195074 235.007989 
L 206.230152 243.647983 
M 206.230132 226.367948 
L 206.230152 243.647983 
M 206.230132 226.367948 
L 221.195074 235.007989 
M 221.195078 252.287995 
L 206.230152 243.647983 
M 221.195074 235.007989 
L 206.230152 243.647983 
M 221.195074 235.007989 
L 221.195078 252.287995 
M 204.752247 263.62356 
L 206.230152 243.647983 
M 221.195078 252.287995 
L 206.230152 243.647983 
M 221.195078 252.287995 
L 204.752247 263.62356 
M 236.16 226.368 
L 236.159998 243.647997 
M 221.195074 235.007989 
L 236.159998 243.647997 
M 221.195074 235.007989 
L 236.16 226.368 
M 251.347672 251.949486 
L 236.159998 243.647997 
M 251.206857 235.149921 
L 236.159998 243.647997 
M 251.206857 235.149921 
L 251.347672 251.949486 
M 280.30931 200.456489 
L 281.076401 217.758223 
M 265.484438 209.314266 
L 281.076401 217.758223 
M 265.484438 209.314266 
L 280.30931 200.456489 
M 206.815597 87.970521 
L 191.251113 96.712326 
M 191.879659 79.380971 
L 191.251113 96.712326 
M 191.879659 79.380971 
L 206.815597 87.970521 
M 175.945853 69.233946 
L 167.04 53.568 
M 184.32 53.568 
L 167.04 53.568 
M 184.32 53.568 
L 175.945853 69.233946 
M 194.458619 280.000003 
L 201.6 295.488 
M 184.32 295.488 
L 201.6 295.488 
M 184.32 295.488 
L 194.458619 280.000003 
M 263.794351 279.512632 
L 270.72 295.488 
M 253.44 295.488 
L 270.72 295.488 
M 253.44 295.488 
L 263.794351 279.512632 
M 191.264587 165.886863 
L 206.227268 174.522987 
M 191.264198 183.16619 
L 206.227268 174.522987 
M 191.264198 183.16619 
L 191.264587 165.886863 
M 176.300152 209.087702 
L 176.300027 191.807486 
M 191.264506 200.446724 
L 176.300027 191.807486 
M 191.264506 200.446724 
L 176.300152 209.087702 
M 161.258301 217.725642 
L 176.30031 226.367976 
M 161.327499 235.007994 
L 176.30031 226.367976 
M 161.327499 235.007994 
L 161.258301 217.725642 
M 296.176843 208.819053 
L 281.076401 217.758223 
M 280.30931 200.456489 
L 281.076401 217.758223 
M 280.30931 200.456489 
L 296.176843 208.819053 
M 176.283265 157.242138 
L 161.307061 165.887978 
M 161.300887 148.607995 
L 161.307061 165.887978 
M 161.300887 148.607995 
L 176.283265 157.242138 
M 329.354977 190.196479 
L 322.56 174.528 
M 339.84 174.528 
L 322.56 174.528 
M 339.84 174.528 
L 329.354977 190.196479 
M 130.578832 148.608 
L 115.2 157.248 
M 115.2 139.968 
L 115.2 157.248 
M 115.2 139.968 
L 130.578832 148.608 
M 220.921284 217.72077 
L 206.188354 209.08075 
M 220.948529 200.411936 
L 206.188354 209.08075 
M 220.948529 200.411936 
L 220.921284 217.72077 
M 176.295257 174.527401 
L 191.264587 165.886863 
M 191.264198 183.16619 
L 191.264587 165.886863 
M 191.264198 183.16619 
L 176.295257 174.527401 
M 161.258301 217.725642 
L 161.335327 200.447865 
M 176.300152 209.087702 
L 161.335327 200.447865 
M 176.300152 209.087702 
L 161.258301 217.725642 
M 161.327499 235.007994 
L 176.30031 226.367976 
M 176.300317 243.647988 
L 176.30031 226.367976 
M 176.300317 243.647988 
L 161.327499 235.007994 
M 146.191906 209.087971 
L 146.224758 191.807959 
M 161.335327 200.447865 
L 146.224758 191.807959 
M 161.335327 200.447865 
L 146.191906 209.087971 
M 161.307061 165.887978 
L 161.335343 183.167892 
M 146.200483 174.527975 
L 161.335343 183.167892 
M 146.200483 174.527975 
L 161.307061 165.887978 
M 220.921284 217.72077 
L 221.195074 235.007989 
M 206.230132 226.367948 
L 221.195074 235.007989 
M 206.230132 226.367948 
L 220.921284 217.72077 
M 220.921284 217.72077 
L 206.230132 226.367948 
M 206.188354 209.08075 
L 206.230132 226.367948 
M 206.188354 209.08075 
L 220.921284 217.72077 
M 222.307222 269.044645 
L 204.752247 263.62356 
M 221.195078 252.287995 
L 204.752247 263.62356 
M 221.195078 252.287995 
L 222.307222 269.044645 
M 281.080564 235.029225 
L 266.14062 243.615235 
M 266.193897 226.528115 
L 266.14062 243.615235 
M 266.193897 226.528115 
L 281.080564 235.029225 
M 296.027584 226.376575 
L 281.080564 235.029225 
M 281.076401 217.758223 
L 281.080564 235.029225 
M 281.076401 217.758223 
L 296.027584 226.376575 
M 326.153335 226.375799 
L 311.185709 235.010257 
M 311.019432 217.729805 
L 311.185709 235.010257 
M 311.019432 217.729805 
L 326.153335 226.375799 
M 161.167296 131.127556 
L 161.300887 148.607995 
M 146.075966 139.796189 
L 161.300887 148.607995 
M 146.075966 139.796189 
L 161.167296 131.127556 
M 176.278295 105.352256 
L 176.266677 122.649025 
M 161.236878 113.752512 
L 176.266677 122.649025 
M 161.236878 113.752512 
L 176.278295 105.352256 
M 296.374147 190.193946 
L 288 174.528 
M 305.28 174.528 
L 288 174.528 
M 305.28 174.528 
L 296.374147 190.193946 
M 206.188354 209.08075 
L 206.226786 191.802152 
M 220.948529 200.411936 
L 206.226786 191.802152 
M 220.948529 200.411936 
L 206.188354 209.08075 
M 191.264506 200.446724 
L 191.264198 183.16619 
M 206.226786 191.802152 
L 191.264198 183.16619 
M 206.226786 191.802152 
L 191.264506 200.446724 
M 176.295257 174.527401 
L 176.300027 191.807486 
M 161.335343 183.167892 
L 176.300027 191.807486 
M 161.335343 183.167892 
L 176.295257 174.527401 
M 191.265243 252.288 
L 191.265215 235.007952 
M 206.230152 243.647983 
L 191.265215 235.007952 
M 206.230152 243.647983 
L 191.265243 252.288 
M 327.447651 261.397056 
L 312.15941 269.674115 
M 311.21791 252.289204 
L 312.15941 269.674115 
M 311.21791 252.289204 
L 327.447651 261.397056 
M 326.836879 208.973226 
L 326.153335 226.375799 
M 311.019432 217.729805 
L 326.153335 226.375799 
M 311.019432 217.729805 
L 326.836879 208.973226 
M 146.075966 139.796189 
L 161.300887 148.607995 
M 146.191724 157.247992 
L 161.300887 148.607995 
M 146.191724 157.247992 
L 146.075966 139.796189 
M 176.266553 139.934592 
L 161.300887 148.607995 
M 161.167296 131.127556 
L 161.300887 148.607995 
M 161.167296 131.127556 
L 176.266553 139.934592 
M 161.236878 113.752512 
L 176.266677 122.649025 
M 161.167296 131.127556 
L 176.266677 122.649025 
M 161.167296 131.127556 
L 161.236878 113.752512 
M 191.265243 131.328 
L 176.266553 139.934592 
M 176.266677 122.649025 
L 176.266553 139.934592 
M 176.266677 122.649025 
L 191.265243 131.328 
M 176.237574 87.8497 
L 176.278295 105.352256 
M 161.335405 96.768 
L 176.278295 105.352256 
M 161.335405 96.768 
L 176.237574 87.8497 
M 206.229839 139.967304 
L 191.265243 131.328 
M 206.228223 122.683822 
L 191.265243 131.328 
M 206.228223 122.683822 
L 206.229839 139.967304 
M 130.436047 96.745331 
L 130.712427 113.792416 
M 115.2 105.408 
L 130.712427 113.792416 
M 115.2 105.408 
L 130.436047 96.745331 
M 175.988697 277.799462 
L 194.458619 280.000003 
M 184.32 295.488 
L 194.458619 280.000003 
M 184.32 295.488 
L 175.988697 277.799462 
M 206.188354 209.08075 
L 191.264506 200.446724 
M 206.226786 191.802152 
L 191.264506 200.446724 
M 206.226786 191.802152 
L 206.188354 209.08075 
M 176.295257 174.527401 
L 191.264198 183.16619 
M 176.300027 191.807486 
L 191.264198 183.16619 
M 176.300027 191.807486 
L 176.295257 174.527401 
M 161.335343 183.167892 
L 176.300027 191.807486 
M 161.335327 200.447865 
L 176.300027 191.807486 
M 161.335327 200.447865 
L 161.335343 183.167892 
M 176.226094 260.260501 
L 161.607312 251.814757 
M 176.300317 243.647988 
L 161.607312 251.814757 
M 176.300317 243.647988 
L 176.226094 260.260501 
M 176.295257 174.527401 
L 161.335343 183.167892 
M 161.307061 165.887978 
L 161.335343 183.167892 
M 161.307061 165.887978 
L 176.295257 174.527401 
M 220.921284 217.72077 
L 236.16 226.368 
M 221.195074 235.007989 
L 236.16 226.368 
M 221.195074 235.007989 
L 220.921284 217.72077 
M 251.206857 235.149921 
L 236.159998 243.647997 
M 236.16 226.368 
L 236.159998 243.647997 
M 236.16 226.368 
L 251.206857 235.149921 
M 236.36881 259.590803 
L 236.159998 243.647997 
M 251.347672 251.949486 
L 236.159998 243.647997 
M 251.347672 251.949486 
L 236.36881 259.590803 
M 281.076401 217.758223 
L 281.080564 235.029225 
M 266.193897 226.528115 
L 281.080564 235.029225 
M 266.193897 226.528115 
L 281.076401 217.758223 
M 176.283265 157.242138 
L 161.300887 148.607995 
M 176.266553 139.934592 
L 161.300887 148.607995 
M 176.266553 139.934592 
L 176.283265 157.242138 
M 236.159998 243.647997 
L 221.195078 252.287995 
M 221.195074 235.007989 
L 221.195078 252.287995 
M 221.195074 235.007989 
L 236.159998 243.647997 
M 236.36881 259.590803 
L 221.195078 252.287995 
M 236.159998 243.647997 
L 221.195078 252.287995 
M 236.159998 243.647997 
L 236.36881 259.590803 
M 266.089838 260.928 
L 251.347672 251.949486 
M 266.14062 243.615235 
L 251.347672 251.949486 
M 266.14062 243.615235 
L 266.089838 260.928 
M 280.921104 252.349052 
L 266.14062 243.615235 
M 281.080564 235.029225 
L 266.14062 243.615235 
M 281.080564 235.029225 
L 280.921104 252.349052 
M 311.019432 217.729805 
L 311.185709 235.010257 
M 296.027584 226.376575 
L 311.185709 235.010257 
M 296.027584 226.376575 
L 311.019432 217.729805 
M 176.266677 122.649025 
L 176.266553 139.934592 
M 161.167296 131.127556 
L 176.266553 139.934592 
M 161.167296 131.127556 
L 176.266677 122.649025 
M 221.194966 148.607781 
L 221.195081 165.888 
M 206.229516 157.246859 
L 221.195081 165.888 
M 206.229516 157.246859 
L 221.194966 148.607781 
M 191.265092 217.727738 
L 176.300152 209.087702 
M 191.264506 200.446724 
L 176.300152 209.087702 
M 191.264506 200.446724 
L 191.265092 217.727738 
M 161.607312 251.814757 
L 161.327499 235.007994 
M 176.300317 243.647988 
L 161.327499 235.007994 
M 176.300317 243.647988 
L 161.607312 251.814757 
M 236.36881 259.590803 
L 222.307222 269.044645 
M 221.195078 252.287995 
L 222.307222 269.044645 
M 221.195078 252.287995 
L 236.36881 259.590803 
M 280.921104 252.349052 
L 281.080564 235.029225 
M 296.025295 243.652967 
L 281.080564 235.029225 
M 296.025295 243.652967 
L 280.921104 252.349052 
M 147.488312 263.653761 
L 146.259026 243.572602 
M 161.607312 251.814757 
L 146.259026 243.572602 
M 161.607312 251.814757 
L 147.488312 263.653761 
M 160.20821 79.410603 
L 176.237574 87.8497 
M 161.335405 96.768 
L 176.237574 87.8497 
M 161.335405 96.768 
L 160.20821 79.410603 
M 341.882258 235.095657 
L 357.12 226.368 
M 357.12 243.648 
L 357.12 226.368 
M 357.12 243.648 
L 341.882258 235.095657 
M 206.229516 157.246859 
L 221.195081 165.888 
M 206.227268 174.522987 
L 221.195081 165.888 
M 206.227268 174.522987 
L 206.229516 157.246859 
M 176.283265 157.242138 
L 191.264587 165.886863 
M 176.295257 174.527401 
L 191.264587 165.886863 
M 176.295257 174.527401 
L 176.283265 157.242138 
M 146.259026 243.572602 
L 161.327499 235.007994 
M 161.607312 251.814757 
L 161.327499 235.007994 
M 161.607312 251.814757 
L 146.259026 243.572602 
M 266.193897 226.528115 
L 266.14062 243.615235 
M 251.206857 235.149921 
L 266.14062 243.615235 
M 251.206857 235.149921 
L 266.193897 226.528115 
M 296.025295 243.652967 
L 281.080564 235.029225 
M 296.027584 226.376575 
L 281.080564 235.029225 
M 296.027584 226.376575 
L 296.025295 243.652967 
M 311.21791 252.289204 
L 296.025295 243.652967 
M 311.185709 235.010257 
L 296.025295 243.652967 
M 311.185709 235.010257 
L 311.21791 252.289204 
M 296.019676 260.928 
L 296.025295 243.652967 
M 311.21791 252.289204 
L 296.025295 243.652967 
M 311.21791 252.289204 
L 296.019676 260.928 
M 161.335405 96.768 
L 176.278295 105.352256 
M 161.236878 113.752512 
L 176.278295 105.352256 
M 161.236878 113.752512 
L 161.335405 96.768 
M 191.265243 148.608 
L 191.265243 131.328 
M 206.229839 139.967304 
L 191.265243 131.328 
M 206.229839 139.967304 
L 191.265243 148.608 
M 145.167476 87.902847 
L 160.20821 79.410603 
M 161.335405 96.768 
L 160.20821 79.410603 
M 161.335405 96.768 
L 145.167476 87.902847 
M 312.15941 269.674115 
L 296.019676 260.928 
M 311.21791 252.289204 
L 296.019676 260.928 
M 311.21791 252.289204 
L 312.15941 269.674115 
M 221.194966 148.607781 
L 236.16 139.968 
M 236.16 157.248 
L 236.16 139.968 
M 236.16 157.248 
L 221.194966 148.607781 
M 280.921104 252.349052 
L 296.025295 243.652967 
M 296.019676 260.928 
L 296.025295 243.652967 
M 296.019676 260.928 
L 280.921104 252.349052 
M 221.194966 148.607781 
L 206.229516 157.246859 
M 206.229839 139.967304 
L 206.229516 157.246859 
M 206.229839 139.967304 
L 221.194966 148.607781 
M 221.389685 96.87625 
L 236.16 88.128 
M 236.16 105.408 
L 236.16 88.128 
M 236.16 105.408 
L 221.389685 96.87625 
M 191.265243 148.608 
L 176.266553 139.934592 
M 191.265243 131.328 
L 176.266553 139.934592 
M 191.265243 131.328 
L 191.265243 148.608 
M 221.194685 131.327151 
L 221.195081 114.048 
M 236.16 122.688 
L 221.195081 114.048 
M 236.16 122.688 
L 221.194685 131.327151 
M 221.389685 96.87625 
L 221.195081 114.048 
M 206.323117 105.367601 
L 221.195081 114.048 
M 206.323117 105.367601 
L 221.389685 96.87625 
M 341.443376 217.804016 
L 326.153335 226.375799 
M 326.836879 208.973226 
L 326.153335 226.375799 
M 326.836879 208.973226 
L 341.443376 217.804016 
M 280.921104 252.349052 
L 266.089838 260.928 
M 266.14062 243.615235 
L 266.089838 260.928 
M 266.14062 243.615235 
L 280.921104 252.349052 
M 206.229516 157.246859 
L 206.227268 174.522987 
M 191.264587 165.886863 
L 206.227268 174.522987 
M 191.264587 165.886863 
L 206.229516 157.246859 
M 206.323117 105.367601 
L 191.253609 114.022934 
M 191.251113 96.712326 
L 191.253609 114.022934 
M 191.251113 96.712326 
L 206.323117 105.367601 
M 206.229516 157.246859 
L 191.265243 148.608 
M 206.229839 139.967304 
L 191.265243 148.608 
M 206.229839 139.967304 
L 206.229516 157.246859 
M 191.265243 148.608 
L 176.283265 157.242138 
M 176.266553 139.934592 
L 176.283265 157.242138 
M 176.266553 139.934592 
L 191.265243 148.608 
M 206.323117 105.367601 
L 191.251113 96.712326 
M 206.815597 87.970521 
L 191.251113 96.712326 
M 206.815597 87.970521 
L 206.323117 105.367601 
M 191.265243 148.608 
L 191.264587 165.886863 
M 176.283265 157.242138 
L 191.264587 165.886863 
M 176.283265 157.242138 
L 191.265243 148.608 
M 221.389685 96.87625 
L 236.16 105.408 
M 221.195081 114.048 
L 236.16 105.408 
M 221.195081 114.048 
L 221.389685 96.87625 
M 221.389685 96.87625 
L 206.323117 105.367601 
M 206.815597 87.970521 
L 206.323117 105.367601 
M 206.815597 87.970521 
L 221.389685 96.87625 
M 206.229516 157.246859 
L 191.264587 165.886863 
M 191.265243 148.608 
L 191.264587 165.886863 
M 191.265243 148.608 
L 206.229516 157.246859 
M 221.194966 148.607781 
L 236.16 157.248 
M 221.195081 165.888 
L 236.16 157.248 
M 221.195081 165.888 
L 221.194966 148.607781 
M 221.194685 131.327151 
L 236.16 122.688 
M 236.16 139.968 
L 236.16 122.688 
M 236.16 139.968 
L 221.194685 131.327151 
M 235.292282 192.622088 
L 220.948529 200.411936 
M 221.177716 183.137924 
L 220.948529 200.411936 
M 221.177716 183.137924 
L 235.292282 192.622088 
M 342.687166 200.989835 
L 357.12 209.088 
M 341.443376 217.804016 
L 357.12 209.088 
M 341.443376 217.804016 
L 342.687166 200.989835 
M 146.069372 105.13754 
L 161.236878 113.752512 
M 146.108827 122.421403 
L 161.236878 113.752512 
M 146.108827 122.421403 
L 146.069372 105.13754 
M 235.292282 192.622088 
L 221.177716 183.137924 
M 236.16 174.528 
L 221.177716 183.137924 
M 236.16 174.528 
L 235.292282 192.622088 
M 146.069372 105.13754 
L 161.335405 96.768 
M 161.236878 113.752512 
L 161.335405 96.768 
M 161.236878 113.752512 
L 146.069372 105.13754 
M 163.736579 266.719806 
L 175.988697 277.799462 
M 157.372479 280.070548 
L 175.988697 277.799462 
M 157.372479 280.070548 
L 163.736579 266.719806 
M 342.687166 200.989835 
L 357.12 191.808 
M 357.12 209.088 
L 357.12 191.808 
M 357.12 209.088 
L 342.687166 200.989835 
M 221.903942 80.101262 
L 236.16 70.848 
M 236.16 88.128 
L 236.16 70.848 
M 236.16 88.128 
L 221.903942 80.101262 
M 210.959569 281.10358 
L 218.88 295.488 
M 201.6 295.488 
L 218.88 295.488 
M 201.6 295.488 
L 210.959569 281.10358 
M 129.570174 80.085336 
L 115.2 88.128 
M 115.2 70.848 
L 115.2 88.128 
M 115.2 70.848 
L 129.570174 80.085336 
M 221.903942 80.101262 
L 221.389685 96.87625 
M 206.815597 87.970521 
L 221.389685 96.87625 
M 206.815597 87.970521 
L 221.903942 80.101262 
M 250.620216 217.971075 
L 265.484438 209.314266 
M 266.193897 226.528115 
L 265.484438 209.314266 
M 266.193897 226.528115 
L 250.620216 217.971075 
M 250.620216 217.971075 
L 251.206857 235.149921 
M 236.16 226.368 
L 251.206857 235.149921 
M 236.16 226.368 
L 250.620216 217.971075 
M 227.52 283.196306 
L 218.88 295.488 
M 210.959569 281.10358 
L 218.88 295.488 
M 210.959569 281.10358 
L 227.52 283.196306 
M 235.398366 209.319431 
L 220.948529 200.411936 
M 235.292282 192.622088 
L 220.948529 200.411936 
M 235.292282 192.622088 
L 235.398366 209.319431 
M 146.069372 105.13754 
L 145.167476 87.902847 
M 161.335405 96.768 
L 145.167476 87.902847 
M 161.335405 96.768 
L 146.069372 105.13754 
M 235.398366 209.319431 
L 235.292282 192.622088 
M 249.870492 201.378151 
L 235.292282 192.622088 
M 249.870492 201.378151 
L 235.398366 209.319431 
M 235.398366 209.319431 
L 236.16 226.368 
M 220.921284 217.72077 
L 236.16 226.368 
M 220.921284 217.72077 
L 235.398366 209.319431 
M 141.300265 281.2431 
L 149.76 295.488 
M 132.48 295.488 
L 149.76 295.488 
M 132.48 295.488 
L 141.300265 281.2431 
M 159.182801 65.002061 
L 175.945853 69.233946 
M 160.20821 79.410603 
L 175.945853 69.233946 
M 160.20821 79.410603 
L 159.182801 65.002061 
M 313.169754 284.149564 
L 296.419526 280.181384 
M 312.15941 269.674115 
L 296.419526 280.181384 
M 312.15941 269.674115 
L 313.169754 284.149564 
M 313.164662 185.969141 
L 312.254185 200.399279 
M 296.374147 190.193946 
L 312.254185 200.399279 
M 296.374147 190.193946 
L 313.164662 185.969141 
M 279.527967 284.550983 
L 280.170633 269.940887 
M 296.419526 280.181384 
L 280.170633 269.940887 
M 296.419526 280.181384 
L 279.527967 284.550983 
M 227.52 283.196306 
L 210.959569 281.10358 
M 222.307222 269.044645 
L 210.959569 281.10358 
M 222.307222 269.044645 
L 227.52 283.196306 
M 210.959569 281.10358 
L 201.6 295.488 
M 194.458619 280.000003 
L 201.6 295.488 
M 194.458619 280.000003 
L 210.959569 281.10358 
M 221.903942 80.101262 
L 236.16 88.128 
M 221.389685 96.87625 
L 236.16 88.128 
M 221.389685 96.87625 
L 221.903942 80.101262 
M 129.570174 80.085336 
L 130.436047 96.745331 
M 115.2 88.128 
L 130.436047 96.745331 
M 115.2 88.128 
L 129.570174 80.085336 
M 250.620216 217.971075 
L 266.193897 226.528115 
M 251.206857 235.149921 
L 266.193897 226.528115 
M 251.206857 235.149921 
L 250.620216 217.971075 
M 250.301827 267.797654 
L 236.36881 259.590803 
M 251.347672 251.949486 
L 236.36881 259.590803 
M 251.347672 251.949486 
L 250.301827 267.797654 
M 342.956699 269.333337 
L 342.085037 252.644976 
M 357.12 260.928 
L 342.085037 252.644976 
M 357.12 260.928 
L 342.956699 269.333337 
M 227.52 283.196306 
L 244.400482 282.55168 
M 236.16 295.488 
L 244.400482 282.55168 
M 236.16 295.488 
L 227.52 283.196306 
M 342.956699 269.333337 
L 357.12 260.928 
M 357.12 278.208 
L 357.12 260.928 
M 357.12 278.208 
L 342.956699 269.333337 
M 235.515367 272.819961 
L 236.36881 259.590803 
M 250.301827 267.797654 
L 236.36881 259.590803 
M 250.301827 267.797654 
L 235.515367 272.819961 
M 159.182801 65.002061 
L 142.95994 69.229756 
M 149.76 53.568 
L 142.95994 69.229756 
M 149.76 53.568 
L 159.182801 65.002061 
M 313.169754 284.149564 
L 305.28 295.488 
M 296.419526 280.181384 
L 305.28 295.488 
M 296.419526 280.181384 
L 313.169754 284.149564 
M 313.164662 185.969141 
L 322.56 174.528 
M 329.354977 190.196479 
L 322.56 174.528 
M 329.354977 190.196479 
L 313.164662 185.969141 
M 159.182801 65.002061 
L 167.04 53.568 
M 175.945853 69.233946 
L 167.04 53.568 
M 175.945853 69.233946 
L 159.182801 65.002061 
M 313.169754 284.149564 
L 329.429836 279.916319 
M 322.56 295.488 
L 329.429836 279.916319 
M 322.56 295.488 
L 313.169754 284.149564 
M 313.164662 185.969141 
L 296.374147 190.193946 
M 305.28 174.528 
L 296.374147 190.193946 
M 305.28 174.528 
L 313.164662 185.969141 
M 163.736579 266.719806 
L 147.488312 263.653761 
M 161.607312 251.814757 
L 147.488312 263.653761 
M 161.607312 251.814757 
L 163.736579 266.719806 
M 192.479753 64.993873 
L 201.6 53.568 
M 208.653253 69.218448 
L 201.6 53.568 
M 208.653253 69.218448 
L 192.479753 64.993873 
M 192.479753 64.993873 
L 175.945853 69.233946 
M 184.32 53.568 
L 175.945853 69.233946 
M 184.32 53.568 
L 192.479753 64.993873 
M 279.36 186.103405 
L 263.5412 190.281095 
M 270.72 174.528 
L 263.5412 190.281095 
M 270.72 174.528 
L 279.36 186.103405 
M 279.36 186.103405 
L 288 174.528 
M 296.374147 190.193946 
L 288 174.528 
M 296.374147 190.193946 
L 279.36 186.103405 
M 189.271031 266.621451 
L 191.265243 252.288 
M 204.752247 263.62356 
L 191.265243 252.288 
M 204.752247 263.62356 
L 189.271031 266.621451 
M 235.398366 209.319431 
L 220.921284 217.72077 
M 220.948529 200.411936 
L 220.921284 217.72077 
M 220.948529 200.411936 
L 235.398366 209.319431 
M 279.527967 284.550983 
L 296.419526 280.181384 
M 288 295.488 
L 296.419526 280.181384 
M 288 295.488 
L 279.527967 284.550983 
M 279.527967 284.550983 
L 270.72 295.488 
M 263.794351 279.512632 
L 270.72 295.488 
M 263.794351 279.512632 
L 279.527967 284.550983 
M 248.497052 187.052883 
L 236.16 174.528 
M 253.44 174.528 
L 236.16 174.528 
M 253.44 174.528 
L 248.497052 187.052883 
M 127.849838 66.217838 
L 115.2 70.848 
M 115.2 53.568 
L 115.2 70.848 
M 115.2 53.568 
L 127.849838 66.217838 
M 127.849838 66.217838 
L 115.2 53.568 
M 132.48 53.568 
L 115.2 53.568 
M 132.48 53.568 
L 127.849838 66.217838 
M 223.510162 66.217838 
L 218.88 53.568 
M 236.16 53.568 
L 218.88 53.568 
M 236.16 53.568 
L 223.510162 66.217838 
M 344.470162 187.177838 
L 339.84 174.528 
M 357.12 174.528 
L 339.84 174.528 
M 357.12 174.528 
L 344.470162 187.177838 
M 344.470162 187.177838 
L 357.12 174.528 
M 357.12 191.808 
L 357.12 174.528 
M 357.12 191.808 
L 344.470162 187.177838 
M 223.510162 66.217838 
L 236.16 53.568 
M 236.16 70.848 
L 236.16 53.568 
M 236.16 70.848 
L 223.510162 66.217838 
M 127.841569 282.846431 
L 115.2 295.488 
M 115.2 278.208 
L 115.2 295.488 
M 115.2 278.208 
L 127.841569 282.846431 
M 127.841569 282.846431 
L 132.48 295.488 
M 115.2 295.488 
L 132.48 295.488 
M 115.2 295.488 
L 127.841569 282.846431 
M 141.300265 281.2431 
L 157.372479 280.070548 
M 149.76 295.488 
L 157.372479 280.070548 
M 149.76 295.488 
L 141.300265 281.2431 
M 344.537671 282.905671 
L 357.12 295.488 
M 339.84 295.488 
L 357.12 295.488 
M 339.84 295.488 
L 344.537671 282.905671 
M 344.537671 282.905671 
L 357.12 278.208 
M 357.12 295.488 
L 357.12 278.208 
M 357.12 295.488 
L 344.537671 282.905671 
M 248.497052 187.052883 
L 235.292282 192.622088 
M 236.16 174.528 
L 235.292282 192.622088 
M 236.16 174.528 
L 248.497052 187.052883 
M 250.301827 267.797654 
L 263.794351 279.512632 
M 244.400482 282.55168 
L 263.794351 279.512632 
M 244.400482 282.55168 
L 250.301827 267.797654 
M 235.515367 272.819961 
L 250.301827 267.797654 
M 244.400482 282.55168 
L 250.301827 267.797654 
M 244.400482 282.55168 
L 235.515367 272.819961 
M 250.301827 267.797654 
L 251.347672 251.949486 
M 266.089838 260.928 
L 251.347672 251.949486 
M 266.089838 260.928 
L 250.301827 267.797654 
M 248.497052 187.052883 
L 263.5412 190.281095 
M 249.870492 201.378151 
L 263.5412 190.281095 
M 249.870492 201.378151 
L 248.497052 187.052883 
M 227.52 283.196306 
L 236.16 295.488 
M 218.88 295.488 
L 236.16 295.488 
M 218.88 295.488 
L 227.52 283.196306 
M 127.841569 282.846431 
L 115.2 278.208 
M 130.196747 269.852944 
L 115.2 278.208 
M 130.196747 269.852944 
L 127.841569 282.846431 
M 159.182801 65.002061 
L 149.76 53.568 
M 167.04 53.568 
L 149.76 53.568 
M 167.04 53.568 
L 159.182801 65.002061 
M 163.736579 266.719806 
L 161.607312 251.814757 
M 176.226094 260.260501 
L 161.607312 251.814757 
M 176.226094 260.260501 
L 163.736579 266.719806 
M 313.169754 284.149564 
L 322.56 295.488 
M 305.28 295.488 
L 322.56 295.488 
M 305.28 295.488 
L 313.169754 284.149564 
M 313.164662 185.969141 
L 305.28 174.528 
M 322.56 174.528 
L 305.28 174.528 
M 322.56 174.528 
L 313.164662 185.969141 
M 192.479753 64.993873 
L 184.32 53.568 
M 201.6 53.568 
L 184.32 53.568 
M 201.6 53.568 
L 192.479753 64.993873 
M 279.36 186.103405 
L 270.72 174.528 
M 288 174.528 
L 270.72 174.528 
M 288 174.528 
L 279.36 186.103405 
M 189.271031 266.621451 
L 176.226094 260.260501 
M 191.265243 252.288 
L 176.226094 260.260501 
M 191.265243 252.288 
L 189.271031 266.621451 
M 127.841569 282.846431 
L 141.300265 281.2431 
M 132.48 295.488 
L 141.300265 281.2431 
M 132.48 295.488 
L 127.841569 282.846431 
M 248.497052 187.052883 
L 249.870492 201.378151 
M 235.292282 192.622088 
L 249.870492 201.378151 
M 235.292282 192.622088 
L 248.497052 187.052883 
M 344.470162 187.177838 
L 357.12 191.808 
M 342.687166 200.989835 
L 357.12 191.808 
M 342.687166 200.989835 
L 344.470162 187.177838 
M 223.510162 66.217838 
L 236.16 70.848 
M 221.903942 80.101262 
L 236.16 70.848 
M 221.903942 80.101262 
L 223.510162 66.217838 
M 127.849838 66.217838 
L 129.570174 80.085336 
M 115.2 70.848 
L 129.570174 80.085336 
M 115.2 70.848 
L 127.849838 66.217838 
M 279.527967 284.550983 
L 288 295.488 
M 270.72 295.488 
L 288 295.488 
M 270.72 295.488 
L 279.527967 284.550983 
M 344.537671 282.905671 
L 339.84 295.488 
M 329.429836 279.916319 
L 339.84 295.488 
M 329.429836 279.916319 
L 344.537671 282.905671 
M 248.497052 187.052883 
L 253.44 174.528 
M 263.5412 190.281095 
L 253.44 174.528 
M 263.5412 190.281095 
L 248.497052 187.052883 
M 127.849838 66.217838 
L 132.48 53.568 
M 142.95994 69.229756 
L 132.48 53.568 
M 142.95994 69.229756 
L 127.849838 66.217838 
M 344.470162 187.177838 
L 329.354977 190.196479 
M 339.84 174.528 
L 329.354977 190.196479 
M 339.84 174.528 
L 344.470162 187.177838 
M 223.510162 66.217838 
L 208.653253 69.218448 
M 218.88 53.568 
L 208.653253 69.218448 
M 218.88 53.568 
L 223.510162 66.217838 
M 235.515367 272.819961 
L 222.307222 269.044645 
M 236.36881 259.590803 
L 222.307222 269.044645 
M 236.36881 259.590803 
L 235.515367 272.819961 
M 235.515367 272.819961 
L 244.400482 282.55168 
M 227.52 283.196306 
L 244.400482 282.55168 
M 227.52 283.196306 
L 235.515367 272.819961 
M 344.470162 187.177838 
L 342.687166 200.989835 
M 329.354977 190.196479 
L 342.687166 200.989835 
M 329.354977 190.196479 
L 344.470162 187.177838 
M 223.510162 66.217838 
L 221.903942 80.101262 
M 208.653253 69.218448 
L 221.903942 80.101262 
M 208.653253 69.218448 
L 223.510162 66.217838 
M 127.849838 66.217838 
L 142.95994 69.229756 
M 129.570174 80.085336 
L 142.95994 69.229756 
M 129.570174 80.085336 
L 127.849838 66.217838 
M 127.841569 282.846431 
L 130.196747 269.852944 
M 141.300265 281.2431 
L 130.196747 269.852944 
M 141.300265 281.2431 
L 127.841569 282.846431 
M 344.537671 282.905671 
L 329.429836 279.916319 
M 342.956699 269.333337 
L 329.429836 279.916319 
M 342.956699 269.333337 
L 344.537671 282.905671 
M 344.537671 282.905671 
L 342.956699 269.333337 
M 357.12 278.208 
L 342.956699 269.333337 
M 357.12 278.208 
L 344.537671 282.905671 
M 235.515367 272.819961 
L 227.52 283.196306 
M 222.307222 269.044645 
L 227.52 283.196306 
M 222.307222 269.044645 
L 235.515367 272.819961 
L 235.515367 272.819961 
" clip-path="url(#p571c4162c1)" style="fill: none; stroke: #000000; stroke-width: 0.7; stroke-linecap: square"/>
   </g>
   <g id="line2d_2"/>
  </g>
 </g>
 <defs>
  <clipPath id="p571c4162c1">
   <rect x="57.6" y="41.472" width="357.12" height="266.112"/>
  </clipPath>
 </defs>
</svg>
