<?xml version="1.0" encoding="utf-8" standalone="no"?>
<!DOCTYPE svg PUBLIC "-//W3C//DTD SVG 1.1//EN"
  "http://www.w3.org/Graphics/SVG/1.1/DTD/svg11.dtd">
<svg xmlns:xlink="http://www.w3.org/1999/xlink" width="460.8pt" height="345.6pt" viewBox="0 0 460.8 345.6" xmlns="http://www.w3.org/2000/svg" version="1.1">
 <metadata>
  <rdf:RDF xmlns:dc="http://purl.org/dc/elements/1.1/" xmlns:cc="http://creativecommons.org/ns#" xmlns:rdf="http://www.w3.org/1999/02/22-rdf-syntax-ns#">
   <cc:Work>
    <dc:type rdf:resource="http://purl.org/dc/dcmitype/StillImage"/>
    <dc:date>2026-07-16T03:41:57.537207</dc:date>
    <dc:format>image/svg+xml</dc:format>
    <dc:creator>
     <cc:Agent>
      <dc:title>Matplotlib v3.11.0, https://matplotlib.org/</dc:title>
     </cc:Agent>
    </dc:creator>
   </cc:Work>
  </rdf:RDF>
 </metadata>
 <defs>
  <style type="text/css">*{stroke-linejoin: round; stroke-linecap: butt}</style>
 </defs>
 <g id="figure_1">
  <g id="patch_1">
   <path d="M 0 345.6 
L 460.8 345.6 
L 460.8 0 
L 0 0 
z
" style="fill: #ffffff"/>
  </g>
  <g id="patch_2">
   <path d="M 103.104 307.584 
L 369.216 307.584 
L 369.216 41.472 
L 103.104 41.472 
z
" style="fill: #ffffff"/>
  </g>
  <g id="pane3d_1">
   <g id="patch_3">
    <path d="M 123.197291 241.969309 
L 211.076164 168.307495 
L 209.854564 62.073991 
L 117.770234 129.272941 
" style="fill: #f2f2f2; opacity: 0.5; stroke: #f2f2f2; stroke-linejoin: miter"/>
   </g>
  </g>
  <g id="pane3d_2">
   <g id="patch_4">
    <path d="M 211.076164 168.307495 
L 352.090401 209.294766 
L 357.122702 99.402171 
L 209.854564 62.073991 
" style="fill: #e6e6e6; opacity: 0.5; stroke: #e6e6e6; stroke-linejoin: miter"/>
   </g>
  </g>
  <g id="pane3d_3">
   <g id="patch_5">
    <path d="M 123.197291 241.969309 
L 272.679269 290.790123 
L 352.090401 209.294766 
L 211.076164 168.307495 
" style="fill: #ececec; opacity: 0.5; stroke: #ececec; stroke-linejoin: miter"/>
   </g>
  </g>
  <g id="grid3d_1">
   <g id="Line3DCollection_1">
    <path d="M 132.250704 244.926154 
L 219.652219 170.800215 
L 218.79322 64.33968 
" style="fill: none; stroke: #b0b0b0; stroke-width: 0.8"/>
    <path d="M 163.746964 255.212832 
L 249.452008 179.461838 
L 249.870802 72.216941 
" style="fill: none; stroke: #b0b0b0; stroke-width: 0.8"/>
    <path d="M 195.967881 265.736184 
L 279.880048 188.306068 
L 281.632185 80.267526 
" style="fill: none; stroke: #b0b0b0; stroke-width: 0.8"/>
    <path d="M 228.938756 276.504471 
L 310.956419 197.338742 
L 314.100189 88.497218 
" style="fill: none; stroke: #b0b0b0; stroke-width: 0.8"/>
    <path d="M 262.686081 287.526347 
L 342.702063 206.565947 
L 347.298659 96.912062 
" style="fill: none; stroke: #b0b0b0; stroke-width: 0.8"/>
   </g>
  </g>
  <g id="grid3d_2">
   <g id="Line3DCollection_2">
    <path d="M 124.138093 124.625967 
L 129.252888 236.893387 
L 278.173905 285.151275 
" style="fill: none; stroke: #b0b0b0; stroke-width: 0.8"/>
    <path d="M 145.412445 109.100914 
L 149.507047 219.91595 
L 296.527502 266.315969 
" style="fill: none; stroke: #b0b0b0; stroke-width: 0.8"/>
    <path d="M 165.860779 94.178651 
L 169.008295 203.569617 
L 314.163547 248.217048 
" style="fill: none; stroke: #b0b0b0; stroke-width: 0.8"/>
    <path d="M 185.530286 79.824741 
L 187.797848 187.819842 
L 331.123312 230.812157 
" style="fill: none; stroke: #b0b0b0; stroke-width: 0.8"/>
    <path d="M 204.46463 66.007319 
L 205.913967 172.634551 
L 347.444965 214.062126 
" style="fill: none; stroke: #b0b0b0; stroke-width: 0.8"/>
   </g>
  </g>
  <g id="grid3d_3">
   <g id="Line3DCollection_3">
    <path d="M 352.186814 207.189346 
L 211.052711 166.26796 
L 123.093487 239.813739 
" style="fill: none; stroke: #b0b0b0; stroke-width: 0.8"/>
    <path d="M 352.768787 194.480534 
L 210.911184 153.960355 
L 122.466755 226.799259 
" style="fill: none; stroke: #b0b0b0; stroke-width: 0.8"/>
    <path d="M 353.356817 181.63947 
L 210.768254 141.530779 
L 121.833254 213.644192 
" style="fill: none; stroke: #b0b0b0; stroke-width: 0.8"/>
    <path d="M 353.950998 168.664076 
L 210.6239 128.977409 
L 121.192872 200.346248 
" style="fill: none; stroke: #b0b0b0; stroke-width: 0.8"/>
    <path d="M 354.551427 155.552235 
L 210.478101 116.298387 
L 120.545497 186.903085 
" style="fill: none; stroke: #b0b0b0; stroke-width: 0.8"/>
    <path d="M 355.158204 142.301783 
L 210.330836 103.491817 
L 119.891014 173.312313 
" style="fill: none; stroke: #b0b0b0; stroke-width: 0.8"/>
    <path d="M 355.771429 128.91051 
L 210.182082 90.555764 
L 119.229304 159.571486 
" style="fill: none; stroke: #b0b0b0; stroke-width: 0.8"/>
    <path d="M 356.391206 115.37616 
L 210.031816 77.488254 
L 118.560248 145.678106 
" style="fill: none; stroke: #b0b0b0; stroke-width: 0.8"/>
    <path d="M 357.017641 101.696426 
L 209.880015 64.287274 
L 117.883723 131.629618 
" style="fill: none; stroke: #b0b0b0; stroke-width: 0.8"/>
   </g>
  </g>
  <g id="axis3d_1">
   <g id="line2d_1">
    <path d="M 123.197291 241.969309 
L 272.679269 290.790123 
" style="fill: none; stroke: #000000; stroke-width: 0.8; stroke-linecap: square"/>
   </g>
   <g id="xtick_1">
    <g id="line2d_2">
     <path d="M 133.011792 244.280669 
L 130.725263 246.219892 
" style="fill: none; stroke: #000000; stroke-width: 0.8; stroke-linecap: square"/>
    </g>
    <g id="text_1">
     <!-- −1.0 -->
     <g transform="translate(112.580248 268.234521) scale(0.1 -0.1)">
      <defs>
       <path id="DejaVuSans-c9c" d="M 678 2272 
L 4684 2272 
L 4684 1741 
L 678 1741 
L 678 2272 
z
" transform="scale(0.015625)"/>
       <path id="DejaVuSans-14" d="M 794 531 
L 1825 531 
L 1825 4091 
L 703 3866 
L 703 4441 
L 1819 4666 
L 2450 4666 
L 2450 531 
L 3481 531 
L 3481 0 
L 794 0 
L 794 531 
z
" transform="scale(0.015625)"/>
       <path id="DejaVuSans-11" d="M 684 794 
L 1344 794 
L 1344 0 
L 684 0 
L 684 794 
z
" transform="scale(0.015625)"/>
       <path id="DejaVuSans-13" d="M 2034 4250 
Q 1547 4250 1301 3770 
Q 1056 3291 1056 2328 
Q 1056 1369 1301 889 
Q 1547 409 2034 409 
Q 2525 409 2770 889 
Q 3016 1369 3016 2328 
Q 3016 3291 2770 3770 
Q 2525 4250 2034 4250 
z
M 2034 4750 
Q 2819 4750 3233 4129 
Q 3647 3509 3647 2328 
Q 3647 1150 3233 529 
Q 2819 -91 2034 -91 
Q 1250 -91 836 529 
Q 422 1150 422 2328 
Q 422 3509 836 4129 
Q 1250 4750 2034 4750 
z
" transform="scale(0.015625)"/>
      </defs>
      <use xlink:href="#DejaVuSans-c9c"/>
      <use xlink:href="#DejaVuSans-14" transform="translate(83.796875 0)"/>
      <use xlink:href="#DejaVuSans-11" transform="translate(147.421875 0)"/>
      <use xlink:href="#DejaVuSans-13" transform="translate(179.203125 0)"/>
     </g>
    </g>
   </g>
   <g id="xtick_2">
    <g id="line2d_3">
     <path d="M 164.493968 254.552587 
L 162.249714 256.536187 
" style="fill: none; stroke: #000000; stroke-width: 0.8; stroke-linecap: square"/>
    </g>
    <g id="text_2">
     <!-- −0.5 -->
     <g transform="translate(144.108975 278.739225) scale(0.1 -0.1)">
      <defs>
       <path id="DejaVuSans-18" d="M 691 4666 
L 3169 4666 
L 3169 4134 
L 1269 4134 
L 1269 2991 
Q 1406 3038 1543 3061 
Q 1681 3084 1819 3084 
Q 2600 3084 3056 2656 
Q 3513 2228 3513 1497 
Q 3513 744 3044 326 
Q 2575 -91 1722 -91 
Q 1428 -91 1123 -41 
Q 819 9 494 109 
L 494 744 
Q 775 591 1075 516 
Q 1375 441 1709 441 
Q 2250 441 2565 725 
Q 2881 1009 2881 1497 
Q 2881 1984 2565 2268 
Q 2250 2553 1709 2553 
Q 1456 2553 1204 2497 
Q 953 2441 691 2322 
L 691 4666 
z
" transform="scale(0.015625)"/>
      </defs>
      <use xlink:href="#DejaVuSans-c9c"/>
      <use xlink:href="#DejaVuSans-13" transform="translate(83.796875 0)"/>
      <use xlink:href="#DejaVuSans-11" transform="translate(147.421875 0)"/>
      <use xlink:href="#DejaVuSans-18" transform="translate(179.203125 0)"/>
     </g>
    </g>
   </g>
   <g id="xtick_3">
    <g id="line2d_4">
     <path d="M 196.69995 265.060666 
L 194.500531 267.090184 
" style="fill: none; stroke: #000000; stroke-width: 0.8; stroke-linecap: square"/>
    </g>
    <g id="text_3">
     <!-- 0.0 -->
     <g transform="translate(180.555708 289.486537) scale(0.1 -0.1)">
      <use xlink:href="#DejaVuSans-13"/>
      <use xlink:href="#DejaVuSans-11" transform="translate(63.625 0)"/>
      <use xlink:href="#DejaVuSans-13" transform="translate(95.40625 0)"/>
     </g>
    </g>
   </g>
   <g id="xtick_4">
    <g id="line2d_5">
     <path d="M 229.654987 275.813145 
L 227.503114 277.890194 
" style="fill: none; stroke: #000000; stroke-width: 0.8; stroke-linecap: square"/>
    </g>
    <g id="text_4">
     <!-- 0.5 -->
     <g transform="translate(213.566281 300.48496) scale(0.1 -0.1)">
      <use xlink:href="#DejaVuSans-13"/>
      <use xlink:href="#DejaVuSans-11" transform="translate(63.625 0)"/>
      <use xlink:href="#DejaVuSans-18" transform="translate(95.40625 0)"/>
     </g>
    </g>
   </g>
   <g id="xtick_5">
    <g id="line2d_6">
     <path d="M 263.385522 286.818651 
L 261.284057 288.94492 
" style="fill: none; stroke: #000000; stroke-width: 0.8; stroke-linecap: square"/>
    </g>
    <g id="text_5">
     <!-- 1.0 -->
     <g transform="translate(247.357265 311.7434) scale(0.1 -0.1)">
      <use xlink:href="#DejaVuSans-14"/>
      <use xlink:href="#DejaVuSans-11" transform="translate(63.625 0)"/>
      <use xlink:href="#DejaVuSans-13" transform="translate(95.40625 0)"/>
     </g>
    </g>
   </g>
  </g>
  <g id="axis3d_2">
   <g id="line2d_7">
    <path d="M 352.090401 209.294766 
L 272.679269 290.790123 
" style="fill: none; stroke: #000000; stroke-width: 0.8; stroke-linecap: square"/>
   </g>
   <g id="xtick_6">
    <g id="line2d_8">
     <path d="M 276.918943 284.744604 
L 280.687074 285.965668 
" style="fill: none; stroke: #000000; stroke-width: 0.8; stroke-linecap: square"/>
    </g>
    <g id="text_6">
     <!-- −1.0 -->
     <g transform="translate(278.913132 306.172223) scale(0.1 -0.1)">
      <use xlink:href="#DejaVuSans-c9c"/>
      <use xlink:href="#DejaVuSans-14" transform="translate(83.796875 0)"/>
      <use xlink:href="#DejaVuSans-11" transform="translate(147.421875 0)"/>
      <use xlink:href="#DejaVuSans-13" transform="translate(179.203125 0)"/>
     </g>
    </g>
   </g>
   <g id="xtick_7">
    <g id="line2d_9">
     <path d="M 295.289808 265.925349 
L 299.006028 267.098198 
" style="fill: none; stroke: #000000; stroke-width: 0.8; stroke-linecap: square"/>
    </g>
    <g id="text_7">
     <!-- −0.5 -->
     <g transform="translate(297.020539 287.058077) scale(0.1 -0.1)">
      <use xlink:href="#DejaVuSans-c9c"/>
      <use xlink:href="#DejaVuSans-13" transform="translate(83.796875 0)"/>
      <use xlink:href="#DejaVuSans-11" transform="translate(147.421875 0)"/>
      <use xlink:href="#DejaVuSans-18" transform="translate(179.203125 0)"/>
     </g>
    </g>
   </g>
   <g id="xtick_8">
    <g id="line2d_10">
     <path d="M 312.942742 247.841548 
L 316.608191 248.968982 
" style="fill: none; stroke: #000000; stroke-width: 0.8; stroke-linecap: square"/>
    </g>
    <g id="text_8">
     <!-- 0.0 -->
     <g transform="translate(318.609453 268.691647) scale(0.1 -0.1)">
      <use xlink:href="#DejaVuSans-13"/>
      <use xlink:href="#DejaVuSans-11" transform="translate(63.625 0)"/>
      <use xlink:href="#DejaVuSans-13" transform="translate(95.40625 0)"/>
     </g>
    </g>
   </g>
   <g id="xtick_9">
    <g id="line2d_11">
     <path d="M 329.919023 230.450915 
L 333.534825 231.535522 
" style="fill: none; stroke: #000000; stroke-width: 0.8; stroke-linecap: square"/>
    </g>
    <g id="text_9">
     <!-- 0.5 -->
     <g transform="translate(335.340955 251.029903) scale(0.1 -0.1)">
      <use xlink:href="#DejaVuSans-13"/>
      <use xlink:href="#DejaVuSans-11" transform="translate(63.625 0)"/>
      <use xlink:href="#DejaVuSans-18" transform="translate(95.40625 0)"/>
     </g>
    </g>
   </g>
   <g id="xtick_10">
    <g id="line2d_12">
     <path d="M 346.256825 213.714346 
L 349.824086 214.758519 
" style="fill: none; stroke: #000000; stroke-width: 0.8; stroke-linecap: square"/>
    </g>
    <g id="text_10">
     <!-- 1.0 -->
     <g transform="translate(351.442585 234.03305) scale(0.1 -0.1)">
      <use xlink:href="#DejaVuSans-14"/>
      <use xlink:href="#DejaVuSans-11" transform="translate(63.625 0)"/>
      <use xlink:href="#DejaVuSans-13" transform="translate(95.40625 0)"/>
     </g>
    </g>
   </g>
  </g>
  <g id="axis3d_3">
   <g id="line2d_13">
    <path d="M 352.090401 209.294766 
L 357.122702 99.402171 
" style="fill: none; stroke: #000000; stroke-width: 0.8; stroke-linecap: square"/>
   </g>
   <g id="xtick_11">
    <g id="line2d_14">
     <path d="M 351.002262 206.845889 
L 354.558736 207.877077 
" style="fill: none; stroke: #000000; stroke-width: 0.8; stroke-linecap: square"/>
    </g>
    <g id="text_11">
     <!-- 0.00 -->
     <g transform="translate(359.317967 212.186093) scale(0.1 -0.1)">
      <use xlink:href="#DejaVuSans-13"/>
      <use xlink:href="#DejaVuSans-11" transform="translate(63.625 0)"/>
      <use xlink:href="#DejaVuSans-13" transform="translate(95.40625 0)"/>
      <use xlink:href="#DejaVuSans-13" transform="translate(159.03125 0)"/>
     </g>
    </g>
   </g>
   <g id="xtick_12">
    <g id="line2d_15">
     <path d="M 351.577875 194.140362 
L 355.153462 195.161692 
" style="fill: none; stroke: #000000; stroke-width: 0.8; stroke-linecap: square"/>
    </g>
    <g id="text_12">
     <!-- 0.25 -->
     <g transform="translate(359.992439 199.502193) scale(0.1 -0.1)">
      <defs>
       <path id="DejaVuSans-15" d="M 1228 531 
L 3431 531 
L 3431 0 
L 469 0 
L 469 531 
Q 828 903 1448 1529 
Q 2069 2156 2228 2338 
Q 2531 2678 2651 2914 
Q 2772 3150 2772 3378 
Q 2772 3750 2511 3984 
Q 2250 4219 1831 4219 
Q 1534 4219 1204 4116 
Q 875 4013 500 3803 
L 500 4441 
Q 881 4594 1212 4672 
Q 1544 4750 1819 4750 
Q 2544 4750 2975 4387 
Q 3406 4025 3406 3419 
Q 3406 3131 3298 2873 
Q 3191 2616 2906 2266 
Q 2828 2175 2409 1742 
Q 1991 1309 1228 531 
z
" transform="scale(0.015625)"/>
      </defs>
      <use xlink:href="#DejaVuSans-13"/>
      <use xlink:href="#DejaVuSans-11" transform="translate(63.625 0)"/>
      <use xlink:href="#DejaVuSans-15" transform="translate(95.40625 0)"/>
      <use xlink:href="#DejaVuSans-18" transform="translate(159.03125 0)"/>
     </g>
    </g>
   </g>
   <g id="xtick_13">
    <g id="line2d_16">
     <path d="M 352.159475 181.30267 
L 355.754381 182.31388 
" style="fill: none; stroke: #000000; stroke-width: 0.8; stroke-linecap: square"/>
    </g>
    <g id="text_13">
     <!-- 0.50 -->
     <g transform="translate(360.673909 186.686698) scale(0.1 -0.1)">
      <use xlink:href="#DejaVuSans-13"/>
      <use xlink:href="#DejaVuSans-11" transform="translate(63.625 0)"/>
      <use xlink:href="#DejaVuSans-18" transform="translate(95.40625 0)"/>
      <use xlink:href="#DejaVuSans-13" transform="translate(159.03125 0)"/>
     </g>
    </g>
   </g>
   <g id="xtick_14">
    <g id="line2d_17">
     <path d="M 352.747157 168.330738 
L 356.361591 169.331559 
" style="fill: none; stroke: #000000; stroke-width: 0.8; stroke-linecap: square"/>
    </g>
    <g id="text_14">
     <!-- 0.75 -->
     <g transform="translate(361.362486 173.737551) scale(0.1 -0.1)">
      <defs>
       <path id="DejaVuSans-1a" d="M 525 4666 
L 3525 4666 
L 3525 4397 
L 1831 0 
L 1172 0 
L 2766 4134 
L 525 4134 
L 525 4666 
z
" transform="scale(0.015625)"/>
      </defs>
      <use xlink:href="#DejaVuSans-13"/>
      <use xlink:href="#DejaVuSans-11" transform="translate(63.625 0)"/>
      <use xlink:href="#DejaVuSans-1a" transform="translate(95.40625 0)"/>
      <use xlink:href="#DejaVuSans-18" transform="translate(159.03125 0)"/>
     </g>
    </g>
   </g>
   <g id="xtick_15">
    <g id="line2d_18">
     <path d="M 353.341016 155.22245 
L 356.975191 156.212608 
" style="fill: none; stroke: #000000; stroke-width: 0.8; stroke-linecap: square"/>
    </g>
    <g id="text_15">
     <!-- 1.00 -->
     <g transform="translate(362.058281 160.65265) scale(0.1 -0.1)">
      <use xlink:href="#DejaVuSans-14"/>
      <use xlink:href="#DejaVuSans-11" transform="translate(63.625 0)"/>
      <use xlink:href="#DejaVuSans-13" transform="translate(95.40625 0)"/>
      <use xlink:href="#DejaVuSans-13" transform="translate(159.03125 0)"/>
     </g>
    </g>
   </g>
   <g id="xtick_16">
    <g id="line2d_19">
     <path d="M 353.94115 141.975645 
L 357.595284 142.954857 
" style="fill: none; stroke: #000000; stroke-width: 0.8; stroke-linecap: square"/>
    </g>
    <g id="text_16">
     <!-- 1.25 -->
     <g transform="translate(362.76141 147.429848) scale(0.1 -0.1)">
      <use xlink:href="#DejaVuSans-14"/>
      <use xlink:href="#DejaVuSans-11" transform="translate(63.625 0)"/>
      <use xlink:href="#DejaVuSans-15" transform="translate(95.40625 0)"/>
      <use xlink:href="#DejaVuSans-18" transform="translate(159.03125 0)"/>
     </g>
    </g>
   </g>
   <g id="xtick_17">
    <g id="line2d_20">
     <path d="M 354.54766 128.588115 
L 358.221972 129.556093 
" style="fill: none; stroke: #000000; stroke-width: 0.8; stroke-linecap: square"/>
    </g>
    <g id="text_17">
     <!-- 1.50 -->
     <g transform="translate(363.471988 134.066954) scale(0.1 -0.1)">
      <use xlink:href="#DejaVuSans-14"/>
      <use xlink:href="#DejaVuSans-11" transform="translate(63.625 0)"/>
      <use xlink:href="#DejaVuSans-18" transform="translate(95.40625 0)"/>
      <use xlink:href="#DejaVuSans-13" transform="translate(159.03125 0)"/>
     </g>
    </g>
   </g>
   <g id="xtick_18">
    <g id="line2d_21">
     <path d="M 355.160648 115.057606 
L 358.855362 116.014053 
" style="fill: none; stroke: #000000; stroke-width: 0.8; stroke-linecap: square"/>
    </g>
    <g id="text_18">
     <!-- 1.75 -->
     <g transform="translate(364.190135 120.56173) scale(0.1 -0.1)">
      <use xlink:href="#DejaVuSans-14"/>
      <use xlink:href="#DejaVuSans-11" transform="translate(63.625 0)"/>
      <use xlink:href="#DejaVuSans-1a" transform="translate(95.40625 0)"/>
      <use xlink:href="#DejaVuSans-18" transform="translate(159.03125 0)"/>
     </g>
    </g>
   </g>
   <g id="xtick_19">
    <g id="line2d_22">
     <path d="M 355.780217 101.381816 
L 359.495561 102.326427 
" style="fill: none; stroke: #000000; stroke-width: 0.8; stroke-linecap: square"/>
    </g>
    <g id="text_19">
     <!-- 2.00 -->
     <g transform="translate(364.915971 106.91189) scale(0.1 -0.1)">
      <use xlink:href="#DejaVuSans-15"/>
      <use xlink:href="#DejaVuSans-11" transform="translate(63.625 0)"/>
      <use xlink:href="#DejaVuSans-13" transform="translate(95.40625 0)"/>
      <use xlink:href="#DejaVuSans-13" transform="translate(159.03125 0)"/>
     </g>
    </g>
   </g>
  </g>
  <g id="axes_1">
   <g id="Poly3DCollection_1">
    <path d="M 231.268832 101.073167 
L 232.704782 114.857644 
L 240.122882 113.061112 
z
" clip-path="url(#p7ef94d531e)" style="fill: #154f78"/>
    <path d="M 240.122882 113.061112 
L 240.052642 126.880185 
L 248.972407 122.908115 
z
" clip-path="url(#p7ef94d531e)" style="fill: #15517b"/>
    <path d="M 248.972407 122.908115 
L 249.79938 132.757928 
L 257.839653 130.637997 
z
" clip-path="url(#p7ef94d531e)" style="fill: #175783"/>
    <path d="M 240.122882 113.061112 
L 232.704782 114.857644 
L 240.052642 126.880185 
z
" clip-path="url(#p7ef94d531e)" style="fill: #15517b"/>
    <path d="M 223.113796 107.362427 
L 232.704782 114.857644 
L 231.268832 101.073167 
z
" clip-path="url(#p7ef94d531e)" style="fill: #16537d"/>
    <path d="M 222.387962 86.909657 
L 223.113796 107.362427 
L 231.268832 101.073167 
z
" clip-path="url(#p7ef94d531e)" style="fill: #154f77"/>
    <path d="M 240.052642 126.880185 
L 249.79938 132.757928 
L 248.972407 122.908115 
z
" clip-path="url(#p7ef94d531e)" style="fill: #16547f"/>
    <path d="M 257.839653 130.637997 
L 249.79938 132.757928 
L 256.880615 142.432254 
z
" clip-path="url(#p7ef94d531e)" style="fill: #175783"/>
    <path d="M 257.839653 130.637997 
L 256.880615 142.432254 
L 266.747009 136.263967 
z
" clip-path="url(#p7ef94d531e)" style="fill: #196091"/>
    <path d="M 222.387962 86.909657 
L 216.2352 94.024059 
L 223.113796 107.362427 
z
" clip-path="url(#p7ef94d531e)" style="fill: #16547f"/>
    <path d="M 228.936832 124.231343 
L 232.704782 114.857644 
L 223.113796 107.362427 
z
" clip-path="url(#p7ef94d531e)" style="fill: #15517b"/>
    <path d="M 240.052642 126.880185 
L 232.704782 114.857644 
L 228.936832 124.231343 
z
" clip-path="url(#p7ef94d531e)" style="fill: #16547f"/>
    <path d="M 213.457742 70.524826 
L 216.2352 94.024059 
L 222.387962 86.909657 
z
" clip-path="url(#p7ef94d531e)" style="fill: #154f78"/>
    <path d="M 223.113796 107.362427 
L 216.2352 94.024059 
L 212.978269 106.711386 
z
" clip-path="url(#p7ef94d531e)" style="fill: #16547f"/>
    <path d="M 245.240558 140.526725 
L 249.79938 132.757928 
L 240.052642 126.880185 
z
" clip-path="url(#p7ef94d531e)" style="fill: #165580"/>
    <path d="M 256.880615 142.432254 
L 265.425004 147.018536 
L 266.747009 136.263967 
z
" clip-path="url(#p7ef94d531e)" style="fill: #185c8a"/>
    <path d="M 212.978269 106.711386 
L 216.2352 94.024059 
L 208.329312 88.59787 
z
" clip-path="url(#p7ef94d531e)" style="fill: #16547e"/>
    <path d="M 208.329312 88.59787 
L 216.2352 94.024059 
L 213.457742 70.524826 
z
" clip-path="url(#p7ef94d531e)" style="fill: #165682"/>
    <path d="M 256.880615 142.432254 
L 249.79938 132.757928 
L 245.240558 140.526725 
z
" clip-path="url(#p7ef94d531e)" style="fill: #175784"/>
    <path d="M 223.113796 107.362427 
L 218.655999 121.239718 
L 228.936832 124.231343 
z
" clip-path="url(#p7ef94d531e)" style="fill: #165581"/>
    <path d="M 223.113796 107.362427 
L 212.978269 106.711386 
L 218.655999 121.239718 
z
" clip-path="url(#p7ef94d531e)" style="fill: #165480"/>
    <path d="M 266.747009 136.263967 
L 265.425004 147.018536 
L 275.717189 139.788682 
z
" clip-path="url(#p7ef94d531e)" style="fill: #1b699f"/>
    <path d="M 240.052642 126.880185 
L 228.936832 124.231343 
L 234.664905 137.316258 
z
" clip-path="url(#p7ef94d531e)" style="fill: #16537e"/>
    <path d="M 203.171299 104.516159 
L 212.978269 106.711386 
L 208.329312 88.59787 
z
" clip-path="url(#p7ef94d531e)" style="fill: #175885"/>
    <path d="M 234.664905 137.316258 
L 245.240558 140.526725 
L 240.052642 126.880185 
z
" clip-path="url(#p7ef94d531e)" style="fill: #16547f"/>
    <path d="M 260.501467 157.010618 
L 265.425004 147.018536 
L 256.880615 142.432254 
z
" clip-path="url(#p7ef94d531e)" style="fill: #185d8c"/>
    <path d="M 208.415579 119.425481 
L 212.978269 106.711386 
L 203.171299 104.516159 
z
" clip-path="url(#p7ef94d531e)" style="fill: #175884"/>
    <path d="M 275.717189 139.788682 
L 265.425004 147.018536 
L 270.576354 157.87231 
z
" clip-path="url(#p7ef94d531e)" style="fill: #196193"/>
    <path d="M 218.655999 121.239718 
L 212.978269 106.711386 
L 208.415579 119.425481 
z
" clip-path="url(#p7ef94d531e)" style="fill: #175784"/>
    <path d="M 270.576354 157.87231 
L 265.425004 147.018536 
L 260.501467 157.010618 
z
" clip-path="url(#p7ef94d531e)" style="fill: #175886"/>
    <path d="M 245.240558 140.526725 
L 250.396688 153.595842 
L 256.880615 142.432254 
z
" clip-path="url(#p7ef94d531e)" style="fill: #175784"/>
    <path d="M 228.936832 124.231343 
L 218.655999 121.239718 
L 224.313122 134.69916 
z
" clip-path="url(#p7ef94d531e)" style="fill: #16547f"/>
    <path d="M 270.576354 157.87231 
L 260.501467 157.010618 
L 265.458331 173.857331 
z
" clip-path="url(#p7ef94d531e)" style="fill: #175885"/>
    <path d="M 250.396688 153.595842 
L 260.501467 157.010618 
L 256.880615 142.432254 
z
" clip-path="url(#p7ef94d531e)" style="fill: #165580"/>
    <path d="M 197.970595 118.315235 
L 208.415579 119.425481 
L 203.171299 104.516159 
z
" clip-path="url(#p7ef94d531e)" style="fill: #185b89"/>
    <path d="M 234.664905 137.316258 
L 228.936832 124.231343 
L 224.313122 134.69916 
z
" clip-path="url(#p7ef94d531e)" style="fill: #165480"/>
    <path d="M 208.415579 119.425481 
L 213.921084 132.094176 
L 218.655999 121.239718 
z
" clip-path="url(#p7ef94d531e)" style="fill: #175784"/>
    <path d="M 239.765412 149.92488 
L 245.240558 140.526725 
L 234.664905 137.316258 
z
" clip-path="url(#p7ef94d531e)" style="fill: #165480"/>
    <path d="M 265.458331 173.857331 
L 260.501467 157.010618 
L 255.276927 169.037554 
z
" clip-path="url(#p7ef94d531e)" style="fill: #155079"/>
    <path d="M 239.765412 149.92488 
L 250.396688 153.595842 
L 245.240558 140.526725 
z
" clip-path="url(#p7ef94d531e)" style="fill: #15527c"/>
    <path d="M 218.655999 121.239718 
L 213.921084 132.094176 
L 224.313122 134.69916 
z
" clip-path="url(#p7ef94d531e)" style="fill: #165683"/>
    <path d="M 255.276927 169.037554 
L 260.501467 157.010618 
L 250.396688 153.595842 
z
" clip-path="url(#p7ef94d531e)" style="fill: #165581"/>
    <path d="M 203.390056 130.47771 
L 208.415579 119.425481 
L 197.970595 118.315235 
z
" clip-path="url(#p7ef94d531e)" style="fill: #185b89"/>
    <path d="M 265.458331 173.857331 
L 255.276927 169.037554 
L 260.350216 187.779616 
z
" clip-path="url(#p7ef94d531e)" style="fill: #15507a"/>
    <path d="M 203.390056 130.47771 
L 213.921084 132.094176 
L 208.415579 119.425481 
z
" clip-path="url(#p7ef94d531e)" style="fill: #175987"/>
    <path d="M 229.441561 146.493856 
L 234.664905 137.316258 
L 224.313122 134.69916 
z
" clip-path="url(#p7ef94d531e)" style="fill: #16547f"/>
    <path d="M 192.713818 130.020062 
L 203.390056 130.47771 
L 197.970595 118.315235 
z
" clip-path="url(#p7ef94d531e)" style="fill: #185d8c"/>
    <path d="M 229.441561 146.493856 
L 239.765412 149.92488 
L 234.664905 137.316258 
z
" clip-path="url(#p7ef94d531e)" style="fill: #15527c"/>
    <path d="M 244.977643 163.737141 
L 255.276927 169.037554 
L 250.396688 153.595842 
z
" clip-path="url(#p7ef94d531e)" style="fill: #144e76"/>
    <path d="M 239.765412 149.92488 
L 244.977643 163.737141 
L 250.396688 153.595842 
z
" clip-path="url(#p7ef94d531e)" style="fill: #16537d"/>
    <path d="M 260.350216 187.779616 
L 255.276927 169.037554 
L 250.085752 179.9475 
z
" clip-path="url(#p7ef94d531e)" style="fill: #13496e"/>
    <path d="M 224.313122 134.69916 
L 213.921084 132.094176 
L 219.130513 143.357703 
z
" clip-path="url(#p7ef94d531e)" style="fill: #165581"/>
    <path d="M 229.441561 146.493856 
L 224.313122 134.69916 
L 219.130513 143.357703 
z
" clip-path="url(#p7ef94d531e)" style="fill: #16537e"/>
    <path d="M 260.350216 187.779616 
L 250.085752 179.9475 
L 255.239095 199.664735 
z
" clip-path="url(#p7ef94d531e)" style="fill: #134a6f"/>
    <path d="M 250.085752 179.9475 
L 255.276927 169.037554 
L 244.977643 163.737141 
z
" clip-path="url(#p7ef94d531e)" style="fill: #144e77"/>
    <path d="M 208.679242 141.123093 
L 213.921084 132.094176 
L 203.390056 130.47771 
z
" clip-path="url(#p7ef94d531e)" style="fill: #175986"/>
    <path d="M 192.713818 130.020062 
L 198.113775 139.867397 
L 203.390056 130.47771 
z
" clip-path="url(#p7ef94d531e)" style="fill: #185d8d"/>
    <path d="M 229.441561 146.493856 
L 234.586026 158.764505 
L 239.765412 149.92488 
z
" clip-path="url(#p7ef94d531e)" style="fill: #15527b"/>
    <path d="M 234.586026 158.764505 
L 244.977643 163.737141 
L 239.765412 149.92488 
z
" clip-path="url(#p7ef94d531e)" style="fill: #144d75"/>
    <path d="M 219.130513 143.357703 
L 213.921084 132.094176 
L 208.679242 141.123093 
z
" clip-path="url(#p7ef94d531e)" style="fill: #165682"/>
    <path d="M 198.113775 139.867397 
L 208.679242 141.123093 
L 203.390056 130.47771 
z
" clip-path="url(#p7ef94d531e)" style="fill: #175a88"/>
    <path d="M 187.387192 139.645155 
L 198.113775 139.867397 
L 192.713818 130.020062 
z
" clip-path="url(#p7ef94d531e)" style="fill: #195e8e"/>
    <path d="M 224.208916 154.420841 
L 229.441561 146.493856 
L 219.130513 143.357703 
z
" clip-path="url(#p7ef94d531e)" style="fill: #15527d"/>
    <path d="M 250.085752 179.9475 
L 244.977643 163.737141 
L 239.756354 172.622941 
z
" clip-path="url(#p7ef94d531e)" style="fill: #13486c"/>
    <path d="M 250.085752 179.9475 
L 244.939156 189.164261 
L 255.239095 199.664735 
z
" clip-path="url(#p7ef94d531e)" style="fill: #114365"/>
    <path d="M 224.208916 154.420841 
L 234.586026 158.764505 
L 229.441561 146.493856 
z
" clip-path="url(#p7ef94d531e)" style="fill: #144e76"/>
    <path d="M 239.756354 172.622941 
L 244.977643 163.737141 
L 234.586026 158.764505 
z
" clip-path="url(#p7ef94d531e)" style="fill: #144d75"/>
    <path d="M 255.239095 199.664735 
L 244.939156 189.164261 
L 250.111938 209.528092 
z
" clip-path="url(#p7ef94d531e)" style="fill: #124366"/>
    <path d="M 219.130513 143.357703 
L 208.679242 141.123093 
L 213.792474 150.874691 
z
" clip-path="url(#p7ef94d531e)" style="fill: #165581"/>
    <path d="M 239.756354 172.622941 
L 244.939156 189.164261 
L 250.085752 179.9475 
z
" clip-path="url(#p7ef94d531e)" style="fill: #13486d"/>
    <path d="M 224.208916 154.420841 
L 219.130513 143.357703 
L 213.792474 150.874691 
z
" clip-path="url(#p7ef94d531e)" style="fill: #15507a"/>
    <path d="M 203.310115 148.519481 
L 208.679242 141.123093 
L 198.113775 139.867397 
z
" clip-path="url(#p7ef94d531e)" style="fill: #175987"/>
    <path d="M 192.577222 147.301834 
L 198.113775 139.867397 
L 187.387192 139.645155 
z
" clip-path="url(#p7ef94d531e)" style="fill: #185e8e"/>
    <path d="M 229.369292 166.207745 
L 239.756354 172.622941 
L 234.586026 158.764505 
z
" clip-path="url(#p7ef94d531e)" style="fill: #13486d"/>
    <path d="M 229.369292 166.207745 
L 234.586026 158.764505 
L 224.208916 154.420841 
z
" clip-path="url(#p7ef94d531e)" style="fill: #144d75"/>
    <path d="M 213.792474 150.874691 
L 208.679242 141.123093 
L 203.310115 148.519481 
z
" clip-path="url(#p7ef94d531e)" style="fill: #165480"/>
    <path d="M 203.310115 148.519481 
L 198.113775 139.867397 
L 192.577222 147.301834 
z
" clip-path="url(#p7ef94d531e)" style="fill: #175987"/>
    <path d="M 181.976428 147.194573 
L 192.577222 147.301834 
L 187.387192 139.645155 
z
" clip-path="url(#p7ef94d531e)" style="fill: #195e8f"/>
    <path d="M 234.553341 179.711869 
L 244.939156 189.164261 
L 239.756354 172.622941 
z
" clip-path="url(#p7ef94d531e)" style="fill: #114263"/>
    <path d="M 250.111938 209.528092 
L 244.939156 189.164261 
L 239.756114 196.09045 
z
" clip-path="url(#p7ef94d531e)" style="fill: #103d5c"/>
    <path d="M 218.931727 160.962342 
L 224.208916 154.420841 
L 213.792474 150.874691 
z
" clip-path="url(#p7ef94d531e)" style="fill: #154f78"/>
    <path d="M 229.369292 166.207745 
L 234.553341 179.711869 
L 239.756354 172.622941 
z
" clip-path="url(#p7ef94d531e)" style="fill: #13476c"/>
    <path d="M 218.931727 160.962342 
L 229.369292 166.207745 
L 224.208916 154.420841 
z
" clip-path="url(#p7ef94d531e)" style="fill: #134a6f"/>
    <path d="M 250.111938 209.528092 
L 239.756114 196.09045 
L 244.95548 217.374931 
z
" clip-path="url(#p7ef94d531e)" style="fill: #103e5e"/>
    <path d="M 208.463713 157.06158 
L 213.792474 150.874691 
L 203.310115 148.519481 
z
" clip-path="url(#p7ef94d531e)" style="fill: #16537e"/>
    <path d="M 239.756114 196.09045 
L 244.939156 189.164261 
L 234.553341 179.711869 
z
" clip-path="url(#p7ef94d531e)" style="fill: #114163"/>
    <path d="M 208.463713 157.06158 
L 218.931727 160.962342 
L 213.792474 150.874691 
z
" clip-path="url(#p7ef94d531e)" style="fill: #144d75"/>
    <path d="M 197.920298 154.380764 
L 203.310115 148.519481 
L 192.577222 147.301834 
z
" clip-path="url(#p7ef94d531e)" style="fill: #175885"/>
    <path d="M 181.976428 147.194573 
L 187.162924 152.869831 
L 192.577222 147.301834 
z
" clip-path="url(#p7ef94d531e)" style="fill: #185d8c"/>
    <path d="M 229.369292 166.207745 
L 224.099048 171.976715 
L 234.553341 179.711869 
z
" clip-path="url(#p7ef94d531e)" style="fill: #114365"/>
    <path d="M 218.931727 160.962342 
L 224.099048 171.976715 
L 229.369292 166.207745 
z
" clip-path="url(#p7ef94d531e)" style="fill: #13496e"/>
    <path d="M 208.463713 157.06158 
L 203.310115 148.519481 
L 197.920298 154.380764 
z
" clip-path="url(#p7ef94d531e)" style="fill: #15527b"/>
    <path d="M 192.577222 147.301834 
L 187.162924 152.869831 
L 197.920298 154.380764 
z
" clip-path="url(#p7ef94d531e)" style="fill: #175783"/>
    <path d="M 176.46659 152.661782 
L 187.162924 152.869831 
L 181.976428 147.194573 
z
" clip-path="url(#p7ef94d531e)" style="fill: #185c8b"/>
    <path d="M 229.294747 184.529026 
L 239.756114 196.09045 
L 234.553341 179.711869 
z
" clip-path="url(#p7ef94d531e)" style="fill: #103c5b"/>
    <path d="M 244.95548 217.374931 
L 239.756114 196.09045 
L 234.519435 199.833763 
z
" clip-path="url(#p7ef94d531e)" style="fill: #0e3753"/>
    <path d="M 208.463713 157.06158 
L 213.592578 166.113844 
L 218.931727 160.962342 
z
" clip-path="url(#p7ef94d531e)" style="fill: #144c73"/>
    <path d="M 224.099048 171.976715 
L 229.294747 184.529026 
L 234.553341 179.711869 
z
" clip-path="url(#p7ef94d531e)" style="fill: #114163"/>
    <path d="M 213.592578 166.113844 
L 224.099048 171.976715 
L 218.931727 160.962342 
z
" clip-path="url(#p7ef94d531e)" style="fill: #12466a"/>
    <path d="M 244.95548 217.374931 
L 234.519435 199.833763 
L 239.756108 223.200216 
z
" clip-path="url(#p7ef94d531e)" style="fill: #0f3956"/>
    <path d="M 203.060458 161.895823 
L 208.463713 157.06158 
L 197.920298 154.380764 
z
" clip-path="url(#p7ef94d531e)" style="fill: #155079"/>
    <path d="M 234.519435 199.833763 
L 239.756114 196.09045 
L 229.294747 184.529026 
z
" clip-path="url(#p7ef94d531e)" style="fill: #0f3b59"/>
    <path d="M 203.060458 161.895823 
L 213.592578 166.113844 
L 208.463713 157.06158 
z
" clip-path="url(#p7ef94d531e)" style="fill: #134a71"/>
    <path d="M 197.920298 154.380764 
L 187.162924 152.869831 
L 192.45256 158.990547 
z
" clip-path="url(#p7ef94d531e)" style="fill: #165581"/>
    <path d="M 181.583317 157.219395 
L 187.162924 152.869831 
L 176.46659 152.661782 
z
" clip-path="url(#p7ef94d531e)" style="fill: #185b89"/>
    <path d="M 218.76106 175.965124 
L 229.294747 184.529026 
L 224.099048 171.976715 
z
" clip-path="url(#p7ef94d531e)" style="fill: #103f5f"/>
    <path d="M 218.76106 175.965124 
L 224.099048 171.976715 
L 213.592578 166.113844 
z
" clip-path="url(#p7ef94d531e)" style="fill: #124467"/>
    <path d="M 203.060458 161.895823 
L 197.920298 154.380764 
L 192.45256 158.990547 
z
" clip-path="url(#p7ef94d531e)" style="fill: #154f78"/>
    <path d="M 192.45256 158.990547 
L 187.162924 152.869831 
L 181.583317 157.219395 
z
" clip-path="url(#p7ef94d531e)" style="fill: #16547f"/>
    <path d="M 170.841955 156.029378 
L 181.583317 157.219395 
L 176.46659 152.661782 
z
" clip-path="url(#p7ef94d531e)" style="fill: #165580"/>
    <path d="M 234.519435 199.833763 
L 229.294747 184.529026 
L 223.961308 186.537186 
z
" clip-path="url(#p7ef94d531e)" style="fill: #0e3753"/>
    <path d="M 208.185288 169.98166 
L 213.592578 166.113844 
L 203.060458 161.895823 
z
" clip-path="url(#p7ef94d531e)" style="fill: #13496e"/>
    <path d="M 218.76106 175.965124 
L 213.592578 166.113844 
L 208.185288 169.98166 
z
" clip-path="url(#p7ef94d531e)" style="fill: #124467"/>
    <path d="M 234.519435 199.833763 
L 229.194107 197.240152 
L 239.756108 223.200216 
z
" clip-path="url(#p7ef94d531e)" style="fill: #0d3049"/>
    <path d="M 223.961308 186.537186 
L 229.294747 184.529026 
L 218.76106 175.965124 
z
" clip-path="url(#p7ef94d531e)" style="fill: #103c5b"/>
    <path d="M 197.593347 165.742243 
L 203.060458 161.895823 
L 192.45256 158.990547 
z
" clip-path="url(#p7ef94d531e)" style="fill: #144e76"/>
    <path d="M 239.756108 223.200216 
L 242.464007 213.379649 
L 248.839365 224.939286 
z
" clip-path="url(#p7ef94d531e)" style="fill: #0f3957"/>
    <path d="M 186.913214 162.69832 
L 192.45256 158.990547 
L 181.583317 157.219395 
z
" clip-path="url(#p7ef94d531e)" style="fill: #16537e"/>
    <path d="M 197.593347 165.742243 
L 208.185288 169.98166 
L 203.060458 161.895823 
z
" clip-path="url(#p7ef94d531e)" style="fill: #13496e"/>
    <path d="M 170.841955 156.029378 
L 175.989879 160.22136 
L 181.583317 157.219395 
z
" clip-path="url(#p7ef94d531e)" style="fill: #16547f"/>
    <path d="M 234.519435 199.833763 
L 223.961308 186.537186 
L 229.194107 197.240152 
z
" clip-path="url(#p7ef94d531e)" style="fill: #0d334c"/>
    <path d="M 218.76106 175.965124 
L 208.185288 169.98166 
L 213.344977 178.409765 
z
" clip-path="url(#p7ef94d531e)" style="fill: #114263"/>
    <path d="M 197.593347 165.742243 
L 192.45256 158.990547 
L 186.913214 162.69832 
z
" clip-path="url(#p7ef94d531e)" style="fill: #144d75"/>
    <path d="M 223.961308 186.537186 
L 218.76106 175.965124 
L 213.344977 178.409765 
z
" clip-path="url(#p7ef94d531e)" style="fill: #103d5d"/>
    <path d="M 181.583317 157.219395 
L 175.989879 160.22136 
L 186.913214 162.69832 
z
" clip-path="url(#p7ef94d531e)" style="fill: #154f77"/>
    <path d="M 229.194107 197.240152 
L 233.73615 203.308217 
L 239.756108 223.200216 
z
" clip-path="url(#p7ef94d531e)" style="fill: #0b2b41"/>
    <path d="M 165.085859 157.268662 
L 175.989879 160.22136 
L 170.841955 156.029378 
z
" clip-path="url(#p7ef94d531e)" style="fill: #134b71"/>
    <path d="M 233.73615 203.308217 
L 242.464007 213.379649 
L 239.756108 223.200216 
z
" clip-path="url(#p7ef94d531e)" style="fill: #0e344f"/>
    <path d="M 202.697804 172.854501 
L 208.185288 169.98166 
L 197.593347 165.742243 
z
" clip-path="url(#p7ef94d531e)" style="fill: #13476c"/>
    <path d="M 248.839365 224.939286 
L 249.504271 213.460003 
L 258.003758 224.588393 
z
" clip-path="url(#p7ef94d531e)" style="fill: #103e5e"/>
    <path d="M 213.344977 178.409765 
L 208.185288 169.98166 
L 202.697804 172.854501 
z
" clip-path="url(#p7ef94d531e)" style="fill: #124366"/>
    <path d="M 223.961308 186.537186 
L 218.541233 186.669691 
L 229.194107 197.240152 
z
" clip-path="url(#p7ef94d531e)" style="fill: #0e3753"/>
    <path d="M 197.593347 165.742243 
L 186.913214 162.69832 
L 192.030732 168.728088 
z
" clip-path="url(#p7ef94d531e)" style="fill: #144c73"/>
    <path d="M 223.961308 186.537186 
L 213.344977 178.409765 
L 218.541233 186.669691 
z
" clip-path="url(#p7ef94d531e)" style="fill: #0f3a58"/>
    <path d="M 248.839365 224.939286 
L 242.464007 213.379649 
L 249.504271 213.460003 
z
" clip-path="url(#p7ef94d531e)" style="fill: #0f3854"/>
    <path d="M 202.697804 172.854501 
L 197.593347 165.742243 
L 192.030732 168.728088 
z
" clip-path="url(#p7ef94d531e)" style="fill: #13486d"/>
    <path d="M 186.913214 162.69832 
L 175.989879 160.22136 
L 181.251343 165.25356 
z
" clip-path="url(#p7ef94d531e)" style="fill: #144e76"/>
    <path d="M 170.187067 161.358592 
L 175.989879 160.22136 
L 165.085859 157.268662 
z
" clip-path="url(#p7ef94d531e)" style="fill: #134a70"/>
    <path d="M 258.003758 224.588393 
L 259.243301 216.185393 
L 267.274239 222.118469 
z
" clip-path="url(#p7ef94d531e)" style="fill: #124366"/>
    <path d="M 186.913214 162.69832 
L 181.251343 165.25356 
L 192.030732 168.728088 
z
" clip-path="url(#p7ef94d531e)" style="fill: #134a70"/>
    <path d="M 213.344977 178.409765 
L 202.697804 172.854501 
L 207.847781 179.984492 
z
" clip-path="url(#p7ef94d531e)" style="fill: #114263"/>
    <path d="M 213.344977 178.409765 
L 207.847781 179.984492 
L 218.541233 186.669691 
z
" clip-path="url(#p7ef94d531e)" style="fill: #103f5f"/>
    <path d="M 181.251343 165.25356 
L 175.989879 160.22136 
L 170.187067 161.358592 
z
" clip-path="url(#p7ef94d531e)" style="fill: #13476c"/>
    <path d="M 249.504271 213.460003 
L 259.243301 216.185393 
L 258.003758 224.588393 
z
" clip-path="url(#p7ef94d531e)" style="fill: #103e5e"/>
    <path d="M 218.541233 186.669691 
L 223.651619 193.619648 
L 229.194107 197.240152 
z
" clip-path="url(#p7ef94d531e)" style="fill: #0e3550"/>
    <path d="M 223.651619 193.619648 
L 233.73615 203.308217 
L 229.194107 197.240152 
z
" clip-path="url(#p7ef94d531e)" style="fill: #0e3550"/>
    <path d="M 202.697804 172.854501 
L 192.030732 168.728088 
L 197.126943 175.042022 
z
" clip-path="url(#p7ef94d531e)" style="fill: #12476b"/>
    <path d="M 159.180518 156.339045 
L 170.187067 161.358592 
L 165.085859 157.268662 
z
" clip-path="url(#p7ef94d531e)" style="fill: #114263"/>
    <path d="M 202.697804 172.854501 
L 197.126943 175.042022 
L 207.847781 179.984492 
z
" clip-path="url(#p7ef94d531e)" style="fill: #124467"/>
    <path d="M 238.796561 205.244389 
L 242.464007 213.379649 
L 233.73615 203.308217 
z
" clip-path="url(#p7ef94d531e)" style="fill: #0d324c"/>
    <path d="M 181.251343 165.25356 
L 186.339819 170.823453 
L 192.030732 168.728088 
z
" clip-path="url(#p7ef94d531e)" style="fill: #13496f"/>
    <path d="M 249.504271 213.460003 
L 242.464007 213.379649 
L 238.796561 205.244389 
z
" clip-path="url(#p7ef94d531e)" style="fill: #103c5a"/>
    <path d="M 207.847781 179.984492 
L 213.018269 186.567978 
L 218.541233 186.669691 
z
" clip-path="url(#p7ef94d531e)" style="fill: #103d5c"/>
    <path d="M 192.030732 168.728088 
L 186.339819 170.823453 
L 197.126943 175.042022 
z
" clip-path="url(#p7ef94d531e)" style="fill: #12476b"/>
    <path d="M 170.187067 161.358592 
L 175.451474 166.405793 
L 181.251343 165.25356 
z
" clip-path="url(#p7ef94d531e)" style="fill: #13476c"/>
    <path d="M 218.541233 186.669691 
L 213.018269 186.567978 
L 223.651619 193.619648 
z
" clip-path="url(#p7ef94d531e)" style="fill: #103c5b"/>
    <path d="M 267.274239 222.118469 
L 259.243301 216.185393 
L 267.276715 211.967468 
z
" clip-path="url(#p7ef94d531e)" style="fill: #114365"/>
    <path d="M 267.274239 222.118469 
L 267.276715 211.967468 
L 276.67681 217.48877 
z
" clip-path="url(#p7ef94d531e)" style="fill: #134a6f"/>
    <path d="M 175.451474 166.405793 
L 186.339819 170.823453 
L 181.251343 165.25356 
z
" clip-path="url(#p7ef94d531e)" style="fill: #124569"/>
    <path d="M 223.651619 193.619648 
L 228.558326 198.021641 
L 233.73615 203.308217 
z
" clip-path="url(#p7ef94d531e)" style="fill: #0e3550"/>
    <path d="M 197.126943 175.042022 
L 202.270837 181.272526 
L 207.847781 179.984492 
z
" clip-path="url(#p7ef94d531e)" style="fill: #114366"/>
    <path d="M 159.180518 156.339045 
L 164.458916 160.859417 
L 170.187067 161.358592 
z
" clip-path="url(#p7ef94d531e)" style="fill: #114263"/>
    <path d="M 233.73615 203.308217 
L 228.558326 198.021641 
L 238.796561 205.244389 
z
" clip-path="url(#p7ef94d531e)" style="fill: #0f3957"/>
    <path d="M 255.473385 209.349829 
L 259.243301 216.185393 
L 249.504271 213.460003 
z
" clip-path="url(#p7ef94d531e)" style="fill: #114061"/>
    <path d="M 202.270837 181.272526 
L 213.018269 186.567978 
L 207.847781 179.984492 
z
" clip-path="url(#p7ef94d531e)" style="fill: #114264"/>
    <path d="M 164.458916 160.859417 
L 175.451474 166.405793 
L 170.187067 161.358592 
z
" clip-path="url(#p7ef94d531e)" style="fill: #114061"/>
    <path d="M 197.126943 175.042022 
L 186.339819 170.823453 
L 191.472633 176.73608 
z
" clip-path="url(#p7ef94d531e)" style="fill: #12466a"/>
    <path d="M 213.018269 186.567978 
L 218.123702 191.93401 
L 223.651619 193.619648 
z
" clip-path="url(#p7ef94d531e)" style="fill: #0f3b59"/>
    <path d="M 249.504271 213.460003 
L 238.796561 205.244389 
L 244.742445 205.246173 
z
" clip-path="url(#p7ef94d531e)" style="fill: #0f3a58"/>
    <path d="M 197.126943 175.042022 
L 191.472633 176.73608 
L 202.270837 181.272526 
z
" clip-path="url(#p7ef94d531e)" style="fill: #124568"/>
    <path d="M 218.123702 191.93401 
L 228.558326 198.021641 
L 223.651619 193.619648 
z
" clip-path="url(#p7ef94d531e)" style="fill: #103d5c"/>
    <path d="M 180.628414 172.085307 
L 186.339819 170.823453 
L 175.451474 166.405793 
z
" clip-path="url(#p7ef94d531e)" style="fill: #124569"/>
    <path d="M 153.106837 153.187286 
L 164.458916 160.859417 
L 159.180518 156.339045 
z
" clip-path="url(#p7ef94d531e)" style="fill: #0f3a58"/>
    <path d="M 267.276715 211.967468 
L 259.243301 216.185393 
L 255.473385 209.349829 
z
" clip-path="url(#p7ef94d531e)" style="fill: #12466a"/>
    <path d="M 244.742445 205.246173 
L 255.473385 209.349829 
L 249.504271 213.460003 
z
" clip-path="url(#p7ef94d531e)" style="fill: #114264"/>
    <path d="M 191.472633 176.73608 
L 186.339819 170.823453 
L 180.628414 172.085307 
z
" clip-path="url(#p7ef94d531e)" style="fill: #124467"/>
    <path d="M 267.276715 211.967468 
L 277.744079 209.780914 
L 276.67681 217.48877 
z
" clip-path="url(#p7ef94d531e)" style="fill: #13496f"/>
    <path d="M 276.67681 217.48877 
L 277.744079 209.780914 
L 286.238781 210.646196 
z
" clip-path="url(#p7ef94d531e)" style="fill: #155079"/>
    <path d="M 207.45826 186.976643 
L 213.018269 186.567978 
L 202.270837 181.272526 
z
" clip-path="url(#p7ef94d531e)" style="fill: #114163"/>
    <path d="M 169.690048 166.371275 
L 175.451474 166.405793 
L 164.458916 160.859417 
z
" clip-path="url(#p7ef94d531e)" style="fill: #114162"/>
    <path d="M 238.796561 205.244389 
L 228.558326 198.021641 
L 234.013357 200.539686 
z
" clip-path="url(#p7ef94d531e)" style="fill: #0f3957"/>
    <path d="M 207.45826 186.976643 
L 218.123702 191.93401 
L 213.018269 186.567978 
z
" clip-path="url(#p7ef94d531e)" style="fill: #114264"/>
    <path d="M 180.628414 172.085307 
L 175.451474 166.405793 
L 169.690048 166.371275 
z
" clip-path="url(#p7ef94d531e)" style="fill: #114061"/>
    <path d="M 191.472633 176.73608 
L 196.61602 182.591232 
L 202.270837 181.272526 
z
" clip-path="url(#p7ef94d531e)" style="fill: #124568"/>
    <path d="M 238.796561 205.244389 
L 234.013357 200.539686 
L 244.742445 205.246173 
z
" clip-path="url(#p7ef94d531e)" style="fill: #114061"/>
    <path d="M 196.61602 182.591232 
L 207.45826 186.976643 
L 202.270837 181.272526 
z
" clip-path="url(#p7ef94d531e)" style="fill: #124568"/>
    <path d="M 223.543965 196.006295 
L 228.558326 198.021641 
L 218.123702 191.93401 
z
" clip-path="url(#p7ef94d531e)" style="fill: #103d5c"/>
    <path d="M 158.24664 158.421296 
L 164.458916 160.859417 
L 153.106837 153.187286 
z
" clip-path="url(#p7ef94d531e)" style="fill: #0f3b59"/>
    <path d="M 191.472633 176.73608 
L 180.628414 172.085307 
L 185.732931 178.08159 
z
" clip-path="url(#p7ef94d531e)" style="fill: #124467"/>
    <path d="M 169.690048 166.371275 
L 164.458916 160.859417 
L 158.24664 158.421296 
z
" clip-path="url(#p7ef94d531e)" style="fill: #0f3a58"/>
    <path d="M 234.013357 200.539686 
L 228.558326 198.021641 
L 223.543965 196.006295 
z
" clip-path="url(#p7ef94d531e)" style="fill: #114163"/>
    <path d="M 191.472633 176.73608 
L 185.732931 178.08159 
L 196.61602 182.591232 
z
" clip-path="url(#p7ef94d531e)" style="fill: #124568"/>
    <path d="M 255.473385 209.349829 
L 261.619213 205.805946 
L 267.276715 211.967468 
z
" clip-path="url(#p7ef94d531e)" style="fill: #12476b"/>
    <path d="M 212.690091 191.82758 
L 218.123702 191.93401 
L 207.45826 186.976643 
z
" clip-path="url(#p7ef94d531e)" style="fill: #114163"/>
    <path d="M 180.628414 172.085307 
L 169.690048 166.371275 
L 175.092458 172.694315 
z
" clip-path="url(#p7ef94d531e)" style="fill: #114162"/>
    <path d="M 273.017039 205.591543 
L 277.744079 209.780914 
L 267.276715 211.967468 
z
" clip-path="url(#p7ef94d531e)" style="fill: #144e75"/>
    <path d="M 286.238781 210.646196 
L 277.744079 209.780914 
L 285.561463 203.064895 
z
" clip-path="url(#p7ef94d531e)" style="fill: #155079"/>
    <path d="M 250.61318 204.198282 
L 255.473385 209.349829 
L 244.742445 205.246173 
z
" clip-path="url(#p7ef94d531e)" style="fill: #114264"/>
    <path d="M 223.543965 196.006295 
L 218.123702 191.93401 
L 212.690091 191.82758 
z
" clip-path="url(#p7ef94d531e)" style="fill: #124467"/>
    <path d="M 180.628414 172.085307 
L 175.092458 172.694315 
L 185.732931 178.08159 
z
" clip-path="url(#p7ef94d531e)" style="fill: #114163"/>
    <path d="M 196.61602 182.591232 
L 201.805574 188.038829 
L 207.45826 186.976643 
z
" clip-path="url(#p7ef94d531e)" style="fill: #124568"/>
    <path d="M 146.844186 147.746514 
L 158.24664 158.421296 
L 153.106837 153.187286 
z
" clip-path="url(#p7ef94d531e)" style="fill: #0e3550"/>
    <path d="M 286.238781 210.646196 
L 285.561463 203.064895 
L 295.989053 201.524429 
z
" clip-path="url(#p7ef94d531e)" style="fill: #175885"/>
    <path d="M 244.742445 205.246173 
L 234.013357 200.539686 
L 239.762435 201.656231 
z
" clip-path="url(#p7ef94d531e)" style="fill: #114162"/>
    <path d="M 267.276715 211.967468 
L 261.619213 205.805946 
L 273.017039 205.591543 
z
" clip-path="url(#p7ef94d531e)" style="fill: #144c73"/>
    <path d="M 201.805574 188.038829 
L 212.690091 191.82758 
L 207.45826 186.976643 
z
" clip-path="url(#p7ef94d531e)" style="fill: #12476b"/>
    <path d="M 250.61318 204.198282 
L 261.619213 205.805946 
L 255.473385 209.349829 
z
" clip-path="url(#p7ef94d531e)" style="fill: #13496e"/>
    <path d="M 185.732931 178.08159 
L 190.886414 184.177243 
L 196.61602 182.591232 
z
" clip-path="url(#p7ef94d531e)" style="fill: #124568"/>
    <path d="M 158.24664 158.421296 
L 163.380057 165.493118 
L 169.690048 166.371275 
z
" clip-path="url(#p7ef94d531e)" style="fill: #0f3b59"/>
    <path d="M 169.690048 166.371275 
L 163.380057 165.493118 
L 175.092458 172.694315 
z
" clip-path="url(#p7ef94d531e)" style="fill: #0f3b5a"/>
    <path d="M 228.876411 198.717433 
L 234.013357 200.539686 
L 223.543965 196.006295 
z
" clip-path="url(#p7ef94d531e)" style="fill: #114163"/>
    <path d="M 285.561463 203.064895 
L 277.744079 209.780914 
L 273.017039 205.591543 
z
" clip-path="url(#p7ef94d531e)" style="fill: #15517b"/>
    <path d="M 196.61602 182.591232 
L 190.886414 184.177243 
L 201.805574 188.038829 
z
" clip-path="url(#p7ef94d531e)" style="fill: #13476c"/>
    <path d="M 250.61318 204.198282 
L 244.742445 205.246173 
L 239.762435 201.656231 
z
" clip-path="url(#p7ef94d531e)" style="fill: #12476b"/>
    <path d="M 175.092458 172.694315 
L 180.092973 179.122878 
L 185.732931 178.08159 
z
" clip-path="url(#p7ef94d531e)" style="fill: #114263"/>
    <path d="M 217.972328 195.749733 
L 223.543965 196.006295 
L 212.690091 191.82758 
z
" clip-path="url(#p7ef94d531e)" style="fill: #124467"/>
    <path d="M 239.762435 201.656231 
L 234.013357 200.539686 
L 228.876411 198.717433 
z
" clip-path="url(#p7ef94d531e)" style="fill: #12476b"/>
    <path d="M 180.092973 179.122878 
L 190.886414 184.177243 
L 185.732931 178.08159 
z
" clip-path="url(#p7ef94d531e)" style="fill: #114366"/>
    <path d="M 146.844186 147.746514 
L 151.751543 154.154404 
L 158.24664 158.421296 
z
" clip-path="url(#p7ef94d531e)" style="fill: #0e3551"/>
    <path d="M 201.805574 188.038829 
L 207.042823 192.910313 
L 212.690091 191.82758 
z
" clip-path="url(#p7ef94d531e)" style="fill: #12476b"/>
    <path d="M 217.972328 195.749733 
L 228.876411 198.717433 
L 223.543965 196.006295 
z
" clip-path="url(#p7ef94d531e)" style="fill: #13486d"/>
    <path d="M 158.24664 158.421296 
L 151.751543 154.154404 
L 163.380057 165.493118 
z
" clip-path="url(#p7ef94d531e)" style="fill: #0e3550"/>
    <path d="M 285.561463 203.064895 
L 294.997538 197.695313 
L 295.989053 201.524429 
z
" clip-path="url(#p7ef94d531e)" style="fill: #175886"/>
    <path d="M 163.380057 165.493118 
L 171.120644 173.600788 
L 175.092458 172.694315 
z
" clip-path="url(#p7ef94d531e)" style="fill: #103c5a"/>
    <path d="M 175.092458 172.694315 
L 171.120644 173.600788 
L 180.092973 179.122878 
z
" clip-path="url(#p7ef94d531e)" style="fill: #103e5e"/>
    <path d="M 207.042823 192.910313 
L 217.972328 195.749733 
L 212.690091 191.82758 
z
" clip-path="url(#p7ef94d531e)" style="fill: #134a70"/>
    <path d="M 201.805574 188.038829 
L 190.886414 184.177243 
L 194.387946 189.895801 
z
" clip-path="url(#p7ef94d531e)" style="fill: #13486c"/>
    <path d="M 273.017039 205.591543 
L 261.619213 205.805946 
L 267.14026 202.423831 
z
" clip-path="url(#p7ef94d531e)" style="fill: #144e76"/>
    <path d="M 256.176171 202.553094 
L 261.619213 205.805946 
L 250.61318 204.198282 
z
" clip-path="url(#p7ef94d531e)" style="fill: #134a70"/>
    <path d="M 295.989053 201.524429 
L 294.997538 197.695313 
L 305.958438 190.042858 
z
" clip-path="url(#p7ef94d531e)" style="fill: #196193"/>
    <path d="M 180.092973 179.122878 
L 184.997043 184.957225 
L 190.886414 184.177243 
z
" clip-path="url(#p7ef94d531e)" style="fill: #124467"/>
    <path d="M 285.561463 203.064895 
L 273.017039 205.591543 
L 278.621564 200.907932 
z
" clip-path="url(#p7ef94d531e)" style="fill: #165580"/>
    <path d="M 245.238142 201.77657 
L 250.61318 204.198282 
L 239.762435 201.656231 
z
" clip-path="url(#p7ef94d531e)" style="fill: #13486c"/>
    <path d="M 201.805574 188.038829 
L 194.387946 189.895801 
L 207.042823 192.910313 
z
" clip-path="url(#p7ef94d531e)" style="fill: #144b71"/>
    <path d="M 234.316892 200.43595 
L 239.762435 201.656231 
L 228.876411 198.717433 
z
" clip-path="url(#p7ef94d531e)" style="fill: #13476c"/>
    <path d="M 190.886414 184.177243 
L 184.997043 184.957225 
L 194.387946 189.895801 
z
" clip-path="url(#p7ef94d531e)" style="fill: #12466a"/>
    <path d="M 140.37015 139.935028 
L 151.751543 154.154404 
L 146.844186 147.746514 
z
" clip-path="url(#p7ef94d531e)" style="fill: #0d314a"/>
    <path d="M 217.972328 195.749733 
L 223.544194 198.831536 
L 228.876411 198.717433 
z
" clip-path="url(#p7ef94d531e)" style="fill: #13496e"/>
    <path d="M 180.092973 179.122878 
L 171.120644 173.600788 
L 173.965896 180.1089 
z
" clip-path="url(#p7ef94d531e)" style="fill: #103f5f"/>
    <path d="M 162.986272 169.639109 
L 171.120644 173.600788 
L 163.380057 165.493118 
z
" clip-path="url(#p7ef94d531e)" style="fill: #0f3a58"/>
    <path d="M 267.14026 202.423831 
L 261.619213 205.805946 
L 256.176171 202.553094 
z
" clip-path="url(#p7ef94d531e)" style="fill: #144f77"/>
    <path d="M 289.944139 197.780778 
L 294.997538 197.695313 
L 285.561463 203.064895 
z
" clip-path="url(#p7ef94d531e)" style="fill: #185d8d"/>
    <path d="M 245.238142 201.77657 
L 256.176171 202.553094 
L 250.61318 204.198282 
z
" clip-path="url(#p7ef94d531e)" style="fill: #144d74"/>
    <path d="M 278.621564 200.907932 
L 273.017039 205.591543 
L 267.14026 202.423831 
z
" clip-path="url(#p7ef94d531e)" style="fill: #15517b"/>
    <path d="M 151.751543 154.154404 
L 153.718426 158.836677 
L 163.380057 165.493118 
z
" clip-path="url(#p7ef94d531e)" style="fill: #0e3651"/>
    <path d="M 173.965896 180.1089 
L 184.997043 184.957225 
L 180.092973 179.122878 
z
" clip-path="url(#p7ef94d531e)" style="fill: #114162"/>
    <path d="M 207.042823 192.910313 
L 212.884128 196.986461 
L 217.972328 195.749733 
z
" clip-path="url(#p7ef94d531e)" style="fill: #134a70"/>
    <path d="M 234.316892 200.43595 
L 245.238142 201.77657 
L 239.762435 201.656231 
z
" clip-path="url(#p7ef94d531e)" style="fill: #144d74"/>
    <path d="M 278.621564 200.907932 
L 289.944139 197.780778 
L 285.561463 203.064895 
z
" clip-path="url(#p7ef94d531e)" style="fill: #165681"/>
    <path d="M 223.544194 198.831536 
L 234.316892 200.43595 
L 228.876411 198.717433 
z
" clip-path="url(#p7ef94d531e)" style="fill: #144d75"/>
    <path d="M 194.387946 189.895801 
L 202.111682 195.423097 
L 207.042823 192.910313 
z
" clip-path="url(#p7ef94d531e)" style="fill: #144b72"/>
    <path d="M 163.380057 165.493118 
L 153.718426 158.836677 
L 162.986272 169.639109 
z
" clip-path="url(#p7ef94d531e)" style="fill: #0e3550"/>
    <path d="M 217.972328 195.749733 
L 212.884128 196.986461 
L 223.544194 198.831536 
z
" clip-path="url(#p7ef94d531e)" style="fill: #144e77"/>
    <path d="M 173.965896 180.1089 
L 171.120644 173.600788 
L 162.986272 169.639109 
z
" clip-path="url(#p7ef94d531e)" style="fill: #0f3a57"/>
    <path d="M 305.958438 190.042858 
L 294.997538 197.695313 
L 300.873503 193.797389 
z
" clip-path="url(#p7ef94d531e)" style="fill: #1b699f"/>
    <path d="M 194.387946 189.895801 
L 184.997043 184.957225 
L 183.286325 188.748957 
z
" clip-path="url(#p7ef94d531e)" style="fill: #13486d"/>
    <path d="M 202.111682 195.423097 
L 212.884128 196.986461 
L 207.042823 192.910313 
z
" clip-path="url(#p7ef94d531e)" style="fill: #155078"/>
    <path d="M 183.286325 188.748957 
L 184.997043 184.957225 
L 173.965896 180.1089 
z
" clip-path="url(#p7ef94d531e)" style="fill: #114263"/>
    <path d="M 140.37015 139.935028 
L 145.658708 148.038216 
L 151.751543 154.154404 
z
" clip-path="url(#p7ef94d531e)" style="fill: #0d314b"/>
    <path d="M 151.751543 154.154404 
L 145.658708 148.038216 
L 153.718426 158.836677 
z
" clip-path="url(#p7ef94d531e)" style="fill: #0d314b"/>
    <path d="M 300.873503 193.797389 
L 294.997538 197.695313 
L 289.944139 197.780778 
z
" clip-path="url(#p7ef94d531e)" style="fill: #185c8b"/>
    <path d="M 194.387946 189.895801 
L 191.908841 194.824981 
L 202.111682 195.423097 
z
" clip-path="url(#p7ef94d531e)" style="fill: #155079"/>
    <path d="M 183.286325 188.748957 
L 191.908841 194.824981 
L 194.387946 189.895801 
z
" clip-path="url(#p7ef94d531e)" style="fill: #13486d"/>
    <path d="M 245.238142 201.77657 
L 250.794895 201.070683 
L 256.176171 202.553094 
z
" clip-path="url(#p7ef94d531e)" style="fill: #144e76"/>
    <path d="M 261.948186 200.413612 
L 267.14026 202.423831 
L 256.176171 202.553094 
z
" clip-path="url(#p7ef94d531e)" style="fill: #155079"/>
    <path d="M 234.316892 200.43595 
L 239.662687 201.246166 
L 245.238142 201.77657 
z
" clip-path="url(#p7ef94d531e)" style="fill: #144d75"/>
    <path d="M 273.005061 199.207244 
L 278.621564 200.907932 
L 267.14026 202.423831 
z
" clip-path="url(#p7ef94d531e)" style="fill: #16547f"/>
    <path d="M 223.544194 198.831536 
L 228.718787 201.049072 
L 234.316892 200.43595 
z
" clip-path="url(#p7ef94d531e)" style="fill: #144e76"/>
    <path d="M 212.884128 196.986461 
L 217.806625 200.255235 
L 223.544194 198.831536 
z
" clip-path="url(#p7ef94d531e)" style="fill: #154f78"/>
    <path d="M 202.111682 195.423097 
L 208.061316 198.795579 
L 212.884128 196.986461 
z
" clip-path="url(#p7ef94d531e)" style="fill: #155079"/>
    <path d="M 162.869724 175.326104 
L 173.965896 180.1089 
L 162.986272 169.639109 
z
" clip-path="url(#p7ef94d531e)" style="fill: #0f3b59"/>
    <path d="M 183.286325 188.748957 
L 173.965896 180.1089 
L 172.42038 185.976606 
z
" clip-path="url(#p7ef94d531e)" style="fill: #114264"/>
    <path d="M 162.986272 169.639109 
L 153.718426 158.836677 
L 153.243831 162.417884 
z
" clip-path="url(#p7ef94d531e)" style="fill: #0e3551"/>
    <path d="M 284.247037 197.408142 
L 289.944139 197.780778 
L 278.621564 200.907932 
z
" clip-path="url(#p7ef94d531e)" style="fill: #175987"/>
    <path d="M 212.884128 196.986461 
L 208.061316 198.795579 
L 217.806625 200.255235 
z
" clip-path="url(#p7ef94d531e)" style="fill: #16537e"/>
    <path d="M 245.238142 201.77657 
L 239.662687 201.246166 
L 250.794895 201.070683 
z
" clip-path="url(#p7ef94d531e)" style="fill: #15527c"/>
    <path d="M 250.794895 201.070683 
L 261.948186 200.413612 
L 256.176171 202.553094 
z
" clip-path="url(#p7ef94d531e)" style="fill: #15527c"/>
    <path d="M 153.718426 158.836677 
L 145.658708 148.038216 
L 143.516345 147.211761 
z
" clip-path="url(#p7ef94d531e)" style="fill: #0d314a"/>
    <path d="M 223.544194 198.831536 
L 217.806625 200.255235 
L 228.718787 201.049072 
z
" clip-path="url(#p7ef94d531e)" style="fill: #16537e"/>
    <path d="M 228.718787 201.049072 
L 239.662687 201.246166 
L 234.316892 200.43595 
z
" clip-path="url(#p7ef94d531e)" style="fill: #16537d"/>
    <path d="M 300.873503 193.797389 
L 289.944139 197.780778 
L 295.776084 195.363758 
z
" clip-path="url(#p7ef94d531e)" style="fill: #196091"/>
    <path d="M 191.908841 194.824981 
L 200.248069 199.573215 
L 202.111682 195.423097 
z
" clip-path="url(#p7ef94d531e)" style="fill: #155079"/>
    <path d="M 261.948186 200.413612 
L 273.005061 199.207244 
L 267.14026 202.423831 
z
" clip-path="url(#p7ef94d531e)" style="fill: #16537d"/>
    <path d="M 172.42038 185.976606 
L 173.965896 180.1089 
L 162.869724 175.326104 
z
" clip-path="url(#p7ef94d531e)" style="fill: #0f3a58"/>
    <path d="M 200.248069 199.573215 
L 208.061316 198.795579 
L 202.111682 195.423097 
z
" clip-path="url(#p7ef94d531e)" style="fill: #165681"/>
    <path d="M 181.921711 194.397261 
L 191.908841 194.824981 
L 183.286325 188.748957 
z
" clip-path="url(#p7ef94d531e)" style="fill: #134b71"/>
    <path d="M 133.660232 129.65482 
L 145.658708 148.038216 
L 140.37015 139.935028 
z
" clip-path="url(#p7ef94d531e)" style="fill: #0c2f46"/>
    <path d="M 162.869724 175.326104 
L 162.986272 169.639109 
L 153.243831 162.417884 
z
" clip-path="url(#p7ef94d531e)" style="fill: #0e3550"/>
    <path d="M 273.005061 199.207244 
L 284.247037 197.408142 
L 278.621564 200.907932 
z
" clip-path="url(#p7ef94d531e)" style="fill: #165480"/>
    <path d="M 181.921711 194.397261 
L 183.286325 188.748957 
L 172.42038 185.976606 
z
" clip-path="url(#p7ef94d531e)" style="fill: #114263"/>
    <path d="M 153.243831 162.417884 
L 153.718426 158.836677 
L 143.516345 147.211761 
z
" clip-path="url(#p7ef94d531e)" style="fill: #0d314a"/>
    <path d="M 295.776084 195.363758 
L 289.944139 197.780778 
L 284.247037 197.408142 
z
" clip-path="url(#p7ef94d531e)" style="fill: #175784"/>
    <path d="M 217.806625 200.255235 
L 208.061316 198.795579 
L 209.707162 202.271292 
z
" clip-path="url(#p7ef94d531e)" style="fill: #165682"/>
    <path d="M 191.399426 200.603867 
L 200.248069 199.573215 
L 191.908841 194.824981 
z
" clip-path="url(#p7ef94d531e)" style="fill: #16547f"/>
    <path d="M 191.399426 200.603867 
L 191.908841 194.824981 
L 181.921711 194.397261 
z
" clip-path="url(#p7ef94d531e)" style="fill: #134b71"/>
    <path d="M 209.707162 202.271292 
L 208.061316 198.795579 
L 200.248069 199.573215 
z
" clip-path="url(#p7ef94d531e)" style="fill: #165682"/>
    <path d="M 143.516345 147.211761 
L 145.658708 148.038216 
L 133.660232 129.65482 
z
" clip-path="url(#p7ef94d531e)" style="fill: #0c2f46"/>
    <path d="M 228.718787 201.049072 
L 217.806625 200.255235 
L 221.388468 203.377748 
z
" clip-path="url(#p7ef94d531e)" style="fill: #165581"/>
    <path d="M 233.584491 202.152345 
L 239.662687 201.246166 
L 228.718787 201.049072 
z
" clip-path="url(#p7ef94d531e)" style="fill: #16537e"/>
    <path d="M 250.794895 201.070683 
L 239.662687 201.246166 
L 245.318842 200.662053 
z
" clip-path="url(#p7ef94d531e)" style="fill: #15527d"/>
    <path d="M 250.794895 201.070683 
L 256.585763 199.093851 
L 261.948186 200.413612 
z
" clip-path="url(#p7ef94d531e)" style="fill: #15527d"/>
    <path d="M 221.388468 203.377748 
L 217.806625 200.255235 
L 209.707162 202.271292 
z
" clip-path="url(#p7ef94d531e)" style="fill: #175986"/>
    <path d="M 200.879264 204.600227 
L 200.248069 199.573215 
L 191.399426 200.603867 
z
" clip-path="url(#p7ef94d531e)" style="fill: #165580"/>
    <path d="M 209.707162 202.271292 
L 200.248069 199.573215 
L 200.879264 204.600227 
z
" clip-path="url(#p7ef94d531e)" style="fill: #185b8a"/>
    <path d="M 261.948186 200.413612 
L 268.282765 197.307543 
L 273.005061 199.207244 
z
" clip-path="url(#p7ef94d531e)" style="fill: #16537e"/>
    <path d="M 279.295601 195.834918 
L 284.247037 197.408142 
L 273.005061 199.207244 
z
" clip-path="url(#p7ef94d531e)" style="fill: #165581"/>
    <path d="M 228.718787 201.049072 
L 221.388468 203.377748 
L 233.584491 202.152345 
z
" clip-path="url(#p7ef94d531e)" style="fill: #175a88"/>
    <path d="M 295.776084 195.363758 
L 284.247037 197.408142 
L 290.651932 194.699076 
z
" clip-path="url(#p7ef94d531e)" style="fill: #175783"/>
    <path d="M 245.318842 200.662053 
L 239.662687 201.246166 
L 233.584491 202.152345 
z
" clip-path="url(#p7ef94d531e)" style="fill: #175885"/>
    <path d="M 250.794895 201.070683 
L 245.318842 200.662053 
L 256.585763 199.093851 
z
" clip-path="url(#p7ef94d531e)" style="fill: #165682"/>
    <path d="M 256.585763 199.093851 
L 268.282765 197.307543 
L 261.948186 200.413612 
z
" clip-path="url(#p7ef94d531e)" style="fill: #165581"/>
    <path d="M 210.387222 206.378067 
L 209.707162 202.271292 
L 200.879264 204.600227 
z
" clip-path="url(#p7ef94d531e)" style="fill: #185c8c"/>
    <path d="M 210.387222 206.378067 
L 221.388468 203.377748 
L 209.707162 202.271292 
z
" clip-path="url(#p7ef94d531e)" style="fill: #185d8c"/>
    <path d="M 273.005061 199.207244 
L 268.282765 197.307543 
L 279.295601 195.834918 
z
" clip-path="url(#p7ef94d531e)" style="fill: #16547f"/>
    <path d="M 290.651932 194.699076 
L 284.247037 197.408142 
L 279.295601 195.834918 
z
" clip-path="url(#p7ef94d531e)" style="fill: #16537e"/>
    <path d="M 221.388468 203.377748 
L 228.459576 203.499106 
L 233.584491 202.152345 
z
" clip-path="url(#p7ef94d531e)" style="fill: #175986"/>
    <path d="M 219.949807 205.916782 
L 221.388468 203.377748 
L 210.387222 206.378067 
z
" clip-path="url(#p7ef94d531e)" style="fill: #185e8e"/>
    <path d="M 245.318842 200.662053 
L 233.584491 202.152345 
L 239.340134 200.765759 
z
" clip-path="url(#p7ef94d531e)" style="fill: #175783"/>
    <path d="M 245.318842 200.662053 
L 251.613366 197.755072 
L 256.585763 199.093851 
z
" clip-path="url(#p7ef94d531e)" style="fill: #165580"/>
    <path d="M 219.949807 205.916782 
L 228.459576 203.499106 
L 221.388468 203.377748 
z
" clip-path="url(#p7ef94d531e)" style="fill: #195f90"/>
    <path d="M 262.940153 194.942376 
L 268.282765 197.307543 
L 256.585763 199.093851 
z
" clip-path="url(#p7ef94d531e)" style="fill: #16547e"/>
    <path d="M 233.584491 202.152345 
L 228.459576 203.499106 
L 239.340134 200.765759 
z
" clip-path="url(#p7ef94d531e)" style="fill: #185d8d"/>
    <path d="M 268.282765 197.307543 
L 274.061381 192.931634 
L 279.295601 195.834918 
z
" clip-path="url(#p7ef94d531e)" style="fill: #16537d"/>
    <path d="M 290.651932 194.699076 
L 279.295601 195.834918 
L 285.486212 191.746783 
z
" clip-path="url(#p7ef94d531e)" style="fill: #15527b"/>
    <path d="M 239.340134 200.765759 
L 251.613366 197.755072 
L 245.318842 200.662053 
z
" clip-path="url(#p7ef94d531e)" style="fill: #185a89"/>
    <path d="M 251.613366 197.755072 
L 262.940153 194.942376 
L 256.585763 199.093851 
z
" clip-path="url(#p7ef94d531e)" style="fill: #175885"/>
    <path d="M 262.940153 194.942376 
L 274.061381 192.931634 
L 268.282765 197.307543 
z
" clip-path="url(#p7ef94d531e)" style="fill: #165580"/>
    <path d="M 229.594284 203.183011 
L 228.459576 203.499106 
L 219.949807 205.916782 
z
" clip-path="url(#p7ef94d531e)" style="fill: #185e8e"/>
    <path d="M 279.295601 195.834918 
L 274.061381 192.931634 
L 285.486212 191.746783 
z
" clip-path="url(#p7ef94d531e)" style="fill: #15527c"/>
    <path d="M 239.340134 200.765759 
L 228.459576 203.499106 
L 229.594284 203.183011 
z
" clip-path="url(#p7ef94d531e)" style="fill: #185d8c"/>
    <path d="M 239.340134 200.765759 
L 247.536774 196.119564 
L 251.613366 197.755072 
z
" clip-path="url(#p7ef94d531e)" style="fill: #175784"/>
    <path d="M 239.348951 198.130018 
L 239.340134 200.765759 
L 229.594284 203.183011 
z
" clip-path="url(#p7ef94d531e)" style="fill: #185d8c"/>
    <path d="M 258.226149 190.999206 
L 262.940153 194.942376 
L 251.613366 197.755072 
z
" clip-path="url(#p7ef94d531e)" style="fill: #165580"/>
    <path d="M 262.940153 194.942376 
L 269.404219 188.506459 
L 274.061381 192.931634 
z
" clip-path="url(#p7ef94d531e)" style="fill: #15527c"/>
    <path d="M 239.348951 198.130018 
L 247.536774 196.119564 
L 239.340134 200.765759 
z
" clip-path="url(#p7ef94d531e)" style="fill: #185c8b"/>
    <path d="M 285.486212 191.746783 
L 274.061381 192.931634 
L 280.263341 186.435557 
z
" clip-path="url(#p7ef94d531e)" style="fill: #154f78"/>
    <path d="M 251.613366 197.755072 
L 247.536774 196.119564 
L 258.226149 190.999206 
z
" clip-path="url(#p7ef94d531e)" style="fill: #175a88"/>
    <path d="M 258.226149 190.999206 
L 269.404219 188.506459 
L 262.940153 194.942376 
z
" clip-path="url(#p7ef94d531e)" style="fill: #165682"/>
    <path d="M 274.061381 192.931634 
L 269.404219 188.506459 
L 280.263341 186.435557 
z
" clip-path="url(#p7ef94d531e)" style="fill: #15527d"/>
    <path d="M 249.243429 190.696866 
L 247.536774 196.119564 
L 239.348951 198.130018 
z
" clip-path="url(#p7ef94d531e)" style="fill: #185b89"/>
    <path d="M 258.226149 190.999206 
L 247.536774 196.119564 
L 249.243429 190.696866 
z
" clip-path="url(#p7ef94d531e)" style="fill: #175784"/>
    <path d="M 258.226149 190.999206 
L 266.075173 183.043611 
L 269.404219 188.506459 
z
" clip-path="url(#p7ef94d531e)" style="fill: #16537e"/>
    <path d="M 280.263341 186.435557 
L 269.404219 188.506459 
L 274.966801 178.677957 
z
" clip-path="url(#p7ef94d531e)" style="fill: #154f78"/>
    <path d="M 259.308996 180.807367 
L 258.226149 190.999206 
L 249.243429 190.696866 
z
" clip-path="url(#p7ef94d531e)" style="fill: #175885"/>
    <path d="M 269.404219 188.506459 
L 266.075173 183.043611 
L 274.966801 178.677957 
z
" clip-path="url(#p7ef94d531e)" style="fill: #16547f"/>
    <path d="M 259.308996 180.807367 
L 266.075173 183.043611 
L 258.226149 190.999206 
z
" clip-path="url(#p7ef94d531e)" style="fill: #16547e"/>
    <path d="M 274.966801 178.677957 
L 266.075173 183.043611 
L 269.578938 168.368752 
z
" clip-path="url(#p7ef94d531e)" style="fill: #154f78"/>
    <path d="M 269.578938 168.368752 
L 266.075173 183.043611 
L 259.308996 180.807367 
z
" clip-path="url(#p7ef94d531e)" style="fill: #165682"/>
   </g>
  </g>
 </g>
 <defs>
  <clipPath id="p7ef94d531e">
   <rect x="103.104" y="41.472" width="266.112" height="266.112"/>
  </clipPath>
 </defs>
</svg>
