<?xml version="1.0" encoding="utf-8" standalone="no"?>
<!DOCTYPE svg PUBLIC "-//W3C//DTD SVG 1.1//EN"
  "http://www.w3.org/Graphics/SVG/1.1/DTD/svg11.dtd">
<svg xmlns:xlink="http://www.w3.org/1999/xlink" width="460.8pt" height="345.6pt" viewBox="0 0 460.8 345.6" xmlns="http://www.w3.org/2000/svg" version="1.1">
 <metadata>
  <rdf:RDF xmlns:dc="http://purl.org/dc/elements/1.1/" xmlns:cc="http://creativecommons.org/ns#" xmlns:rdf="http://www.w3.org/1999/02/22-rdf-syntax-ns#">
   <cc:Work>
    <dc:type rdf:resource="http://purl.org/dc/dcmitype/StillImage"/>
    <dc:date>2026-06-19T06:23:58.546497</dc:date>
    <dc:format>image/svg+xml</dc:format>
    <dc:creator>
     <cc:Agent>
      <dc:title>Matplotlib v3.11.0, https://matplotlib.org/</dc:title>
     </cc:Agent>
    </dc:creator>
   </cc:Work>
  </rdf:RDF>
 </metadata>
 <defs>
  <style type="text/css">*{stroke-linejoin: round; stroke-linecap: butt}</style>
 </defs>
 <g id="figure_1">
  <g id="patch_1">
   <path d="M 0 345.6 
L 460.8 345.6 
L 460.8 0 
L 0 0 
z
" style="fill: #ffffff"/>
  </g>
  <g id="axes_1">
   <g id="patch_2">
    <path d="M 57.6 307.584 
L 414.72 307.584 
L 414.72 41.472 
L 57.6 41.472 
z
" style="fill: #ffffff"/>
   </g>
   <g id="matplotlib.axis_1">
    <g id="xtick_1">
     <g id="line2d_1">
      <defs>
       <path id="m14646eb1d1" d="M 0 0 
L 0 3.5 
" style="stroke: #000000; stroke-width: 0.8"/>
      </defs>
      <g>
       <use xlink:href="#m14646eb1d1" x="57.6" y="307.584" style="stroke: #000000; stroke-width: 0.8"/>
      </g>
     </g>
     <g id="text_1">
      <!-- 0.0 -->
      <g transform="translate(49.648438 322.181656) scale(0.1 -0.1)">
       <defs>
        <path id="DejaVuSans-13" d="M 2034 4250 
Q 1547 4250 1301 3770 
Q 1056 3291 1056 2328 
Q 1056 1369 1301 889 
Q 1547 409 2034 409 
Q 2525 409 2770 889 
Q 3016 1369 3016 2328 
Q 3016 3291 2770 3770 
Q 2525 4250 2034 4250 
z
M 2034 4750 
Q 2819 4750 3233 4129 
Q 3647 3509 3647 2328 
Q 3647 1150 3233 529 
Q 2819 -91 2034 -91 
Q 1250 -91 836 529 
Q 422 1150 422 2328 
Q 422 3509 836 4129 
Q 1250 4750 2034 4750 
z
" transform="scale(0.015625)"/>
        <path id="DejaVuSans-11" d="M 684 794 
L 1344 794 
L 1344 0 
L 684 0 
L 684 794 
z
" transform="scale(0.015625)"/>
       </defs>
       <use xlink:href="#DejaVuSans-13"/>
       <use xlink:href="#DejaVuSans-11" transform="translate(63.625 0)"/>
       <use xlink:href="#DejaVuSans-13" transform="translate(95.40625 0)"/>
      </g>
     </g>
    </g>
    <g id="xtick_2">
     <g id="line2d_2">
      <g>
       <use xlink:href="#m14646eb1d1" x="129.024" y="307.584" style="stroke: #000000; stroke-width: 0.8"/>
      </g>
     </g>
     <g id="text_2">
      <!-- 0.2 -->
      <g transform="translate(121.072438 322.181656) scale(0.1 -0.1)">
       <defs>
        <path id="DejaVuSans-15" d="M 1228 531 
L 3431 531 
L 3431 0 
L 469 0 
L 469 531 
Q 828 903 1448 1529 
Q 2069 2156 2228 2338 
Q 2531 2678 2651 2914 
Q 2772 3150 2772 3378 
Q 2772 3750 2511 3984 
Q 2250 4219 1831 4219 
Q 1534 4219 1204 4116 
Q 875 4013 500 3803 
L 500 4441 
Q 881 4594 1212 4672 
Q 1544 4750 1819 4750 
Q 2544 4750 2975 4387 
Q 3406 4025 3406 3419 
Q 3406 3131 3298 2873 
Q 3191 2616 2906 2266 
Q 2828 2175 2409 1742 
Q 1991 1309 1228 531 
z
" transform="scale(0.015625)"/>
       </defs>
       <use xlink:href="#DejaVuSans-13"/>
       <use xlink:href="#DejaVuSans-11" transform="translate(63.625 0)"/>
       <use xlink:href="#DejaVuSans-15" transform="translate(95.40625 0)"/>
      </g>
     </g>
    </g>
    <g id="xtick_3">
     <g id="line2d_3">
      <g>
       <use xlink:href="#m14646eb1d1" x="200.448" y="307.584" style="stroke: #000000; stroke-width: 0.8"/>
      </g>
     </g>
     <g id="text_3">
      <!-- 0.4 -->
      <g transform="translate(192.496438 322.181656) scale(0.1 -0.1)">
       <defs>
        <path id="DejaVuSans-17" d="M 2419 4116 
L 825 1625 
L 2419 1625 
L 2419 4116 
z
M 2253 4666 
L 3047 4666 
L 3047 1625 
L 3713 1625 
L 3713 1100 
L 3047 1100 
L 3047 0 
L 2419 0 
L 2419 1100 
L 313 1100 
L 313 1709 
L 2253 4666 
z
" transform="scale(0.015625)"/>
       </defs>
       <use xlink:href="#DejaVuSans-13"/>
       <use xlink:href="#DejaVuSans-11" transform="translate(63.625 0)"/>
       <use xlink:href="#DejaVuSans-17" transform="translate(95.40625 0)"/>
      </g>
     </g>
    </g>
    <g id="xtick_4">
     <g id="line2d_4">
      <g>
       <use xlink:href="#m14646eb1d1" x="271.872" y="307.584" style="stroke: #000000; stroke-width: 0.8"/>
      </g>
     </g>
     <g id="text_4">
      <!-- 0.6 -->
      <g transform="translate(263.920438 322.181656) scale(0.1 -0.1)">
       <defs>
        <path id="DejaVuSans-19" d="M 2113 2584 
Q 1688 2584 1439 2293 
Q 1191 2003 1191 1497 
Q 1191 994 1439 701 
Q 1688 409 2113 409 
Q 2538 409 2786 701 
Q 3034 994 3034 1497 
Q 3034 2003 2786 2293 
Q 2538 2584 2113 2584 
z
M 3366 4563 
L 3366 3988 
Q 3128 4100 2886 4159 
Q 2644 4219 2406 4219 
Q 1781 4219 1451 3797 
Q 1122 3375 1075 2522 
Q 1259 2794 1537 2939 
Q 1816 3084 2150 3084 
Q 2853 3084 3261 2657 
Q 3669 2231 3669 1497 
Q 3669 778 3244 343 
Q 2819 -91 2113 -91 
Q 1303 -91 875 529 
Q 447 1150 447 2328 
Q 447 3434 972 4092 
Q 1497 4750 2381 4750 
Q 2619 4750 2861 4703 
Q 3103 4656 3366 4563 
z
" transform="scale(0.015625)"/>
       </defs>
       <use xlink:href="#DejaVuSans-13"/>
       <use xlink:href="#DejaVuSans-11" transform="translate(63.625 0)"/>
       <use xlink:href="#DejaVuSans-19" transform="translate(95.40625 0)"/>
      </g>
     </g>
    </g>
    <g id="xtick_5">
     <g id="line2d_5">
      <g>
       <use xlink:href="#m14646eb1d1" x="343.296" y="307.584" style="stroke: #000000; stroke-width: 0.8"/>
      </g>
     </g>
     <g id="text_5">
      <!-- 0.8 -->
      <g transform="translate(335.344438 322.181656) scale(0.1 -0.1)">
       <defs>
        <path id="DejaVuSans-1b" d="M 2034 2216 
Q 1584 2216 1326 1975 
Q 1069 1734 1069 1313 
Q 1069 891 1326 650 
Q 1584 409 2034 409 
Q 2484 409 2743 651 
Q 3003 894 3003 1313 
Q 3003 1734 2745 1975 
Q 2488 2216 2034 2216 
z
M 1403 2484 
Q 997 2584 770 2862 
Q 544 3141 544 3541 
Q 544 4100 942 4425 
Q 1341 4750 2034 4750 
Q 2731 4750 3128 4425 
Q 3525 4100 3525 3541 
Q 3525 3141 3298 2862 
Q 3072 2584 2669 2484 
Q 3125 2378 3379 2068 
Q 3634 1759 3634 1313 
Q 3634 634 3220 271 
Q 2806 -91 2034 -91 
Q 1263 -91 848 271 
Q 434 634 434 1313 
Q 434 1759 690 2068 
Q 947 2378 1403 2484 
z
M 1172 3481 
Q 1172 3119 1398 2916 
Q 1625 2713 2034 2713 
Q 2441 2713 2670 2916 
Q 2900 3119 2900 3481 
Q 2900 3844 2670 4047 
Q 2441 4250 2034 4250 
Q 1625 4250 1398 4047 
Q 1172 3844 1172 3481 
z
" transform="scale(0.015625)"/>
       </defs>
       <use xlink:href="#DejaVuSans-13"/>
       <use xlink:href="#DejaVuSans-11" transform="translate(63.625 0)"/>
       <use xlink:href="#DejaVuSans-1b" transform="translate(95.40625 0)"/>
      </g>
     </g>
    </g>
    <g id="xtick_6">
     <g id="line2d_6">
      <g>
       <use xlink:href="#m14646eb1d1" x="414.72" y="307.584" style="stroke: #000000; stroke-width: 0.8"/>
      </g>
     </g>
     <g id="text_6">
      <!-- 1.0 -->
      <g transform="translate(406.768438 322.181656) scale(0.1 -0.1)">
       <defs>
        <path id="DejaVuSans-14" d="M 794 531 
L 1825 531 
L 1825 4091 
L 703 3866 
L 703 4441 
L 1819 4666 
L 2450 4666 
L 2450 531 
L 3481 531 
L 3481 0 
L 794 0 
L 794 531 
z
" transform="scale(0.015625)"/>
       </defs>
       <use xlink:href="#DejaVuSans-14"/>
       <use xlink:href="#DejaVuSans-11" transform="translate(63.625 0)"/>
       <use xlink:href="#DejaVuSans-13" transform="translate(95.40625 0)"/>
      </g>
     </g>
    </g>
   </g>
   <g id="matplotlib.axis_2">
    <g id="ytick_1">
     <g id="line2d_7">
      <defs>
       <path id="me1e7365348" d="M 0 0 
L -3.5 0 
" style="stroke: #000000; stroke-width: 0.8"/>
      </defs>
      <g>
       <use xlink:href="#me1e7365348" x="57.6" y="307.584" style="stroke: #000000; stroke-width: 0.8"/>
      </g>
     </g>
     <g id="text_7">
      <!-- 0.0 -->
      <g transform="translate(34.696875 311.382828) scale(0.1 -0.1)">
       <use xlink:href="#DejaVuSans-13"/>
       <use xlink:href="#DejaVuSans-11" transform="translate(63.625 0)"/>
       <use xlink:href="#DejaVuSans-13" transform="translate(95.40625 0)"/>
      </g>
     </g>
    </g>
    <g id="ytick_2">
     <g id="line2d_8">
      <g>
       <use xlink:href="#me1e7365348" x="57.6" y="254.3616" style="stroke: #000000; stroke-width: 0.8"/>
      </g>
     </g>
     <g id="text_8">
      <!-- 0.2 -->
      <g transform="translate(34.696875 258.160428) scale(0.1 -0.1)">
       <use xlink:href="#DejaVuSans-13"/>
       <use xlink:href="#DejaVuSans-11" transform="translate(63.625 0)"/>
       <use xlink:href="#DejaVuSans-15" transform="translate(95.40625 0)"/>
      </g>
     </g>
    </g>
    <g id="ytick_3">
     <g id="line2d_9">
      <g>
       <use xlink:href="#me1e7365348" x="57.6" y="201.1392" style="stroke: #000000; stroke-width: 0.8"/>
      </g>
     </g>
     <g id="text_9">
      <!-- 0.4 -->
      <g transform="translate(34.696875 204.938028) scale(0.1 -0.1)">
       <use xlink:href="#DejaVuSans-13"/>
       <use xlink:href="#DejaVuSans-11" transform="translate(63.625 0)"/>
       <use xlink:href="#DejaVuSans-17" transform="translate(95.40625 0)"/>
      </g>
     </g>
    </g>
    <g id="ytick_4">
     <g id="line2d_10">
      <g>
       <use xlink:href="#me1e7365348" x="57.6" y="147.9168" style="stroke: #000000; stroke-width: 0.8"/>
      </g>
     </g>
     <g id="text_10">
      <!-- 0.6 -->
      <g transform="translate(34.696875 151.715628) scale(0.1 -0.1)">
       <use xlink:href="#DejaVuSans-13"/>
       <use xlink:href="#DejaVuSans-11" transform="translate(63.625 0)"/>
       <use xlink:href="#DejaVuSans-19" transform="translate(95.40625 0)"/>
      </g>
     </g>
    </g>
    <g id="ytick_5">
     <g id="line2d_11">
      <g>
       <use xlink:href="#me1e7365348" x="57.6" y="94.6944" style="stroke: #000000; stroke-width: 0.8"/>
      </g>
     </g>
     <g id="text_11">
      <!-- 0.8 -->
      <g transform="translate(34.696875 98.493228) scale(0.1 -0.1)">
       <use xlink:href="#DejaVuSans-13"/>
       <use xlink:href="#DejaVuSans-11" transform="translate(63.625 0)"/>
       <use xlink:href="#DejaVuSans-1b" transform="translate(95.40625 0)"/>
      </g>
     </g>
    </g>
    <g id="ytick_6">
     <g id="line2d_12">
      <g>
       <use xlink:href="#me1e7365348" x="57.6" y="41.472" style="stroke: #000000; stroke-width: 0.8"/>
      </g>
     </g>
     <g id="text_12">
      <!-- 1.0 -->
      <g transform="translate(34.696875 45.270828) scale(0.1 -0.1)">
       <use xlink:href="#DejaVuSans-14"/>
       <use xlink:href="#DejaVuSans-11" transform="translate(63.625 0)"/>
       <use xlink:href="#DejaVuSans-13" transform="translate(95.40625 0)"/>
      </g>
     </g>
    </g>
   </g>
   <g id="patch_3">
    <path d="M 57.6 307.584 
L 57.6 41.472 
" style="fill: none; stroke: #000000; stroke-width: 0.8; stroke-linejoin: miter; stroke-linecap: square"/>
   </g>
   <g id="patch_4">
    <path d="M 414.72 307.584 
L 414.72 41.472 
" style="fill: none; stroke: #000000; stroke-width: 0.8; stroke-linejoin: miter; stroke-linecap: square"/>
   </g>
   <g id="patch_5">
    <path d="M 57.6 307.584 
L 414.72 307.584 
" style="fill: none; stroke: #000000; stroke-width: 0.8; stroke-linejoin: miter; stroke-linecap: square"/>
   </g>
   <g id="patch_6">
    <path d="M 57.6 41.472 
L 414.72 41.472 
" style="fill: none; stroke: #000000; stroke-width: 0.8; stroke-linejoin: miter; stroke-linecap: square"/>
   </g>
  </g>
  <g id="patch_7">
   <path d="M 103.104 307.584 
L 369.216 307.584 
L 369.216 41.472 
L 103.104 41.472 
z
" style="fill: #ffffff"/>
  </g>
  <g id="pane3d_1">
   <g id="patch_8">
    <path d="M 123.197291 241.969309 
L 211.076164 168.307495 
L 209.854564 62.073991 
L 117.770234 129.272941 
" style="fill: #f2f2f2; opacity: 0.5; stroke: #f2f2f2; stroke-linejoin: miter"/>
   </g>
  </g>
  <g id="pane3d_2">
   <g id="patch_9">
    <path d="M 211.076164 168.307495 
L 352.090401 209.294766 
L 357.122702 99.402171 
L 209.854564 62.073991 
" style="fill: #e6e6e6; opacity: 0.5; stroke: #e6e6e6; stroke-linejoin: miter"/>
   </g>
  </g>
  <g id="pane3d_3">
   <g id="patch_10">
    <path d="M 123.197291 241.969309 
L 272.679269 290.790123 
L 352.090401 209.294766 
L 211.076164 168.307495 
" style="fill: #ececec; opacity: 0.5; stroke: #ececec; stroke-linejoin: miter"/>
   </g>
  </g>
  <g id="grid3d_1">
   <g id="Line3DCollection_1">
    <path d="M 132.250704 244.926154 
L 219.652219 170.800215 
L 218.79322 64.33968 
" style="fill: none; stroke: #b0b0b0; stroke-width: 0.8"/>
    <path d="M 163.746964 255.212832 
L 249.452008 179.461838 
L 249.870802 72.216941 
" style="fill: none; stroke: #b0b0b0; stroke-width: 0.8"/>
    <path d="M 195.967881 265.736184 
L 279.880048 188.306068 
L 281.632185 80.267526 
" style="fill: none; stroke: #b0b0b0; stroke-width: 0.8"/>
    <path d="M 228.938756 276.504471 
L 310.956419 197.338742 
L 314.100189 88.497218 
" style="fill: none; stroke: #b0b0b0; stroke-width: 0.8"/>
    <path d="M 262.686081 287.526347 
L 342.702063 206.565947 
L 347.298659 96.912062 
" style="fill: none; stroke: #b0b0b0; stroke-width: 0.8"/>
   </g>
  </g>
  <g id="grid3d_2">
   <g id="Line3DCollection_2">
    <path d="M 124.138093 124.625967 
L 129.252888 236.893387 
L 278.173905 285.151275 
" style="fill: none; stroke: #b0b0b0; stroke-width: 0.8"/>
    <path d="M 145.412445 109.100914 
L 149.507047 219.91595 
L 296.527502 266.315969 
" style="fill: none; stroke: #b0b0b0; stroke-width: 0.8"/>
    <path d="M 165.860779 94.178651 
L 169.008295 203.569617 
L 314.163547 248.217048 
" style="fill: none; stroke: #b0b0b0; stroke-width: 0.8"/>
    <path d="M 185.530286 79.824741 
L 187.797848 187.819842 
L 331.123312 230.812157 
" style="fill: none; stroke: #b0b0b0; stroke-width: 0.8"/>
    <path d="M 204.46463 66.007319 
L 205.913967 172.634551 
L 347.444965 214.062126 
" style="fill: none; stroke: #b0b0b0; stroke-width: 0.8"/>
   </g>
  </g>
  <g id="grid3d_3">
   <g id="Line3DCollection_3">
    <path d="M 352.186235 207.201991 
L 211.052852 166.280209 
L 123.09411 239.826686 
" style="fill: none; stroke: #b0b0b0; stroke-width: 0.8"/>
    <path d="M 353.120401 186.802183 
L 210.82571 146.527317 
L 122.087981 218.933772 
" style="fill: none; stroke: #b0b0b0; stroke-width: 0.8"/>
    <path d="M 354.070221 166.060536 
L 210.594944 126.459303 
L 121.064347 197.677349 
" style="fill: none; stroke: #b0b0b0; stroke-width: 0.8"/>
    <path d="M 355.036092 144.968386 
L 210.360466 106.068566 
L 120.022747 176.047848 
" style="fill: none; stroke: #b0b0b0; stroke-width: 0.8"/>
    <path d="M 356.018424 123.516772 
L 210.122188 85.347258 
L 118.962704 154.035358 
" style="fill: none; stroke: #b0b0b0; stroke-width: 0.8"/>
    <path d="M 357.017641 101.696426 
L 209.880015 64.287274 
L 117.883723 131.629618 
" style="fill: none; stroke: #b0b0b0; stroke-width: 0.8"/>
   </g>
  </g>
  <g id="axis3d_1">
   <g id="line2d_13">
    <path d="M 123.197291 241.969309 
L 272.679269 290.790123 
" style="fill: none; stroke: #000000; stroke-width: 0.8; stroke-linecap: square"/>
   </g>
   <g id="xtick_7">
    <g id="line2d_14">
     <path d="M 133.011792 244.280669 
L 130.725263 246.219892 
" style="fill: none; stroke: #000000; stroke-width: 0.8; stroke-linecap: square"/>
    </g>
    <g id="text_13">
     <!-- −1.0 -->
     <g transform="translate(112.580248 268.234521) scale(0.1 -0.1)">
      <defs>
       <path id="DejaVuSans-c9c" d="M 678 2272 
L 4684 2272 
L 4684 1741 
L 678 1741 
L 678 2272 
z
" transform="scale(0.015625)"/>
      </defs>
      <use xlink:href="#DejaVuSans-c9c"/>
      <use xlink:href="#DejaVuSans-14" transform="translate(83.796875 0)"/>
      <use xlink:href="#DejaVuSans-11" transform="translate(147.421875 0)"/>
      <use xlink:href="#DejaVuSans-13" transform="translate(179.203125 0)"/>
     </g>
    </g>
   </g>
   <g id="xtick_8">
    <g id="line2d_15">
     <path d="M 164.493968 254.552587 
L 162.249714 256.536187 
" style="fill: none; stroke: #000000; stroke-width: 0.8; stroke-linecap: square"/>
    </g>
    <g id="text_14">
     <!-- −0.5 -->
     <g transform="translate(144.108975 278.739225) scale(0.1 -0.1)">
      <defs>
       <path id="DejaVuSans-18" d="M 691 4666 
L 3169 4666 
L 3169 4134 
L 1269 4134 
L 1269 2991 
Q 1406 3038 1543 3061 
Q 1681 3084 1819 3084 
Q 2600 3084 3056 2656 
Q 3513 2228 3513 1497 
Q 3513 744 3044 326 
Q 2575 -91 1722 -91 
Q 1428 -91 1123 -41 
Q 819 9 494 109 
L 494 744 
Q 775 591 1075 516 
Q 1375 441 1709 441 
Q 2250 441 2565 725 
Q 2881 1009 2881 1497 
Q 2881 1984 2565 2268 
Q 2250 2553 1709 2553 
Q 1456 2553 1204 2497 
Q 953 2441 691 2322 
L 691 4666 
z
" transform="scale(0.015625)"/>
      </defs>
      <use xlink:href="#DejaVuSans-c9c"/>
      <use xlink:href="#DejaVuSans-13" transform="translate(83.796875 0)"/>
      <use xlink:href="#DejaVuSans-11" transform="translate(147.421875 0)"/>
      <use xlink:href="#DejaVuSans-18" transform="translate(179.203125 0)"/>
     </g>
    </g>
   </g>
   <g id="xtick_9">
    <g id="line2d_16">
     <path d="M 196.69995 265.060666 
L 194.500531 267.090184 
" style="fill: none; stroke: #000000; stroke-width: 0.8; stroke-linecap: square"/>
    </g>
    <g id="text_15">
     <!-- 0.0 -->
     <g transform="translate(180.555708 289.486537) scale(0.1 -0.1)">
      <use xlink:href="#DejaVuSans-13"/>
      <use xlink:href="#DejaVuSans-11" transform="translate(63.625 0)"/>
      <use xlink:href="#DejaVuSans-13" transform="translate(95.40625 0)"/>
     </g>
    </g>
   </g>
   <g id="xtick_10">
    <g id="line2d_17">
     <path d="M 229.654987 275.813145 
L 227.503114 277.890194 
" style="fill: none; stroke: #000000; stroke-width: 0.8; stroke-linecap: square"/>
    </g>
    <g id="text_16">
     <!-- 0.5 -->
     <g transform="translate(213.566281 300.48496) scale(0.1 -0.1)">
      <use xlink:href="#DejaVuSans-13"/>
      <use xlink:href="#DejaVuSans-11" transform="translate(63.625 0)"/>
      <use xlink:href="#DejaVuSans-18" transform="translate(95.40625 0)"/>
     </g>
    </g>
   </g>
   <g id="xtick_11">
    <g id="line2d_18">
     <path d="M 263.385522 286.818651 
L 261.284057 288.94492 
" style="fill: none; stroke: #000000; stroke-width: 0.8; stroke-linecap: square"/>
    </g>
    <g id="text_17">
     <!-- 1.0 -->
     <g transform="translate(247.357265 311.7434) scale(0.1 -0.1)">
      <use xlink:href="#DejaVuSans-14"/>
      <use xlink:href="#DejaVuSans-11" transform="translate(63.625 0)"/>
      <use xlink:href="#DejaVuSans-13" transform="translate(95.40625 0)"/>
     </g>
    </g>
   </g>
  </g>
  <g id="axis3d_2">
   <g id="line2d_19">
    <path d="M 352.090401 209.294766 
L 272.679269 290.790123 
" style="fill: none; stroke: #000000; stroke-width: 0.8; stroke-linecap: square"/>
   </g>
   <g id="xtick_12">
    <g id="line2d_20">
     <path d="M 276.918943 284.744604 
L 280.687074 285.965668 
" style="fill: none; stroke: #000000; stroke-width: 0.8; stroke-linecap: square"/>
    </g>
    <g id="text_18">
     <!-- −1.0 -->
     <g transform="translate(278.913132 306.172223) scale(0.1 -0.1)">
      <use xlink:href="#DejaVuSans-c9c"/>
      <use xlink:href="#DejaVuSans-14" transform="translate(83.796875 0)"/>
      <use xlink:href="#DejaVuSans-11" transform="translate(147.421875 0)"/>
      <use xlink:href="#DejaVuSans-13" transform="translate(179.203125 0)"/>
     </g>
    </g>
   </g>
   <g id="xtick_13">
    <g id="line2d_21">
     <path d="M 295.289808 265.925349 
L 299.006028 267.098198 
" style="fill: none; stroke: #000000; stroke-width: 0.8; stroke-linecap: square"/>
    </g>
    <g id="text_19">
     <!-- −0.5 -->
     <g transform="translate(297.020539 287.058077) scale(0.1 -0.1)">
      <use xlink:href="#DejaVuSans-c9c"/>
      <use xlink:href="#DejaVuSans-13" transform="translate(83.796875 0)"/>
      <use xlink:href="#DejaVuSans-11" transform="translate(147.421875 0)"/>
      <use xlink:href="#DejaVuSans-18" transform="translate(179.203125 0)"/>
     </g>
    </g>
   </g>
   <g id="xtick_14">
    <g id="line2d_22">
     <path d="M 312.942742 247.841548 
L 316.608191 248.968982 
" style="fill: none; stroke: #000000; stroke-width: 0.8; stroke-linecap: square"/>
    </g>
    <g id="text_20">
     <!-- 0.0 -->
     <g transform="translate(318.609453 268.691647) scale(0.1 -0.1)">
      <use xlink:href="#DejaVuSans-13"/>
      <use xlink:href="#DejaVuSans-11" transform="translate(63.625 0)"/>
      <use xlink:href="#DejaVuSans-13" transform="translate(95.40625 0)"/>
     </g>
    </g>
   </g>
   <g id="xtick_15">
    <g id="line2d_23">
     <path d="M 329.919023 230.450915 
L 333.534825 231.535522 
" style="fill: none; stroke: #000000; stroke-width: 0.8; stroke-linecap: square"/>
    </g>
    <g id="text_21">
     <!-- 0.5 -->
     <g transform="translate(335.340955 251.029903) scale(0.1 -0.1)">
      <use xlink:href="#DejaVuSans-13"/>
      <use xlink:href="#DejaVuSans-11" transform="translate(63.625 0)"/>
      <use xlink:href="#DejaVuSans-18" transform="translate(95.40625 0)"/>
     </g>
    </g>
   </g>
   <g id="xtick_16">
    <g id="line2d_24">
     <path d="M 346.256825 213.714346 
L 349.824086 214.758519 
" style="fill: none; stroke: #000000; stroke-width: 0.8; stroke-linecap: square"/>
    </g>
    <g id="text_22">
     <!-- 1.0 -->
     <g transform="translate(351.442585 234.03305) scale(0.1 -0.1)">
      <use xlink:href="#DejaVuSans-14"/>
      <use xlink:href="#DejaVuSans-11" transform="translate(63.625 0)"/>
      <use xlink:href="#DejaVuSans-13" transform="translate(95.40625 0)"/>
     </g>
    </g>
   </g>
  </g>
  <g id="axis3d_3">
   <g id="line2d_25">
    <path d="M 352.090401 209.294766 
L 357.122702 99.402171 
" style="fill: none; stroke: #000000; stroke-width: 0.8; stroke-linecap: square"/>
   </g>
   <g id="xtick_17">
    <g id="line2d_26">
     <path d="M 351.00169 206.85853 
L 354.558145 207.889729 
" style="fill: none; stroke: #000000; stroke-width: 0.8; stroke-linecap: square"/>
    </g>
    <g id="text_23">
     <!-- −0.10 -->
     <g transform="translate(355.127452 212.198714) scale(0.1 -0.1)">
      <use xlink:href="#DejaVuSans-c9c"/>
      <use xlink:href="#DejaVuSans-13" transform="translate(83.796875 0)"/>
      <use xlink:href="#DejaVuSans-11" transform="translate(147.421875 0)"/>
      <use xlink:href="#DejaVuSans-14" transform="translate(179.203125 0)"/>
      <use xlink:href="#DejaVuSans-13" transform="translate(242.828125 0)"/>
     </g>
    </g>
   </g>
   <g id="xtick_18">
    <g id="line2d_27">
     <path d="M 351.925645 186.464021 
L 355.512782 187.479318 
" style="fill: none; stroke: #000000; stroke-width: 0.8; stroke-linecap: square"/>
    </g>
    <g id="text_24">
     <!-- −0.08 -->
     <g transform="translate(356.210085 191.839083) scale(0.1 -0.1)">
      <use xlink:href="#DejaVuSans-c9c"/>
      <use xlink:href="#DejaVuSans-13" transform="translate(83.796875 0)"/>
      <use xlink:href="#DejaVuSans-11" transform="translate(147.421875 0)"/>
      <use xlink:href="#DejaVuSans-13" transform="translate(179.203125 0)"/>
      <use xlink:href="#DejaVuSans-1b" transform="translate(242.828125 0)"/>
     </g>
    </g>
   </g>
   <g id="xtick_19">
    <g id="line2d_28">
     <path d="M 352.865076 165.727898 
L 356.483429 166.726616 
" style="fill: none; stroke: #000000; stroke-width: 0.8; stroke-linecap: square"/>
    </g>
    <g id="text_25">
     <!-- −0.06 -->
     <g transform="translate(357.310804 171.139327) scale(0.1 -0.1)">
      <use xlink:href="#DejaVuSans-c9c"/>
      <use xlink:href="#DejaVuSans-13" transform="translate(83.796875 0)"/>
      <use xlink:href="#DejaVuSans-11" transform="translate(147.421875 0)"/>
      <use xlink:href="#DejaVuSans-13" transform="translate(179.203125 0)"/>
      <use xlink:href="#DejaVuSans-19" transform="translate(242.828125 0)"/>
     </g>
    </g>
   </g>
   <g id="xtick_20">
    <g id="line2d_29">
     <path d="M 353.820376 144.641509 
L 357.470492 145.622938 
" style="fill: none; stroke: #000000; stroke-width: 0.8; stroke-linecap: square"/>
    </g>
    <g id="text_26">
     <!-- −0.04 -->
     <g transform="translate(358.430066 150.090851) scale(0.1 -0.1)">
      <use xlink:href="#DejaVuSans-c9c"/>
      <use xlink:href="#DejaVuSans-13" transform="translate(83.796875 0)"/>
      <use xlink:href="#DejaVuSans-11" transform="translate(147.421875 0)"/>
      <use xlink:href="#DejaVuSans-13" transform="translate(179.203125 0)"/>
      <use xlink:href="#DejaVuSans-17" transform="translate(242.828125 0)"/>
     </g>
    </g>
   </g>
   <g id="xtick_21">
    <g id="line2d_30">
     <path d="M 354.79195 123.1959 
L 358.474391 124.159304 
" style="fill: none; stroke: #000000; stroke-width: 0.8; stroke-linecap: square"/>
    </g>
    <g id="text_27">
     <!-- −0.02 -->
     <g transform="translate(359.568345 128.68477) scale(0.1 -0.1)">
      <use xlink:href="#DejaVuSans-c9c"/>
      <use xlink:href="#DejaVuSans-13" transform="translate(83.796875 0)"/>
      <use xlink:href="#DejaVuSans-11" transform="translate(147.421875 0)"/>
      <use xlink:href="#DejaVuSans-13" transform="translate(179.203125 0)"/>
      <use xlink:href="#DejaVuSans-15" transform="translate(242.828125 0)"/>
     </g>
    </g>
   </g>
   <g id="xtick_22">
    <g id="line2d_31">
     <path d="M 355.780217 101.381816 
L 359.495561 102.326427 
" style="fill: none; stroke: #000000; stroke-width: 0.8; stroke-linecap: square"/>
    </g>
    <g id="text_28">
     <!-- 0.00 -->
     <g transform="translate(364.915971 106.91189) scale(0.1 -0.1)">
      <use xlink:href="#DejaVuSans-13"/>
      <use xlink:href="#DejaVuSans-11" transform="translate(63.625 0)"/>
      <use xlink:href="#DejaVuSans-13" transform="translate(95.40625 0)"/>
      <use xlink:href="#DejaVuSans-13" transform="translate(159.03125 0)"/>
     </g>
    </g>
   </g>
  </g>
  <g id="axes_2">
   <g id="Poly3DCollection_1">
    <path d="M 257.703021 206.676397 
L 244.62166 78.506375 
L 226.758468 197.411543 
z
" clip-path="url(#p122e07916d)" style="fill: #196092"/>
    <path d="M 226.758468 197.411543 
L 244.62166 78.506375 
L 213.457742 70.524826 
z
" clip-path="url(#p122e07916d)" style="fill: #196092"/>
    <path d="M 239.756108 223.200216 
L 257.703021 206.676397 
L 226.758468 197.411543 
z
" clip-path="url(#p122e07916d)" style="fill: #185b8a"/>
    <path d="M 194.650765 84.460805 
L 226.758468 197.411543 
L 213.457742 70.524826 
z
" clip-path="url(#p122e07916d)" style="fill: #165681"/>
    <path d="M 208.423304 213.582786 
L 239.756108 223.200216 
L 226.758468 197.411543 
z
" clip-path="url(#p122e07916d)" style="fill: #185b8a"/>
    <path d="M 208.423304 213.582786 
L 226.758468 197.411543 
L 194.650765 84.460805 
z
" clip-path="url(#p122e07916d)" style="fill: #165681"/>
    <path d="M 289.323674 216.133012 
L 276.474506 86.664368 
L 257.703021 206.676397 
z
" clip-path="url(#p122e07916d)" style="fill: #196092"/>
    <path d="M 257.703021 206.676397 
L 276.474506 86.664368 
L 244.62166 78.506375 
z
" clip-path="url(#p122e07916d)" style="fill: #196092"/>
    <path d="M 289.323674 216.133012 
L 257.703021 206.676397 
L 271.786614 233.025335 
z
" clip-path="url(#p122e07916d)" style="fill: #185b8a"/>
    <path d="M 271.786614 233.025335 
L 257.703021 206.676397 
L 239.756108 223.200216 
z
" clip-path="url(#p122e07916d)" style="fill: #185b8a"/>
    <path d="M 221.111323 240.360049 
L 239.756108 223.200216 
L 208.423304 213.582786 
z
" clip-path="url(#p122e07916d)" style="fill: #185b8a"/>
    <path d="M 175.111829 98.939166 
L 208.423304 213.582786 
L 194.650765 84.460805 
z
" clip-path="url(#p122e07916d)" style="fill: #165681"/>
    <path d="M 289.323674 216.133012 
L 309.03938 95.004723 
L 276.474506 86.664368 
z
" clip-path="url(#p122e07916d)" style="fill: #196092"/>
    <path d="M 221.111323 240.360049 
L 208.423304 213.582786 
L 189.382946 230.36509 
z
" clip-path="url(#p122e07916d)" style="fill: #185b8a"/>
    <path d="M 189.382946 230.36509 
L 208.423304 213.582786 
L 175.111829 98.939166 
z
" clip-path="url(#p122e07916d)" style="fill: #165681"/>
    <path d="M 253.560021 250.57104 
L 271.786614 233.025335 
L 239.756108 223.200216 
z
" clip-path="url(#p122e07916d)" style="fill: #185b8a"/>
    <path d="M 221.111323 240.360049 
L 253.560021 250.57104 
L 239.756108 223.200216 
z
" clip-path="url(#p122e07916d)" style="fill: #185b8a"/>
    <path d="M 325.239763 118.771404 
L 309.03938 95.004723 
L 289.323674 216.133012 
z
" clip-path="url(#p122e07916d)" style="fill: #1a6599"/>
    <path d="M 154.797355 113.992202 
L 189.382946 230.36509 
L 175.111829 98.939166 
z
" clip-path="url(#p122e07916d)" style="fill: #165681"/>
    <path d="M 307.442231 134.630141 
L 289.323674 216.133012 
L 271.786614 233.025335 
z
" clip-path="url(#p122e07916d)" style="fill: #196092"/>
    <path d="M 325.239763 118.771404 
L 342.340426 103.533622 
L 309.03938 95.004723 
z
" clip-path="url(#p122e07916d)" style="fill: #185b8a"/>
    <path d="M 307.442231 134.630141 
L 325.239763 118.771404 
L 289.323674 216.133012 
z
" clip-path="url(#p122e07916d)" style="fill: #196092"/>
    <path d="M 199.992646 148.548382 
L 221.111323 240.360049 
L 189.382946 230.36509 
z
" clip-path="url(#p122e07916d)" style="fill: #165681"/>
    <path d="M 166.434137 138.989861 
L 189.382946 230.36509 
L 154.797355 113.992202 
z
" clip-path="url(#p122e07916d)" style="fill: #155079"/>
    <path d="M 288.904349 151.148578 
L 271.786614 233.025335 
L 253.560021 250.57104 
z
" clip-path="url(#p122e07916d)" style="fill: #196092"/>
    <path d="M 234.364274 158.338506 
L 253.560021 250.57104 
L 221.111323 240.360049 
z
" clip-path="url(#p122e07916d)" style="fill: #165681"/>
    <path d="M 166.434137 138.989861 
L 199.992646 148.548382 
L 189.382946 230.36509 
z
" clip-path="url(#p122e07916d)" style="fill: #165681"/>
    <path d="M 288.904349 151.148578 
L 307.442231 134.630141 
L 271.786614 233.025335 
z
" clip-path="url(#p122e07916d)" style="fill: #196092"/>
    <path d="M 133.660232 129.65482 
L 166.434137 138.989861 
L 154.797355 113.992202 
z
" clip-path="url(#p122e07916d)" style="fill: #185b8a"/>
    <path d="M 199.992646 148.548382 
L 234.364274 158.338506 
L 221.111323 240.360049 
z
" clip-path="url(#p122e07916d)" style="fill: #165681"/>
    <path d="M 269.578938 168.368752 
L 288.904349 151.148578 
L 253.560021 250.57104 
z
" clip-path="url(#p122e07916d)" style="fill: #196092"/>
    <path d="M 234.364274 158.338506 
L 269.578938 168.368752 
L 253.560021 250.57104 
z
" clip-path="url(#p122e07916d)" style="fill: #165681"/>
   </g>
  </g>
 </g>
 <defs>
  <clipPath id="p122e07916d">
   <rect x="103.104" y="41.472" width="266.112" height="266.112"/>
  </clipPath>
 </defs>
</svg>
