<?xml version="1.0" encoding="utf-8" standalone="no"?>
<!DOCTYPE svg PUBLIC "-//W3C//DTD SVG 1.1//EN"
  "http://www.w3.org/Graphics/SVG/1.1/DTD/svg11.dtd">
<svg xmlns:xlink="http://www.w3.org/1999/xlink" width="460.8pt" height="345.6pt" viewBox="0 0 460.8 345.6" xmlns="http://www.w3.org/2000/svg" version="1.1">
 <metadata>
  <rdf:RDF xmlns:dc="http://purl.org/dc/elements/1.1/" xmlns:cc="http://creativecommons.org/ns#" xmlns:rdf="http://www.w3.org/1999/02/22-rdf-syntax-ns#">
   <cc:Work>
    <dc:type rdf:resource="http://purl.org/dc/dcmitype/StillImage"/>
    <dc:date>2026-07-17T04:51:59.587418</dc:date>
    <dc:format>image/svg+xml</dc:format>
    <dc:creator>
     <cc:Agent>
      <dc:title>Matplotlib v3.11.0, https://matplotlib.org/</dc:title>
     </cc:Agent>
    </dc:creator>
   </cc:Work>
  </rdf:RDF>
 </metadata>
 <defs>
  <style type="text/css">*{stroke-linejoin: round; stroke-linecap: butt}</style>
 </defs>
 <g id="figure_1">
  <g id="patch_1">
   <path d="M 0 345.6 
L 460.8 345.6 
L 460.8 0 
L 0 0 
z
" style="fill: #ffffff"/>
  </g>
  <g id="patch_2">
   <path d="M 103.104 307.584 
L 369.216 307.584 
L 369.216 41.472 
L 103.104 41.472 
z
" style="fill: #ffffff"/>
  </g>
  <g id="pane3d_1">
   <g id="patch_3">
    <path d="M 123.197291 241.969309 
L 211.076164 168.307495 
L 209.854564 62.073991 
L 117.770234 129.272941 
" style="fill: #f2f2f2; opacity: 0.5; stroke: #f2f2f2; stroke-linejoin: miter"/>
   </g>
  </g>
  <g id="pane3d_2">
   <g id="patch_4">
    <path d="M 211.076164 168.307495 
L 352.090401 209.294766 
L 357.122702 99.402171 
L 209.854564 62.073991 
" style="fill: #e6e6e6; opacity: 0.5; stroke: #e6e6e6; stroke-linejoin: miter"/>
   </g>
  </g>
  <g id="pane3d_3">
   <g id="patch_5">
    <path d="M 123.197291 241.969309 
L 272.679269 290.790123 
L 352.090401 209.294766 
L 211.076164 168.307495 
" style="fill: #ececec; opacity: 0.5; stroke: #ececec; stroke-linejoin: miter"/>
   </g>
  </g>
  <g id="grid3d_1">
   <g id="Line3DCollection_1">
    <path d="M 132.250704 244.926154 
L 219.652219 170.800215 
L 218.79322 64.33968 
" style="fill: none; stroke: #b0b0b0; stroke-width: 0.8"/>
    <path d="M 163.746964 255.212832 
L 249.452008 179.461838 
L 249.870802 72.216941 
" style="fill: none; stroke: #b0b0b0; stroke-width: 0.8"/>
    <path d="M 195.967881 265.736184 
L 279.880048 188.306068 
L 281.632185 80.267526 
" style="fill: none; stroke: #b0b0b0; stroke-width: 0.8"/>
    <path d="M 228.938756 276.504471 
L 310.956419 197.338742 
L 314.100189 88.497218 
" style="fill: none; stroke: #b0b0b0; stroke-width: 0.8"/>
    <path d="M 262.686081 287.526347 
L 342.702063 206.565947 
L 347.298659 96.912062 
" style="fill: none; stroke: #b0b0b0; stroke-width: 0.8"/>
   </g>
  </g>
  <g id="grid3d_2">
   <g id="Line3DCollection_2">
    <path d="M 124.138093 124.625967 
L 129.252888 236.893387 
L 278.173905 285.151275 
" style="fill: none; stroke: #b0b0b0; stroke-width: 0.8"/>
    <path d="M 145.412445 109.100914 
L 149.507047 219.91595 
L 296.527502 266.315969 
" style="fill: none; stroke: #b0b0b0; stroke-width: 0.8"/>
    <path d="M 165.860779 94.178651 
L 169.008295 203.569617 
L 314.163547 248.217048 
" style="fill: none; stroke: #b0b0b0; stroke-width: 0.8"/>
    <path d="M 185.530286 79.824741 
L 187.797848 187.819842 
L 331.123312 230.812157 
" style="fill: none; stroke: #b0b0b0; stroke-width: 0.8"/>
    <path d="M 204.46463 66.007319 
L 205.913967 172.634551 
L 347.444965 214.062126 
" style="fill: none; stroke: #b0b0b0; stroke-width: 0.8"/>
   </g>
  </g>
  <g id="grid3d_3">
   <g id="Line3DCollection_3">
    <path d="M 352.651741 197.036515 
L 210.939642 156.435163 
L 122.592822 229.417124 
" style="fill: none; stroke: #b0b0b0; stroke-width: 0.8"/>
    <path d="M 353.593659 176.467433 
L 210.710705 136.526212 
L 121.578026 208.34422 
" style="fill: none; stroke: #b0b0b0; stroke-width: 0.8"/>
    <path d="M 354.551427 155.552235 
L 210.478101 116.298387 
L 120.545497 186.903085 
" style="fill: none; stroke: #b0b0b0; stroke-width: 0.8"/>
    <path d="M 355.525448 134.282114 
L 210.241742 95.743967 
L 119.494766 165.083984 
" style="fill: none; stroke: #b0b0b0; stroke-width: 0.8"/>
    <path d="M 356.516139 112.647956 
L 210.001535 74.854977 
L 118.425349 142.876832 
" style="fill: none; stroke: #b0b0b0; stroke-width: 0.8"/>
   </g>
  </g>
  <g id="axis3d_1">
   <g id="line2d_1">
    <path d="M 123.197291 241.969309 
L 272.679269 290.790123 
" style="fill: none; stroke: #000000; stroke-width: 0.8; stroke-linecap: square"/>
   </g>
   <g id="xtick_1">
    <g id="line2d_2">
     <path d="M 133.011792 244.280669 
L 130.725263 246.219892 
" style="fill: none; stroke: #000000; stroke-width: 0.8; stroke-linecap: square"/>
    </g>
    <g id="text_1">
     <!-- −1.0 -->
     <g transform="translate(112.580248 268.234521) scale(0.1 -0.1)">
      <defs>
       <path id="DejaVuSans-c9c" d="M 678 2272 
L 4684 2272 
L 4684 1741 
L 678 1741 
L 678 2272 
z
" transform="scale(0.015625)"/>
       <path id="DejaVuSans-14" d="M 794 531 
L 1825 531 
L 1825 4091 
L 703 3866 
L 703 4441 
L 1819 4666 
L 2450 4666 
L 2450 531 
L 3481 531 
L 3481 0 
L 794 0 
L 794 531 
z
" transform="scale(0.015625)"/>
       <path id="DejaVuSans-11" d="M 684 794 
L 1344 794 
L 1344 0 
L 684 0 
L 684 794 
z
" transform="scale(0.015625)"/>
       <path id="DejaVuSans-13" d="M 2034 4250 
Q 1547 4250 1301 3770 
Q 1056 3291 1056 2328 
Q 1056 1369 1301 889 
Q 1547 409 2034 409 
Q 2525 409 2770 889 
Q 3016 1369 3016 2328 
Q 3016 3291 2770 3770 
Q 2525 4250 2034 4250 
z
M 2034 4750 
Q 2819 4750 3233 4129 
Q 3647 3509 3647 2328 
Q 3647 1150 3233 529 
Q 2819 -91 2034 -91 
Q 1250 -91 836 529 
Q 422 1150 422 2328 
Q 422 3509 836 4129 
Q 1250 4750 2034 4750 
z
" transform="scale(0.015625)"/>
      </defs>
      <use xlink:href="#DejaVuSans-c9c"/>
      <use xlink:href="#DejaVuSans-14" transform="translate(83.796875 0)"/>
      <use xlink:href="#DejaVuSans-11" transform="translate(147.421875 0)"/>
      <use xlink:href="#DejaVuSans-13" transform="translate(179.203125 0)"/>
     </g>
    </g>
   </g>
   <g id="xtick_2">
    <g id="line2d_3">
     <path d="M 164.493968 254.552587 
L 162.249714 256.536187 
" style="fill: none; stroke: #000000; stroke-width: 0.8; stroke-linecap: square"/>
    </g>
    <g id="text_2">
     <!-- −0.5 -->
     <g transform="translate(144.108975 278.739225) scale(0.1 -0.1)">
      <defs>
       <path id="DejaVuSans-18" d="M 691 4666 
L 3169 4666 
L 3169 4134 
L 1269 4134 
L 1269 2991 
Q 1406 3038 1543 3061 
Q 1681 3084 1819 3084 
Q 2600 3084 3056 2656 
Q 3513 2228 3513 1497 
Q 3513 744 3044 326 
Q 2575 -91 1722 -91 
Q 1428 -91 1123 -41 
Q 819 9 494 109 
L 494 744 
Q 775 591 1075 516 
Q 1375 441 1709 441 
Q 2250 441 2565 725 
Q 2881 1009 2881 1497 
Q 2881 1984 2565 2268 
Q 2250 2553 1709 2553 
Q 1456 2553 1204 2497 
Q 953 2441 691 2322 
L 691 4666 
z
" transform="scale(0.015625)"/>
      </defs>
      <use xlink:href="#DejaVuSans-c9c"/>
      <use xlink:href="#DejaVuSans-13" transform="translate(83.796875 0)"/>
      <use xlink:href="#DejaVuSans-11" transform="translate(147.421875 0)"/>
      <use xlink:href="#DejaVuSans-18" transform="translate(179.203125 0)"/>
     </g>
    </g>
   </g>
   <g id="xtick_3">
    <g id="line2d_4">
     <path d="M 196.69995 265.060666 
L 194.500531 267.090184 
" style="fill: none; stroke: #000000; stroke-width: 0.8; stroke-linecap: square"/>
    </g>
    <g id="text_3">
     <!-- 0.0 -->
     <g transform="translate(180.555708 289.486537) scale(0.1 -0.1)">
      <use xlink:href="#DejaVuSans-13"/>
      <use xlink:href="#DejaVuSans-11" transform="translate(63.625 0)"/>
      <use xlink:href="#DejaVuSans-13" transform="translate(95.40625 0)"/>
     </g>
    </g>
   </g>
   <g id="xtick_4">
    <g id="line2d_5">
     <path d="M 229.654987 275.813145 
L 227.503114 277.890194 
" style="fill: none; stroke: #000000; stroke-width: 0.8; stroke-linecap: square"/>
    </g>
    <g id="text_4">
     <!-- 0.5 -->
     <g transform="translate(213.566281 300.48496) scale(0.1 -0.1)">
      <use xlink:href="#DejaVuSans-13"/>
      <use xlink:href="#DejaVuSans-11" transform="translate(63.625 0)"/>
      <use xlink:href="#DejaVuSans-18" transform="translate(95.40625 0)"/>
     </g>
    </g>
   </g>
   <g id="xtick_5">
    <g id="line2d_6">
     <path d="M 263.385522 286.818651 
L 261.284057 288.94492 
" style="fill: none; stroke: #000000; stroke-width: 0.8; stroke-linecap: square"/>
    </g>
    <g id="text_5">
     <!-- 1.0 -->
     <g transform="translate(247.357265 311.7434) scale(0.1 -0.1)">
      <use xlink:href="#DejaVuSans-14"/>
      <use xlink:href="#DejaVuSans-11" transform="translate(63.625 0)"/>
      <use xlink:href="#DejaVuSans-13" transform="translate(95.40625 0)"/>
     </g>
    </g>
   </g>
  </g>
  <g id="axis3d_2">
   <g id="line2d_7">
    <path d="M 352.090401 209.294766 
L 272.679269 290.790123 
" style="fill: none; stroke: #000000; stroke-width: 0.8; stroke-linecap: square"/>
   </g>
   <g id="xtick_6">
    <g id="line2d_8">
     <path d="M 276.918943 284.744604 
L 280.687074 285.965668 
" style="fill: none; stroke: #000000; stroke-width: 0.8; stroke-linecap: square"/>
    </g>
    <g id="text_6">
     <!-- −1.0 -->
     <g transform="translate(278.913132 306.172223) scale(0.1 -0.1)">
      <use xlink:href="#DejaVuSans-c9c"/>
      <use xlink:href="#DejaVuSans-14" transform="translate(83.796875 0)"/>
      <use xlink:href="#DejaVuSans-11" transform="translate(147.421875 0)"/>
      <use xlink:href="#DejaVuSans-13" transform="translate(179.203125 0)"/>
     </g>
    </g>
   </g>
   <g id="xtick_7">
    <g id="line2d_9">
     <path d="M 295.289808 265.925349 
L 299.006028 267.098198 
" style="fill: none; stroke: #000000; stroke-width: 0.8; stroke-linecap: square"/>
    </g>
    <g id="text_7">
     <!-- −0.5 -->
     <g transform="translate(297.020539 287.058077) scale(0.1 -0.1)">
      <use xlink:href="#DejaVuSans-c9c"/>
      <use xlink:href="#DejaVuSans-13" transform="translate(83.796875 0)"/>
      <use xlink:href="#DejaVuSans-11" transform="translate(147.421875 0)"/>
      <use xlink:href="#DejaVuSans-18" transform="translate(179.203125 0)"/>
     </g>
    </g>
   </g>
   <g id="xtick_8">
    <g id="line2d_10">
     <path d="M 312.942742 247.841548 
L 316.608191 248.968982 
" style="fill: none; stroke: #000000; stroke-width: 0.8; stroke-linecap: square"/>
    </g>
    <g id="text_8">
     <!-- 0.0 -->
     <g transform="translate(318.609453 268.691647) scale(0.1 -0.1)">
      <use xlink:href="#DejaVuSans-13"/>
      <use xlink:href="#DejaVuSans-11" transform="translate(63.625 0)"/>
      <use xlink:href="#DejaVuSans-13" transform="translate(95.40625 0)"/>
     </g>
    </g>
   </g>
   <g id="xtick_9">
    <g id="line2d_11">
     <path d="M 329.919023 230.450915 
L 333.534825 231.535522 
" style="fill: none; stroke: #000000; stroke-width: 0.8; stroke-linecap: square"/>
    </g>
    <g id="text_9">
     <!-- 0.5 -->
     <g transform="translate(335.340955 251.029903) scale(0.1 -0.1)">
      <use xlink:href="#DejaVuSans-13"/>
      <use xlink:href="#DejaVuSans-11" transform="translate(63.625 0)"/>
      <use xlink:href="#DejaVuSans-18" transform="translate(95.40625 0)"/>
     </g>
    </g>
   </g>
   <g id="xtick_10">
    <g id="line2d_12">
     <path d="M 346.256825 213.714346 
L 349.824086 214.758519 
" style="fill: none; stroke: #000000; stroke-width: 0.8; stroke-linecap: square"/>
    </g>
    <g id="text_10">
     <!-- 1.0 -->
     <g transform="translate(351.442585 234.03305) scale(0.1 -0.1)">
      <use xlink:href="#DejaVuSans-14"/>
      <use xlink:href="#DejaVuSans-11" transform="translate(63.625 0)"/>
      <use xlink:href="#DejaVuSans-13" transform="translate(95.40625 0)"/>
     </g>
    </g>
   </g>
  </g>
  <g id="axis3d_3">
   <g id="line2d_13">
    <path d="M 352.090401 209.294766 
L 357.122702 99.402171 
" style="fill: none; stroke: #000000; stroke-width: 0.8; stroke-linecap: square"/>
   </g>
   <g id="xtick_11">
    <g id="line2d_14">
     <path d="M 351.462109 196.695679 
L 355.033851 197.719004 
" style="fill: none; stroke: #000000; stroke-width: 0.8; stroke-linecap: square"/>
    </g>
    <g id="text_11">
     <!-- −0.4 -->
     <g transform="translate(358.848198 202.053132) scale(0.1 -0.1)">
      <defs>
       <path id="DejaVuSans-17" d="M 2419 4116 
L 825 1625 
L 2419 1625 
L 2419 4116 
z
M 2253 4666 
L 3047 4666 
L 3047 1625 
L 3713 1625 
L 3713 1100 
L 3047 1100 
L 3047 0 
L 2419 0 
L 2419 1100 
L 313 1100 
L 313 1709 
L 2253 4666 
z
" transform="scale(0.015625)"/>
      </defs>
      <use xlink:href="#DejaVuSans-c9c"/>
      <use xlink:href="#DejaVuSans-13" transform="translate(83.796875 0)"/>
      <use xlink:href="#DejaVuSans-11" transform="translate(147.421875 0)"/>
      <use xlink:href="#DejaVuSans-17" transform="translate(179.203125 0)"/>
     </g>
    </g>
   </g>
   <g id="xtick_12">
    <g id="line2d_15">
     <path d="M 352.393727 176.132006 
L 355.996416 177.139094 
" style="fill: none; stroke: #000000; stroke-width: 0.8; stroke-linecap: square"/>
    </g>
    <g id="text_12">
     <!-- −0.2 -->
     <g transform="translate(359.939787 181.525074) scale(0.1 -0.1)">
      <defs>
       <path id="DejaVuSans-15" d="M 1228 531 
L 3431 531 
L 3431 0 
L 469 0 
L 469 531 
Q 828 903 1448 1529 
Q 2069 2156 2228 2338 
Q 2531 2678 2651 2914 
Q 2772 3150 2772 3378 
Q 2772 3750 2511 3984 
Q 2250 4219 1831 4219 
Q 1534 4219 1204 4116 
Q 875 4013 500 3803 
L 500 4441 
Q 881 4594 1212 4672 
Q 1544 4750 1819 4750 
Q 2544 4750 2975 4387 
Q 3406 4025 3406 3419 
Q 3406 3131 3298 2873 
Q 3191 2616 2906 2266 
Q 2828 2175 2409 1742 
Q 1991 1309 1228 531 
z
" transform="scale(0.015625)"/>
      </defs>
      <use xlink:href="#DejaVuSans-c9c"/>
      <use xlink:href="#DejaVuSans-13" transform="translate(83.796875 0)"/>
      <use xlink:href="#DejaVuSans-11" transform="translate(147.421875 0)"/>
      <use xlink:href="#DejaVuSans-15" transform="translate(179.203125 0)"/>
     </g>
    </g>
   </g>
   <g id="xtick_13">
    <g id="line2d_16">
     <path d="M 353.341016 155.22245 
L 356.975191 156.212608 
" style="fill: none; stroke: #000000; stroke-width: 0.8; stroke-linecap: square"/>
    </g>
    <g id="text_13">
     <!-- 0.0 -->
     <g transform="translate(365.239531 160.65265) scale(0.1 -0.1)">
      <use xlink:href="#DejaVuSans-13"/>
      <use xlink:href="#DejaVuSans-11" transform="translate(63.625 0)"/>
      <use xlink:href="#DejaVuSans-13" transform="translate(95.40625 0)"/>
     </g>
    </g>
   </g>
   <g id="xtick_14">
    <g id="line2d_17">
     <path d="M 354.304373 133.95821 
L 357.97059 134.930715 
" style="fill: none; stroke: #000000; stroke-width: 0.8; stroke-linecap: square"/>
    </g>
    <g id="text_14">
     <!-- 0.2 -->
     <g transform="translate(366.368209 139.427121) scale(0.1 -0.1)">
      <use xlink:href="#DejaVuSans-13"/>
      <use xlink:href="#DejaVuSans-11" transform="translate(63.625 0)"/>
      <use xlink:href="#DejaVuSans-15" transform="translate(95.40625 0)"/>
     </g>
    </g>
   </g>
   <g id="xtick_15">
    <g id="line2d_18">
     <path d="M 355.284211 112.330184 
L 358.983039 113.284285 
" style="fill: none; stroke: #000000; stroke-width: 0.8; stroke-linecap: square"/>
    </g>
    <g id="text_15">
     <!-- 0.4 -->
     <g transform="translate(367.516143 117.839452) scale(0.1 -0.1)">
      <use xlink:href="#DejaVuSans-13"/>
      <use xlink:href="#DejaVuSans-11" transform="translate(63.625 0)"/>
      <use xlink:href="#DejaVuSans-17" transform="translate(95.40625 0)"/>
     </g>
    </g>
   </g>
  </g>
  <g id="axes_1">
   <g id="Poly3DCollection_1">
    <path d="M 226.754805 196.716835 
L 244.428318 181.181914 
L 214.498549 173.102667 
z
" clip-path="url(#p499d90e0c7)" style="fill: #185c8b"/>
    <path d="M 196.468595 188.356126 
L 226.754805 196.716835 
L 214.498549 173.102667 
z
" clip-path="url(#p499d90e0c7)" style="fill: #185c8b"/>
    <path d="M 208.414075 212.861491 
L 226.754805 196.716835 
L 196.468595 188.356126 
z
" clip-path="url(#p499d90e0c7)" style="fill: #185c8b"/>
    <path d="M 258.080226 155.062738 
L 244.428318 181.181914 
L 226.754805 196.716835 
z
" clip-path="url(#p499d90e0c7)" style="fill: #1c6ba1"/>
    <path d="M 177.765732 204.178872 
L 208.414075 212.861491 
L 196.468595 188.356126 
z
" clip-path="url(#p499d90e0c7)" style="fill: #185c8b"/>
    <path d="M 258.080226 155.062738 
L 275.717189 139.788682 
L 244.428318 181.181914 
z
" clip-path="url(#p499d90e0c7)" style="fill: #1c6ba1"/>
    <path d="M 189.368178 229.652059 
L 208.414075 212.861491 
L 177.765732 204.178872 
z
" clip-path="url(#p499d90e0c7)" style="fill: #185c8b"/>
    <path d="M 208.414075 212.861491 
L 239.756108 170.931892 
L 226.754805 196.716835 
z
" clip-path="url(#p499d90e0c7)" style="fill: #1c6ba1"/>
    <path d="M 158.351571 220.60338 
L 189.368178 229.652059 
L 177.765732 204.178872 
z
" clip-path="url(#p499d90e0c7)" style="fill: #185c8b"/>
    <path d="M 239.756108 170.931892 
L 258.080226 155.062738 
L 226.754805 196.716835 
z
" clip-path="url(#p499d90e0c7)" style="fill: #1c6ba1"/>
    <path d="M 291.460478 110.677597 
L 275.717189 139.788682 
L 258.080226 155.062738 
z
" clip-path="url(#p499d90e0c7)" style="fill: #1c6ba1"/>
    <path d="M 291.460478 110.677597 
L 309.019769 95.731438 
L 275.717189 139.788682 
z
" clip-path="url(#p499d90e0c7)" style="fill: #1c6ba1"/>
    <path d="M 169.576261 247.12706 
L 189.368178 229.652059 
L 158.351571 220.60338 
z
" clip-path="url(#p499d90e0c7)" style="fill: #185c8b"/>
    <path d="M 220.70388 187.431608 
L 208.414075 212.861491 
L 189.368178 229.652059 
z
" clip-path="url(#p499d90e0c7)" style="fill: #1c6ba1"/>
    <path d="M 138.184749 237.664644 
L 169.576261 247.12706 
L 158.351571 220.60338 
z
" clip-path="url(#p499d90e0c7)" style="fill: #185c8b"/>
    <path d="M 220.70388 187.431608 
L 239.756108 170.931892 
L 208.414075 212.861491 
z
" clip-path="url(#p499d90e0c7)" style="fill: #1c6ba1"/>
    <path d="M 273.195118 126.196941 
L 258.080226 155.062738 
L 239.756108 170.931892 
z
" clip-path="url(#p499d90e0c7)" style="fill: #1c6ba1"/>
    <path d="M 325.239763 118.771404 
L 342.340426 103.533622 
L 309.019769 95.731438 
z
" clip-path="url(#p499d90e0c7)" style="fill: #185c8b"/>
    <path d="M 291.460478 110.677597 
L 258.080226 155.062738 
L 273.195118 126.196941 
z
" clip-path="url(#p499d90e0c7)" style="fill: #1c6ba1"/>
    <path d="M 325.239763 118.771404 
L 309.019769 95.731438 
L 291.460478 110.677597 
z
" clip-path="url(#p499d90e0c7)" style="fill: #185c8b"/>
    <path d="M 169.576261 247.12706 
L 200.879264 204.600227 
L 189.368178 229.652059 
z
" clip-path="url(#p499d90e0c7)" style="fill: #1c6ba1"/>
    <path d="M 200.879264 204.600227 
L 220.70388 187.431608 
L 189.368178 229.652059 
z
" clip-path="url(#p499d90e0c7)" style="fill: #1c6ba1"/>
    <path d="M 220.70388 187.431608 
L 254.179553 142.326473 
L 239.756108 170.931892 
z
" clip-path="url(#p499d90e0c7)" style="fill: #1c6ba1"/>
    <path d="M 307.442231 134.630141 
L 325.239763 118.771404 
L 291.460478 110.677597 
z
" clip-path="url(#p499d90e0c7)" style="fill: #185c8b"/>
    <path d="M 254.179553 142.326473 
L 273.195118 126.196941 
L 239.756108 170.931892 
z
" clip-path="url(#p499d90e0c7)" style="fill: #1c6ba1"/>
    <path d="M 307.442231 134.630141 
L 291.460478 110.677597 
L 273.195118 126.196941 
z
" clip-path="url(#p499d90e0c7)" style="fill: #185c8b"/>
    <path d="M 200.879264 204.600227 
L 234.365929 159.106768 
L 220.70388 187.431608 
z
" clip-path="url(#p499d90e0c7)" style="fill: #1c6ba1"/>
    <path d="M 288.904349 151.148578 
L 307.442231 134.630141 
L 273.195118 126.196941 
z
" clip-path="url(#p499d90e0c7)" style="fill: #185c8b"/>
    <path d="M 234.365929 159.106768 
L 254.179553 142.326473 
L 220.70388 187.431608 
z
" clip-path="url(#p499d90e0c7)" style="fill: #1c6ba1"/>
    <path d="M 288.904349 151.148578 
L 273.195118 126.196941 
L 254.179553 142.326473 
z
" clip-path="url(#p499d90e0c7)" style="fill: #185c8b"/>
    <path d="M 269.578938 168.368752 
L 288.904349 151.148578 
L 254.179553 142.326473 
z
" clip-path="url(#p499d90e0c7)" style="fill: #185c8b"/>
    <path d="M 234.365929 159.106768 
L 269.578938 168.368752 
L 254.179553 142.326473 
z
" clip-path="url(#p499d90e0c7)" style="fill: #185c8b"/>
   </g>
  </g>
 </g>
 <defs>
  <clipPath id="p499d90e0c7">
   <rect x="103.104" y="41.472" width="266.112" height="266.112"/>
  </clipPath>
 </defs>
</svg>
